<svg width="265" height="187" viewBox="0 0 265 187" fill="none" xmlns="http://www.w3.org/2000/svg">
<path d="M62.4148 -63.1491C54.3454 -60.3856 47.2391 -57.78 40.0066 -55.5376C30.8317 -52.7108 21.5938 -50.0736 12.3242 -47.5943C6.63924 -46.0783 2.01235 -48.2102 0.496362 -52.5687C-1.11437 -57.2115 1.23848 -61.949 6.92342 -64.0177C27.7998 -71.6451 48.7393 -79.0988 69.6947 -86.5051C72.2213 -87.4052 75.0007 -87.879 77.7011 -87.9895C86.5127 -88.3212 91.4396 -80.7254 87.6496 -72.8137C77.2904 -51.258 72.9951 -27.9495 68.0681 -4.83038C67.9892 -4.45137 68.1312 -4.02498 68.2418 -2.93535C84.0333 -9.74158 101.546 -10.7838 116.99 -20.401C112.111 -23.7962 107.579 -26.765 103.252 -30.0181C99.9512 -32.4974 96.3192 -34.8662 93.8558 -38.0719C87.0496 -46.9311 91.8503 -58.2695 102.952 -59.5329C122.596 -61.7911 141.688 -66.0233 159.864 -73.9981C161.822 -74.8508 163.923 -75.4035 166.007 -75.9404C174.945 -78.1829 181.388 -73.4611 180.835 -64.1598C180.346 -56.0429 178.782 -47.9575 177.203 -39.9511C172.592 -16.4689 167.744 6.96607 162.738 31.7275C179.067 27.2268 194.527 22.9631 210.081 18.6835C204.965 7.0766 200.133 -3.89863 195.3 -14.8581C194.606 -16.4372 193.8 -17.9849 193.295 -19.6114C191.116 -26.5282 194.542 -32.5764 201.696 -33.7134C213.303 -35.5768 224.988 -36.9665 236.627 -38.7036C241.585 -39.4458 246.481 -40.6144 251.408 -41.5461C257.945 -42.7936 262.525 -40.1722 263.93 -33.6502C264.72 -29.9392 264.988 -25.8965 264.451 -22.1538C260.188 7.21876 255.671 36.5598 251.202 65.9166C250.397 71.1437 249.37 76.3391 248.47 81.5503C247.586 86.7616 244.112 90.2042 237.858 91.3096C228.826 92.9204 219.667 93.8837 210.681 95.7314C182.588 101.48 154.511 107.386 126.497 113.529C121.096 114.713 115.964 117.192 110.753 119.182C108.352 120.098 106.094 121.44 103.678 122.325C92.5134 126.446 83.5912 121.63 81.7752 109.833C79.3749 94.168 78.9801 78.4078 82.5648 62.7898C82.9438 61.1316 83.3069 59.4735 83.8754 56.8995C78.001 57.6575 72.632 58.1154 67.405 59.2208C66.4101 59.4261 65.6046 62.1265 65.2888 63.7847C59.667 93.8047 54.2822 123.888 48.4552 153.861C47.0339 161.125 44.4914 168.231 41.8068 175.148C40.5119 178.496 38.0802 181.67 35.443 184.165C30.8634 188.508 24.4204 187.434 21.8779 181.638C20.283 178.006 19.3671 173.49 19.8882 169.621C21.4989 157.84 23.9625 146.186 26.0627 134.468C30.9739 107.086 36.0588 79.7186 40.6857 52.2883C42.1701 43.5081 46.7496 38.2179 54.8506 35.0753C65.952 30.7642 77.3851 31.4591 88.8498 32.1697C92.5608 32.4066 96.2718 32.9909 99.9038 33.8278C108.621 35.8334 112.332 42.3711 110.01 51.0407C108.526 56.5836 106.963 62.1107 105.841 67.7168C104.152 76.118 104.799 84.5034 106.505 92.7625C107.042 92.8889 107.373 93.0783 107.594 92.9835C128.755 84.2191 151.416 83.2717 173.682 80.0975C191.858 77.5077 209.955 74.4599 228.052 71.349C229.457 71.1121 231.352 69.0433 231.621 67.5589C233.232 58.684 234.448 49.73 235.758 40.7919C238.711 20.6417 241.648 0.491463 244.586 -19.6588C244.775 -20.9221 244.854 -22.1854 245.091 -24.4437C234.511 -22.1854 224.436 -20.0219 214.029 -17.7953C214.55 -15.695 214.74 -14.2738 215.229 -12.9789C219.067 -2.95112 222.872 7.07661 226.899 17.0254C228.715 21.5418 227.389 25.5687 222.588 27.5111C217.409 29.6114 212.118 31.4275 206.86 33.3383C191.637 38.8654 176.398 44.3451 161.191 49.888C155.695 51.8935 150.137 53.9464 144.878 49.6669C139.446 45.2452 140.377 39.2759 141.562 33.3698C147.136 5.6869 152.711 -22.0117 158.253 -49.6946C158.522 -51.0527 158.664 -52.4266 158.933 -54.2426C148.384 -50.6105 138.419 -47.1679 128.013 -43.5832C130.366 -40.9302 132.734 -38.6562 134.629 -36.0348C137.472 -32.1026 140.567 -28.2021 142.509 -23.8278C145.368 -17.4005 142.588 -11.226 136.082 -8.71507C120.859 -2.80898 105.526 2.82866 90.2553 8.64001C83.5597 11.1825 76.864 13.7408 70.279 16.5675C57.2983 22.1735 47.3498 15.4146 49.6237 1.48631C52.7978 -18.0165 57.1404 -37.3455 61.0093 -56.7377C61.3094 -58.5222 61.7674 -60.3066 62.4148 -63.1491Z" fill="#FFD910"/>
</svg>
