<svg width="219" height="55" viewBox="0 0 219 55" fill="none" xmlns="http://www.w3.org/2000/svg">
    <path d="M113.872 31.0937C117.094 27.4931 119.652 24.2085 122.637 21.366C128.337 15.9494 133.912 10.2802 140.228 5.66903C148.629 -0.47395 157.015 1.02625 163.947 8.81156C164.61 9.55377 165.242 10.3434 165.858 11.133C171.559 18.3182 174.591 19.3604 183.229 16.0284C187.745 14.2913 191.993 11.7962 196.304 9.55382C201.689 6.75869 207.153 5.46369 212.601 9.08C218.049 12.6963 219.439 18.4129 218.46 24.2716C217.623 29.2618 215.522 34.0784 213.706 38.8632C212.806 41.2162 210.769 41.6584 208.89 39.8581C206.426 37.5052 204.184 34.8995 201.436 31.9938C200.031 32.736 198.325 33.6677 196.604 34.5678C188.471 38.8474 179.976 41.5636 170.611 40.6003C159.936 39.5107 152.246 33.9204 146.703 24.0821C143.955 26.7667 141.429 29.0091 139.17 31.4884C134.543 36.5892 130.327 42.0532 125.495 46.9486C115.878 56.6763 104.84 56.6288 95.3489 46.7748C91.4958 42.7795 88.2427 38.1368 85.0844 33.5572C83.0315 30.5883 81.2944 30.4778 78.4836 32.4675C72.8776 36.447 67.3347 40.6635 61.2708 43.8534C54.2278 47.5486 46.8848 51.1492 39.2417 53.1705C26.4032 56.55 14.3226 51.1176 8.55869 39.2106C4.73715 31.3148 2.24215 22.6293 0.236631 14.0386C-1.50044 6.61651 6.66379 0.726244 13.6752 4.31096C16.9914 6.00068 19.7391 9.4275 21.9183 12.6174C24.4766 16.3759 26.1189 20.7501 28.235 24.8086C30.0194 28.2038 32.8303 29.1987 36.1307 27.2721C40.9313 24.4612 45.6688 21.4607 50.2325 18.2866C56.4702 13.9597 62.2341 8.87477 68.7244 5.0058C84.2791 -4.27973 97.4807 -0.53714 106.277 15.3177C109.009 20.1658 111.14 25.3613 113.872 31.0937Z"
          fill="#FD28E8"/>
</svg>
