<svg width="146" height="401" viewBox="0 0 146 401" fill="none" xmlns="http://www.w3.org/2000/svg">
<path d="M19.053 239.636C23.1904 237.125 27.612 234.993 31.3862 232.024C38.824 226.166 45.9144 219.896 53.0995 213.722C62.7166 205.463 72.7916 197.898 84.8089 193.398C91.0624 191.045 97.3632 190.287 103.601 193.414C110.739 196.998 114.134 203.283 115.792 210.721C118.129 221.144 116.281 231.393 113.549 241.341C108.196 260.828 102.037 280.094 96.4946 299.534C91.0939 318.484 87.5566 337.829 86.3091 357.489C85.8827 364.28 86.3407 371.276 87.5093 377.987C89.0094 386.657 94.2049 392.737 103.032 395.184C104.28 395.532 105.417 396.242 106.538 397.379C102.211 400.174 97.6158 401.106 92.7994 400.301C83.8772 398.832 77.7975 393.416 73.818 385.599C68.1173 374.387 65.7959 362.29 65.7327 349.815C65.638 326.917 70.1228 304.761 77.3395 283.126C81.7453 269.94 86.7355 256.928 90.9834 243.694C93.21 236.762 94.4575 229.529 96.0998 222.407C96.3525 221.302 96.3683 220.117 96.3683 218.98C96.3209 211.89 94.726 210.563 88.7568 214.18C80.0873 219.438 71.7651 225.329 63.5536 231.282C55.5473 237.093 48.1884 243.805 39.9452 249.221C34.6551 252.696 28.4964 255.27 22.3693 256.928C12.6733 259.549 5.15654 254.859 1.95086 245.274C-1.01794 236.399 -0.180999 227.413 1.69819 218.491C5.47236 200.488 13.9208 184.539 24.0905 169.489C32.1916 157.487 41.3822 146.212 49.3096 134.1C60.8216 116.539 63.3799 96.863 60.79 76.3653C60.1584 71.3909 58.1844 67.4114 53.2575 64.711C47.1935 61.3948 45.2196 55.4097 47.3041 50.1353C49.4201 44.7503 55.1209 42.1762 62.0692 43.4869C62.7798 43.6133 63.4904 43.7396 64.1694 43.9765C105.322 58.4417 141.106 79.9026 162.708 119.745C169.783 132.805 174.884 146.638 178.626 160.993C178.879 161.941 179.195 162.872 179.937 165.336C180.995 163.583 181.469 162.572 182.148 161.735C199.424 140.811 219.984 124.214 245.219 113.76C284.698 97.3999 324.161 81.0081 363.64 64.6636C377.489 58.9313 391.148 52.8988 401.555 41.6077C404.745 38.1494 407.698 34.3751 410.13 30.364C413.162 25.3581 412.183 21.3943 406.829 19.0414C402.218 17.0042 396.991 15.3935 392.033 15.3777C378.642 15.3461 365.456 17.0516 353.217 23.3209C351.48 24.2211 348.195 24.4737 346.995 23.4315C345.716 22.326 345.116 18.915 345.874 17.2727C347.169 14.4302 349.254 11.1613 351.875 9.8506C369.688 1.03883 388.274 -3.19336 407.982 2.7917C411.077 3.73921 414.078 5.39734 416.746 7.26076C426.821 14.2881 430.201 25.2317 424.137 35.8911C419.747 43.6133 413.793 50.6564 407.587 57.0994C398.634 66.4165 387.327 72.6227 375.531 77.676C344.421 91.0042 313.186 104.032 282.045 117.297C269.649 122.588 257.189 127.783 245.109 133.768C219.4 146.496 198.997 165.194 184.516 190.05C182.258 193.935 181.153 198.514 179.558 202.778C178.516 205.589 177.9 208.621 176.463 211.195C174.031 215.569 169.341 217.449 164.73 216.454C160.119 215.475 156.55 211.858 156.092 206.915C155.808 203.82 156.092 200.599 156.597 197.519C158.366 186.844 157.655 176.453 154.323 166.094C145.685 139.153 131.71 115.624 110.202 96.9735C104.848 92.3307 98.8476 88.446 92.9889 84.1032C84.5562 114.834 66.396 139.074 48.7253 163.567C35.7289 181.586 24.0747 200.299 19.0057 222.265C17.7739 227.571 17.7108 233.145 17.1265 238.594C17.7739 239.004 18.4214 239.32 19.053 239.636Z" fill="#3DFFA2"/>
</svg>
