<svg width="209" height="146" viewBox="0 0 209 146" fill="none" xmlns="http://www.w3.org/2000/svg">
<g opacity="0.8">
<path d="M73.3494 35.9366C82.9265 36.3084 92.3803 38.2278 101.344 41.6204C103.682 42.4446 105.711 43.3851 107.86 44.3603C109.991 45.3123 112.065 46.387 114.072 47.5789L120.118 50.9598C122.065 52.2176 123.956 53.5844 125.859 54.8744C127.228 55.8604 128.676 56.7486 129.925 57.6999L133.833 60.8305L137.73 63.9829C138.998 65.1101 140.144 66.3674 141.378 67.6149C149.808 76.1309 156.529 86.1829 161.178 97.2275C165.726 108.133 168.511 119.692 169.426 131.472L169.676 139.261C169.702 140.546 169.837 141.833 169.774 143.127L169.598 146.99C169.406 149.655 169.436 152.159 169.212 154.725L168.375 162.586C167.89 165.823 167.217 169.029 166.359 172.187C165.693 175.397 164.796 178.554 163.676 181.635C162.534 184.693 161.49 187.775 160.096 190.84L157.837 195.2C157.08 196.66 155.997 197.951 155.099 199.311C152.657 202.636 151.544 201.423 150.581 197.357C149.89 194.821 149.525 192.207 149.496 189.579C149.515 186.347 149.86 183.126 150.524 179.964C151.335 177.029 151.957 174.045 152.387 171.031C152.825 168.051 153.515 165.118 153.788 162.135C154.062 159.152 154.598 156.25 155.003 153.281L155.613 144.417C156.07 132.532 154.575 120.652 151.189 109.25C149.116 102.226 145.947 95.5729 141.798 89.5374C140.766 88.0073 139.523 86.6169 138.381 85.1401C137.266 83.6591 136.073 82.2381 134.807 80.8833L130.891 76.8083L128.965 74.8152L126.828 73.0167L122.164 68.9968C120.591 67.7114 118.827 66.632 117.165 65.4113C113.823 63.0227 110.321 60.8666 106.684 58.958C90.5473 49.8784 71.6204 47.0953 53.5532 51.1452C38.1575 54.6207 23.7301 61.484 11.3201 71.2359C1.84466 78.7758 -6.60172 87.5251 -13.8032 97.2603C-15.3709 99.3789 -17.0355 101.364 -18.6685 103.449C-24.8507 111.112 -26.8397 113.51 -30.2838 114.021C-30.9997 114.175 -31.7624 114.527 -32.2903 114.585C-33.7891 114.97 -34.276 109.879 -30.7808 102.759C-29.4368 100.165 -28.0816 97.5492 -26.7264 94.9334C-26.0375 93.6037 -25.3599 92.2958 -24.5184 91.0452C-23.6769 89.7946 -22.8144 88.6101 -21.9624 87.3926C-18.3903 82.5725 -14.51 77.9886 -10.3458 73.6696C-1.73569 64.73 8.07116 57.0261 18.7952 50.7774C35.2226 40.8119 54.0848 35.5806 73.2985 35.6614L73.3494 35.9366Z" fill="#BC75C4"/>
<path d="M71.2247 66.8262C78.3514 67.4043 85.3539 69.0293 92.0068 71.6487C93.6335 72.298 95.2369 73.0457 96.841 73.7386C98.4451 74.4314 99.9363 75.3422 101.484 76.1441C104.563 77.7576 107.523 79.5871 110.343 81.6187C114.571 84.5236 118.486 87.8585 122.026 91.57C128.182 98.1764 133.033 105.887 136.325 114.296C139.338 122.618 141.002 131.367 141.256 140.214L141.427 145.86C141.421 147.793 141.207 149.7 141.19 151.654C140.973 155.467 140.556 159.265 139.94 163.034C139.543 165.455 138.828 167.794 138.267 170.158L137.371 173.703L136.147 177.133C134.687 181.765 132.437 186.108 129.495 189.972C127.561 192.371 126.521 191.39 125.49 188.256C124.776 186.357 124.317 184.371 124.125 182.351C124.065 181.185 124.07 180.015 124.142 178.849C124.171 177.598 124.325 176.353 124.602 175.133C125.807 170.781 126.375 166.375 127.129 162.037C127.27 159.843 127.729 157.731 128.079 155.562C128.296 154.497 128.422 153.415 128.455 152.328L128.742 149.104C129.428 140.465 128.764 131.772 126.774 123.338C123.817 112.998 117.905 103.746 109.764 96.7192L106.379 93.8596C105.815 93.4013 105.262 92.8663 104.654 92.4403L102.794 91.1728L99.0868 88.6161L95.0541 86.5268C89.8006 83.5722 84.142 81.4044 78.2591 80.0926C70.992 78.4424 63.4737 78.2187 56.1215 79.4341C44.7237 81.365 33.9536 85.9954 24.7107 92.9385C17.6811 98.2929 11.462 104.635 6.24595 111.768C5.12528 113.344 3.9077 114.787 2.67804 116.306C-1.90416 121.895 -3.47681 123.596 -6.3899 123.829C-7.01707 123.919 -7.62401 124.13 -8.05262 124.156C-9.31824 124.358 -10.0186 120.373 -7.56975 115.006C-6.69542 112.998 -5.74441 111.002 -4.7385 109.007C-3.76828 106.992 -2.60057 105.078 -1.25252 103.293C6.86774 91.9971 17.4462 82.6918 29.6855 76.0785C42.3553 69.0497 56.7504 65.7363 71.2182 66.5187L71.2247 66.8262Z" fill="#F59402"/>
<path d="M66.7413 102.272C75.6904 102.946 84.2071 106.392 91.1074 112.131C92.2886 113.213 93.5151 114.208 94.719 115.246C95.9229 116.285 96.9266 117.496 97.9417 118.685C101.315 123.048 103.904 127.963 105.595 133.212C107.245 138.34 108.12 143.686 108.189 149.072L108.215 152.597L107.857 156.117C107.834 158.455 107.395 160.744 107.066 162.979C106.826 164.458 106.344 165.867 106.016 167.301L105.437 169.434L104.638 171.508C103.743 174.348 102.186 176.934 100.094 179.052C98.6694 180.361 97.7699 179.535 96.6932 177.291C95.9812 176.052 95.4319 174.727 95.0589 173.347C94.7974 171.947 94.792 170.511 95.0429 169.109C95.5391 166.638 95.9084 164.144 96.1495 161.636C96.244 160.407 96.4156 159.184 96.6633 157.976C96.8877 156.787 97.0479 155.587 97.1432 154.381C97.5477 149.438 97.3389 144.463 96.5215 139.571C95.1758 133.547 92.1661 128.022 87.8348 123.624C83.3285 118.549 77.3943 114.955 70.81 113.31C66.6623 112.392 62.3717 112.323 58.1967 113.107C51.5235 114.313 45.2154 117.032 39.7565 121.055C35.6564 124.186 32.0369 127.9 29.0132 132.079C28.3639 132.976 27.6546 133.828 26.8903 134.629C25.9324 135.797 24.8205 136.83 23.5851 137.7C23.1755 137.961 22.723 138.148 22.2485 138.251C21.7239 138.317 21.1947 138.339 20.6664 138.316C20.1837 138.288 19.6994 138.368 19.3378 138.319C18.9761 138.27 18.3569 137.811 18.1442 136.567C17.9679 135.926 17.9475 135.252 18.0846 134.601C18.225 133.776 18.4576 132.969 18.778 132.195C19.2284 130.898 19.7488 129.626 20.337 128.386L21.2857 126.555C21.6212 125.958 22.0001 125.388 22.4192 124.847C27.3147 117.952 33.7496 112.292 41.2133 108.317C48.9654 103.896 57.7699 101.655 66.6927 101.832L66.7413 102.272Z" fill="#FDE97E"/>
</g>
</svg>
