<svg width="20" height="20" viewBox="0 0 20 20" fill="none" xmlns="http://www.w3.org/2000/svg">
<path d="M8.88889 4.44444H15.5556V6.66667H8.88889V4.44444ZM8.88889 8.88889H15.5556V11.1111H8.88889V8.88889ZM8.88889 13.3333H15.5556V15.5556H8.88889V13.3333ZM4.44444 4.44444H6.66667V6.66667H4.44444V4.44444ZM4.44444 8.88889H6.66667V11.1111H4.44444V8.88889ZM4.44444 13.3333H6.66667V15.5556H4.44444V13.3333ZM19 0H1C0.444445 0 0 0.444445 0 1V19C0 19.4444 0.444445 20 1 20H19C19.4444 20 20 19.4444 20 19V1C20 0.444445 19.4444 0 19 0ZM17.7778 17.7778H2.22222V2.22222H17.7778V17.7778Z" fill="#757373"/>
</svg>
