<svg width="177" height="69" viewBox="0 0 177 69" fill="none" xmlns="http://www.w3.org/2000/svg">
<path d="M120.072 46.7293C119.172 49.2183 118.483 51.633 117.456 53.8996C112.393 65.0309 101.612 70.7714 91.0524 68.0177C85.1426 66.4713 80.885 62.7114 77.6653 57.6912C73.3865 51.0293 71.0459 43.6367 69.6161 35.9051C69.4784 35.1743 69.3195 34.4541 69.0865 33.342C67.9639 34.0304 67.1166 34.5918 66.2269 35.079C60.656 38.0975 55.297 41.6773 49.4507 43.9968C26.6799 53.0205 5.24353 40.8512 0.869417 16.7456C-1.07934 6.01667 0.286907 -4.32037 4.5763 -14.3079C8.89746 -24.359 15.1462 -33.0544 23.1001 -40.5212C33.7971 -50.5616 45.5849 -59.2041 57.8706 -67.1899C61.4398 -69.5093 64.5006 -69.5517 66.9789 -67.5923C69.2666 -65.7812 70.2092 -61.9366 69.1924 -58.5792C68.2604 -55.5395 65.7503 -54.5439 63.1661 -56.408C61.9693 -57.2765 61.1644 -57.4883 59.9041 -56.6304C36.4766 -40.7965 20.6217 -20.0695 17.4232 8.8657C17.222 10.6768 17.2326 12.5091 17.1796 14.3413C16.7242 30.9378 32.8757 37.8856 43.8268 33.9986C47.7561 32.6006 51.5795 30.5777 55.0216 28.2158C59.0462 25.4515 62.8166 22.2212 66.2587 18.7579C68.6311 16.3749 70.2621 13.2505 72.1791 10.4226C72.7722 9.55413 73.1217 8.51617 73.7254 7.65829C76.3202 3.94077 80.7367 2.75456 84.3589 4.7563C87.8645 6.6839 89.3897 10.9945 87.568 15.0404C82.6961 25.8222 84.3165 36.4346 88.1399 46.9941C88.8813 49.0276 90.0675 51.0187 91.4655 52.671C95.0771 56.9498 101.082 56.8121 103.91 52.0037C105.636 49.07 106.568 45.3948 106.876 41.9633C107.342 36.8159 106.854 31.5839 106.96 26.3942C107.034 22.6766 109.206 19.87 112.309 18.9591C115.497 18.0271 118.769 19.1604 120.983 22.0623C121.682 22.9732 122.222 24.0005 122.804 24.9961C123.917 26.9131 124.732 29.0631 126.141 30.7154C129.678 34.8565 133.088 39.2731 137.272 42.6729C143.881 48.0532 151.157 47.2589 157.331 41.4125C170.475 28.9572 174.192 11.2911 167.107 -5.36891C155.213 -33.3085 130.038 -46.0074 104.503 -43.9315C91.1372 -42.8512 82.4207 -34.7384 76.7863 -23.1304C74.3291 -18.0784 75.653 -14.5091 80.3025 -11.1941C80.4614 -11.0776 80.6308 -10.9928 80.7791 -10.8657C82.4313 -9.49948 84.9096 -8.44038 83.9247 -5.68666C83.0138 -3.15536 80.5884 -2.67874 78.216 -2.59401C73.3759 -2.41396 69.6055 -4.40512 67.0848 -8.5251C63.4944 -14.382 62.6472 -20.7262 65.189 -27.0703C70.1562 -39.4621 77.7395 -49.8097 90.1416 -55.7513C96.814 -58.9499 104.069 -59.5007 111.324 -58.9075C136.117 -56.8846 155.33 -45.4249 168.505 -24.2742C174.944 -13.9372 180.378 -3.02825 181.691 9.28934C183.735 28.5018 175.537 43.2448 160.149 53.9207C149.907 61.0274 139.03 59.9789 128.704 53.37C125.728 51.4742 123.08 49.07 120.072 46.7293Z" fill="#FFD910"/>
</svg>
