<svg width="87" height="305" viewBox="0 0 87 305" fill="none" xmlns="http://www.w3.org/2000/svg">
<path d="M59.2228 155.52C54.7696 159.01 50.948 162.2 46.9054 165.106C42.6101 168.201 38.3148 171.438 33.6406 173.839C21.718 179.95 10.3954 175.86 4.69471 163.685C0.825794 155.441 0.0677991 146.551 0.00463302 137.628C-0.137491 113.151 3.00502 88.9898 7.39506 64.9548C10.6323 47.1734 13.9959 29.4235 17.2805 11.6578C18.5755 4.67784 23.3445 0.145609 29.6453 0.00348354C35.9145 -0.138642 41.5679 4.07774 42.6417 10.8998C43.4313 15.9215 43.4787 21.2591 42.7049 26.2809C38.6307 52.4951 34.0353 78.6305 29.9295 104.829C28.1135 116.436 26.9134 128.153 25.65 139.839C25.2553 143.598 25.5869 147.435 25.5869 152.267C27.9872 150.704 29.4558 149.883 30.7823 148.872C38.0622 143.282 45.2473 137.565 52.5746 132.038C56.5698 129.022 60.6282 126.006 64.9393 123.463C75.0301 117.51 85.7052 122.989 86.2579 134.675C86.6369 142.808 85.8473 151.004 85.563 159.168C84.1418 198.869 82.7206 238.569 81.2835 278.285C81.0151 285.77 80.4466 293.193 76.8461 299.999C74.0194 305.336 71.3191 305.557 67.845 300.599C62.3495 292.75 61.5599 283.496 60.3124 274.416C55.4013 238.68 56.5856 202.864 58.9701 167.048C59.1754 163.906 59.3649 160.747 59.5228 157.605C59.5228 157.194 59.3965 156.768 59.2228 155.52Z" fill="#3DFFA2"/>
</svg>
