<svg width="165" height="146" viewBox="0 0 165 146" fill="none" xmlns="http://www.w3.org/2000/svg">
    <path d="M164.117 18.1795C163.403 19.2594 162.408 21.8252 160.544 23.3414C156.232 26.8604 151.737 30.2733 146.904 33.0013C131.553 41.6711 115.988 49.964 100.565 58.5187C76.6276 71.7925 52.7459 85.1961 28.8099 98.4541C24.6845 100.735 20.3981 102.8 16.0325 104.607C13.7113 105.573 10.9274 106.606 8.61274 106.165C6.28235 105.722 3.33702 103.945 2.44611 101.945C1.65117 100.188 2.6215 96.7193 4.04906 95.0975C6.35951 92.4851 9.50525 90.4456 12.6161 88.7205C31.9059 77.9803 51.0257 66.9133 70.6822 56.9074C93.8484 45.1214 116.32 32.2649 137.953 17.8543C142.916 14.5489 148.384 11.7963 153.955 9.68283C159.672 7.49914 164.599 11.2951 164.117 18.1795Z"
          fill="#FD28E8"/>
    <path d="M18.171 136.821C15.7077 134.662 12.9568 133.071 11.3934 130.682C9.51111 127.815 10.5607 124.604 12.7933 121.971C13.2534 121.429 13.7617 120.875 14.3689 120.516C27.1705 112.925 39.9278 105.284 52.8292 97.8735C55.9272 96.1 59.7246 95.5716 62.1408 99.0251C64.7328 102.711 62.5278 105.931 59.765 108.436C56.3826 111.506 52.8197 114.422 49.1283 117.108C41.8449 122.408 34.4719 127.624 26.9841 132.642C24.5755 134.268 21.6878 135.184 18.171 136.821Z"
          fill="#FD28E8"/>
</svg>
