<svg width="26" height="25" viewBox="0 0 26 25" fill="none" xmlns="http://www.w3.org/2000/svg">
<path d="M13 0C13.2444 1.00002 13.3666 1.50003 13.5092 1.9556C15.0117 6.75571 18.82 10.4833 23.6512 11.8826C24.1097 12.0154 24.6122 12.1269 25.6172 12.3499L26 12.4348L25.6172 12.5197C24.6122 12.7427 24.1097 12.8541 23.6512 12.9869C18.82 14.3863 15.0117 18.1139 13.5092 22.914C13.3666 23.3695 13.2444 23.8696 13 24.8696C12.7556 23.8696 12.6334 23.3695 12.4908 22.914C10.9883 18.1139 7.18002 14.3863 2.34884 12.9869C1.89032 12.8541 1.38781 12.7427 0.382785 12.5197L0 12.4348L0.382785 12.3499C1.38781 12.1269 1.89032 12.0154 2.34884 11.8826C7.18002 10.4833 10.9883 6.75571 12.4908 1.9556C12.6334 1.50003 12.7556 1.00002 13 0Z" fill="#9A86FF"/>
</svg>
