<svg width="74" height="106" viewBox="0 0 74 106" fill="none" xmlns="http://www.w3.org/2000/svg">
<path d="M27.5259 53.6772C27.5259 53.6772 33.0461 56.8597 33.0633 60.3414C33.0849 63.5947 27.208 63.735 27.208 63.735C27.208 63.735 36.5944 67.0134 37.5834 63.3052C38.5725 59.597 35.931 55.0866 33.3665 54.6877C30.8021 54.2887 27.5259 53.6772 27.5259 53.6772Z" fill="#231F20"/>
<path d="M28.0538 55.971C26.1231 55.1745 24.0531 54.7704 21.9645 54.7823C19.9918 54.7779 18.0482 55.2579 16.3044 56.1802L15.881 56.4448L15.6923 56.5823C15.6923 56.5823 15.6791 56.6396 15.6711 56.674C15.5435 56.8098 15.4286 56.9571 15.328 57.114C15.0261 57.6546 14.7597 58.2143 14.5306 58.7895C13.4815 61.4868 12.7665 64.3023 12.4015 67.1733C11.9662 70.2397 11.7284 73.3309 11.6894 76.4277C11.6571 79.196 11.8253 81.963 12.1928 84.707C12.4183 86.4496 12.7664 88.1843 13.0854 89.8882L13.3251 91.1511L13.4299 92.5277C13.4827 93.3972 13.5496 94.258 13.6421 95.1125C13.7381 96.1611 12.9778 96.4203 11.6692 95.8645C10.8653 95.4801 10.127 94.9713 9.48144 94.3571C9.08134 93.9982 8.71586 93.6025 8.38982 93.1752C8.21171 92.953 8.08475 92.7184 7.90664 92.4961C7.80287 92.2396 7.71427 91.9772 7.6413 91.7103C6.70606 87.9809 6.1016 84.1764 5.83494 80.3408C5.59522 76.4955 5.758 72.6357 6.32063 68.8243C6.66664 66.4891 6.92094 64.1327 7.32604 61.7508C7.54003 60.5092 7.82372 59.2806 8.17579 58.0708C8.59745 56.7385 9.19146 55.467 9.94271 54.2886C10.4482 53.5396 11.059 52.8672 11.7561 52.2923L12.3559 51.8391L12.8586 51.5446C13.1848 51.3467 13.524 51.1708 13.8737 51.0182C15.2116 50.3899 16.6299 49.9494 18.0884 49.7092C20.8553 49.2844 23.6762 49.3631 26.4152 49.9414C29.7568 50.5866 32.8911 52.0357 35.5474 54.1633C38.1186 56.1129 39.6474 59.1389 39.6912 62.3654C39.6753 62.7204 39.6301 63.0734 39.5561 63.421C39.4767 63.7649 39.3285 64.093 39.2262 64.4316C39.1238 64.7702 38.8142 65.0127 38.5937 65.2878L37.8044 65.987L36.8836 66.5231C36.5671 66.6745 36.2392 66.8007 35.9029 66.9004C35.345 67.0705 34.7747 67.1972 34.1973 67.2794C32.2585 67.501 30.2985 67.4547 28.3724 67.1419C27.4288 67.0448 26.5426 66.8039 25.6175 66.6266C24.6924 66.4492 23.7947 66.2056 22.9296 65.8731C22.0645 65.5405 21.3802 65.4187 20.6923 65.1029C20.0045 64.7871 19.4234 64.5321 18.9622 64.2807C18.5898 64.0492 18.2482 63.7715 17.9455 63.4543C17.5053 63.0129 17.2453 62.4233 17.2164 61.8006C17.1737 61.5406 17.1536 61.2774 17.1565 61.014C17.2342 60.2591 18.6479 60.1508 20.6885 60.622C23.5811 61.5618 26.5501 62.2474 29.5618 62.6709C30.8932 62.8622 32.2445 62.8695 33.5779 62.6926C33.8566 62.6362 34.0921 62.5578 34.3452 62.5075C34.5983 62.4573 34.518 62.4388 34.5321 62.43C34.429 62.4061 34.5136 62.5102 34.5321 62.43C34.5148 62.351 34.4924 62.2732 34.4652 62.1971C34.4208 62.0536 34.3687 61.9126 34.3091 61.7747C34.1557 61.4978 34.0817 61.1908 33.9309 60.9025C33.5961 60.237 33.152 59.6323 32.6171 59.1138C31.3287 57.7683 29.7607 56.722 28.0238 56.0486L28.0538 55.971Z" fill="#231F20"/>
<path d="M33.6652 16.9244C33.9431 16.3485 34.2183 15.7842 34.5191 15.2136L34.8252 14.6201C34.9313 14.359 35.0545 14.105 35.1939 13.86L36.0319 12.375C36.5559 11.3609 37.2342 10.5153 37.8084 9.59732L38.7963 8.5092L39.2831 7.96955L39.7753 7.56395C40.8294 6.56091 42.1515 5.88476 43.5818 5.61725C44.2611 5.47851 44.96 5.46396 45.6445 5.57431C46.0371 5.64068 46.4146 5.77694 46.7591 5.9766C47.0583 6.16204 47.336 6.38006 47.5872 6.62666C48.2307 7.30893 48.7348 8.11036 49.0711 8.98591C49.4742 10.1336 49.6691 11.3441 49.6465 12.5603C49.6343 13.8664 49.531 15.17 49.3373 16.4617C49.1864 17.1152 49.1272 17.7898 48.9992 18.4485C48.8713 19.1073 48.6789 19.8357 48.6128 20.1223C48.2527 21.6814 47.8954 23.2291 47.4119 24.7476C46.5419 27.783 45.6085 30.7795 44.4802 33.731C43.5486 36.3536 42.6028 38.9851 41.6871 41.5389C40.6136 44.98 38.9488 48.2078 36.7675 51.0776C36.0214 51.9559 35.4835 51.409 35.2482 50.2317C34.8895 48.5941 34.9018 46.8971 35.2841 45.2649C35.5347 44.4412 35.6732 43.5796 35.9811 42.7692L36.7558 40.3036L38.2468 35.3105C38.7391 33.6491 39.2473 31.9189 39.7176 30.3007C40.1878 28.6825 40.8442 26.9383 41.3859 25.3245C42.058 23.3119 42.5554 21.2451 42.8727 19.1471L43.0201 18.4566L43.1392 17.9407L43.2504 16.8313C43.2928 16.344 43.2334 15.8533 43.076 15.3903C43.0008 15.1688 42.7865 15.0253 42.5531 15.0401C42.353 15.0613 42.1617 15.1336 41.9975 15.2499C41.2712 15.8219 40.6643 16.5311 40.2114 17.3371C40.1091 17.4791 40.0146 17.6266 39.9282 17.7789L39.3911 18.6933C39.04 19.3247 38.6801 19.942 38.3493 20.5901C37.656 21.867 37.0349 23.1968 36.4598 24.5372C34.6743 28.5966 33.1948 32.7838 32.0337 37.0638C31.2438 40.3482 30.7106 43.6891 30.4388 47.0562C30.3664 47.7882 30.3707 48.5016 30.2868 49.2309C30.15 50.1971 29.8718 51.1378 29.461 52.0229C29.1403 52.5489 28.6823 52.9775 28.1362 53.2626C27.9097 53.409 27.6737 53.54 27.4298 53.655C27.047 53.796 26.7119 53.5738 26.3654 53.0349C25.8218 52.2779 25.4611 51.4052 25.3119 50.4852C25.073 48.8557 25.0489 47.2018 25.2403 45.566C25.3763 43.931 25.5661 42.2722 25.845 40.6461C26.419 37.3586 27.2012 34.111 28.1868 30.9227C28.9203 28.5482 29.7416 26.1939 30.6509 23.86C31.1149 22.6872 31.5992 21.5311 32.095 20.3776C32.5908 19.2242 33.0574 18.0399 33.5788 16.8803L33.6652 16.9244Z" fill="#231F20"/>
<path d="M61.6553 30.102C62.1642 29.2052 62.6415 28.289 63.079 27.3878C63.5165 26.4865 63.9805 25.6276 64.3387 24.7564L64.4154 24.4239L64.4631 24.2176C64.4805 24.1654 64.4929 24.1116 64.5002 24.0571C64.539 23.9456 64.5656 23.8303 64.5796 23.7131C64.6536 23.4462 64.6475 23.1635 64.562 22.9C64.5166 22.6956 64.325 22.5578 64.1167 22.5798C63.9388 22.647 63.7665 22.7283 63.6017 22.8232C63.4484 22.8957 63.3027 22.9835 63.1669 23.085C63.0733 23.1404 62.9855 23.2051 62.9049 23.2781L62.8176 23.3425L62.6553 23.5224L62.3052 23.8883C61.387 24.8839 60.5376 25.8953 59.5894 26.9684C57.7548 29.0565 55.9996 31.2715 54.3369 33.5563C52.8559 35.6294 51.6043 37.7555 50.2953 39.8683C49.4837 41.2386 48.7357 42.6478 47.9586 44.0261L46.7854 46.0736C46.4264 46.7394 45.8522 47.3434 45.4861 47.9351C45.2471 48.2905 45.0213 48.2746 44.7047 48.286C44.3881 48.2975 44.001 48.039 43.6933 47.4366C43.3256 46.6951 43.0689 45.9035 42.9317 45.0872C42.8074 44.1416 42.9255 43.1799 43.2751 42.2925C43.9138 40.677 44.6134 39.1117 45.3535 37.58C46.0539 36.0299 46.8824 34.5409 47.8304 33.1286C49.7055 30.2726 51.7927 27.5617 54.0744 25.0187C54.7685 24.2612 55.4477 23.4641 56.1154 22.6643L58.2816 20.2906L58.9792 19.7271C59.2624 19.4423 59.534 19.1549 59.8542 18.8665C60.4716 18.2846 61.1013 17.7538 61.7258 17.2459C62.8272 16.3332 64.1544 15.7344 65.5675 15.5126C66.3099 15.424 67.0599 15.5972 67.6884 16.0023C67.9811 16.2511 68.2765 16.4883 68.5666 16.7485L69.3152 17.5855C70.1375 18.9609 70.5475 20.5435 70.4964 22.145C70.4858 23.0154 70.3828 23.8821 70.1891 24.7307C70.1329 25.1195 70.0444 25.503 69.9244 25.8771C69.8529 26.1866 69.7788 26.5076 69.6438 26.7784C69.2625 27.9126 68.7939 29.0155 68.2421 30.0773C66.8943 32.6061 65.3834 35.0445 63.7188 37.377C61.2764 40.8945 58.5297 44.1606 55.8942 47.4162C53.825 49.9452 51.9224 52.5368 49.7923 55.0155C49.3169 55.5578 48.8733 56.1195 48.3546 56.6397C47.7221 57.3897 46.9278 57.9866 46.0315 58.3856C45.4096 58.528 44.7574 58.45 44.1866 58.1649C43.9266 58.0707 43.6745 57.956 43.4327 57.8217C43.0888 57.5853 43.0156 57.1699 43.1242 56.5429C43.2314 55.7669 43.559 55.0378 44.0681 54.4424L49.3303 47.7602C51.0697 45.4569 52.8197 43.1078 54.5723 40.7472C57.1277 37.2957 59.4481 33.6762 61.5177 29.9133L61.6553 30.102Z" fill="#231F20"/>
<path d="M43.6754 81.4003C40.7238 83.776 37.5859 85.9104 34.2921 87.783C33.1034 88.5431 31.8589 89.2124 30.5694 89.7853C29.3487 90.3102 28.0728 90.6961 26.7657 90.9356C26.0345 91.0697 25.29 91.1167 24.5477 91.0756C23.6642 91.0374 22.8025 90.7887 22.0345 90.3503L21.4339 89.9701C21.2629 89.822 21.0971 89.6508 20.9402 89.4938C20.6132 89.1642 20.3422 88.7835 20.1378 88.3667C19.9367 87.9515 19.7906 87.5118 19.7032 87.0588C19.6458 86.6528 19.6193 86.243 19.624 85.833C19.7397 84.414 20.2172 83.0484 21.0108 81.8664C22.1878 80.0207 23.6147 78.3467 25.2507 76.8923C27.2144 75.0255 29.5179 73.5529 32.0365 72.5543C32.8303 72.2546 33.0445 72.8957 32.8107 73.8561C32.4879 75.0811 31.8132 76.1847 30.8701 77.0306C30.3691 77.4221 29.929 77.8638 29.4598 78.2747C29.2181 78.4846 28.9994 78.6997 28.7921 78.9175L28.098 79.518C27.2422 80.3157 26.4432 81.1722 25.7069 82.0813C25.0039 82.8673 24.4242 83.7554 23.9877 84.7153C23.8221 85.0739 23.7024 85.452 23.6313 85.8406C23.6304 86.106 23.5801 86.3238 23.6568 86.4623C23.7335 86.6008 23.6956 86.5558 23.7308 86.6122C23.7478 86.6695 23.791 86.7153 23.8472 86.7357C23.8472 86.7357 23.9001 86.8204 23.9804 86.8389C24.0591 86.8446 24.1364 86.8625 24.2097 86.8918C24.7506 86.9513 25.2979 86.8966 25.8165 86.7315C27.191 86.2928 28.5089 85.6932 29.7429 84.9454C32.7226 83.2265 35.5137 81.1998 38.0704 78.8985C39.6873 77.4822 41.221 75.9736 42.6639 74.3803C43.7382 73.1793 44.8151 71.9669 45.751 70.6856C45.9936 70.3673 46.2044 70.0296 46.424 69.7059C46.5325 69.5499 46.6436 69.3823 46.7433 69.2121L46.9788 68.8197C47.2295 68.4158 47.4343 67.9852 47.5893 67.5358C47.908 66.923 47.7801 66.1731 47.2764 65.7005C46.7747 65.2586 45.9404 65.5249 45.4536 65.7506C45.2102 65.8634 44.9879 66.0415 44.8124 66.1217C44.6807 66.1948 44.5304 66.2273 44.3803 66.2152C44.3803 66.2152 44.0822 66.1463 43.9446 66.1146C43.773 66.093 43.6039 66.054 43.4402 65.9981C43.1271 65.8933 42.8412 65.72 42.6034 65.4909C42.3449 65.1879 42.126 64.8533 41.9518 64.4952C41.7831 64.193 41.6463 63.8741 41.5436 63.5436C41.4605 62.9916 41.516 62.4276 41.7052 61.9024C41.7754 61.5867 41.91 61.289 42.1004 61.0276C42.2004 60.8918 42.3107 60.7639 42.4303 60.6449L42.6181 60.4589L42.7249 60.3628C42.7487 60.2596 42.7487 60.2596 42.7513 60.2481L42.8642 60.1776C43.7919 59.7052 44.747 59.2886 45.7243 58.9301C46.6593 58.5957 47.6495 58.4432 48.6417 58.4807C49.0931 58.5153 49.5406 58.5904 49.9786 58.7049L50.6435 58.8584L51.2423 59.1416C52.0694 59.5629 52.8054 60.1432 53.408 60.8492L54.1177 62.2206C54.3388 62.6659 54.5018 63.1378 54.6026 63.6247C54.6942 64.1168 54.695 64.6362 54.7558 65.1574C54.8166 65.6786 54.6498 66.2439 54.5968 66.7871C54.5439 67.3303 54.3321 67.9335 54.1451 68.482C53.9348 69.0508 53.6784 69.6014 53.3785 70.1284C53.1177 70.7037 52.8158 71.2595 52.4752 71.7915L52.0871 72.4264C51.9901 72.5852 51.8931 72.7439 51.7872 72.8885C49.5208 76.112 46.8205 79.0075 43.7627 81.4929L43.6754 81.4003Z" fill="#231F20"/>
<path d="M48.5889 86.7089C46.4667 88.4602 44.2281 90.0653 41.8886 91.5134C41.0128 92.0116 40.2128 92.5997 39.293 93.0273C37.6667 93.7907 35.9822 94.4233 34.2554 94.9191C33.3569 95.1771 32.4408 95.3692 31.5144 95.4937C30.5268 95.648 29.5209 95.644 28.5345 95.4819C27.5647 95.2953 26.6621 94.8535 25.9199 94.2019C25.0472 93.5092 24.535 92.4586 24.5269 91.3444C24.5726 90.621 24.8212 89.9251 25.2441 89.3365C25.5926 88.8437 26.0303 88.4205 26.5345 88.0888C27.3595 87.4988 28.279 87.0536 29.2535 86.7725C29.8559 86.6217 30.0189 87.1183 29.8874 87.897C29.7311 88.8269 29.3943 89.7173 28.8959 90.5178C28.6948 90.7807 28.5238 91.0652 28.386 91.3661C28.3595 91.4807 28.386 91.3661 28.3701 91.4349C28.3701 91.4349 28.3013 91.419 28.5218 91.6148C28.8528 91.9147 29.2824 92.0826 29.729 92.0868C30.0803 92.1266 30.4353 92.1192 30.7846 92.0649C31.1709 91.9609 31.5554 91.9168 31.9611 91.7811C34.0103 91.0317 35.9053 89.9142 37.5527 88.4836C39.5037 86.9899 41.5675 85.5827 43.4408 83.9021C44.5992 82.8962 45.6977 81.8233 46.7307 80.6889C48.3042 79.0911 49.594 77.2369 50.5447 75.2058C50.8363 74.57 50.9204 73.8585 50.7848 73.1722C50.7746 73.0664 50.7296 72.9668 50.657 72.8891C50.616 72.8373 50.5446 72.8208 50.485 72.8494L50.7849 72.7013L50.9463 72.6299C51.0265 72.6484 51.1721 72.4888 51.2259 72.465C51.2852 72.4278 51.34 72.3837 51.389 72.3336C51.5407 72.1996 51.4181 72.2075 51.3414 72.54C51.2661 72.7595 51.2137 72.9861 51.1852 73.2164C51.1508 73.3654 51.1164 73.5145 51.082 73.6635L51.0634 73.7437L50.798 73.7428C50.2877 73.7591 49.782 73.6424 49.3306 73.404C48.8866 73.0516 48.5516 72.5807 48.3642 72.0457C48.239 71.7512 48.0971 71.4769 48.0036 71.2017C47.8653 70.7379 47.8989 70.2398 48.0982 69.7987C48.3052 69.2485 48.6801 68.7774 49.1698 68.4522C49.6389 68.096 50.1566 67.8089 50.7071 67.5996C51.8299 67.1894 53.0798 67.3262 54.0873 67.9696C54.7911 68.3606 55.3919 68.9132 55.8403 69.5819C55.9437 69.7265 56.0319 69.8676 56.1048 70.0052C56.1815 70.1437 56.2291 70.2513 56.2855 70.373L56.5844 71.1182C56.7394 71.5788 56.84 72.0559 56.884 72.5399C56.9472 72.9434 56.966 73.3527 56.9403 73.7604C56.8632 75.0877 56.5382 76.3888 55.9821 77.5965C55.5492 78.5844 55.0275 79.5309 54.4234 80.4245C52.7401 82.7748 50.7787 84.9127 48.5818 86.7918L48.5889 86.7089Z" fill="#231F20"/>
</svg>
