<svg width="28" height="28" viewBox="0 0 28 28" fill="none" xmlns="http://www.w3.org/2000/svg">
<path d="M17.5 10.5H21.875M17.5 14H21.875M17.5 17.5H21.875M5.25 22.75H22.75C23.4462 22.75 24.1139 22.4734 24.6062 21.9812C25.0984 21.4889 25.375 20.8212 25.375 20.125V7.875C25.375 7.17881 25.0984 6.51113 24.6062 6.01884C24.1139 5.52656 23.4462 5.25 22.75 5.25H5.25C4.55381 5.25 3.88613 5.52656 3.39384 6.01884C2.90156 6.51113 2.625 7.17881 2.625 7.875V20.125C2.625 20.8212 2.90156 21.4889 3.39384 21.9812C3.88613 22.4734 4.55381 22.75 5.25 22.75ZM12.25 10.9375C12.25 11.2248 12.1934 11.5092 12.0835 11.7746C11.9736 12.04 11.8124 12.2812 11.6093 12.4843C11.4062 12.6874 11.165 12.8486 10.8996 12.9585C10.6342 13.0684 10.3498 13.125 10.0625 13.125C9.77523 13.125 9.49078 13.0684 9.22538 12.9585C8.95998 12.8486 8.71883 12.6874 8.5157 12.4843C8.31258 12.2812 8.15145 12.04 8.04151 11.7746C7.93158 11.5092 7.875 11.2248 7.875 10.9375C7.875 10.3573 8.10547 9.80094 8.5157 9.3907C8.92594 8.98047 9.48234 8.75 10.0625 8.75C10.6427 8.75 11.1991 8.98047 11.6093 9.3907C12.0195 9.80094 12.25 10.3573 12.25 10.9375ZM13.7597 18.3295C12.6214 18.9358 11.3511 19.252 10.0613 19.25C8.7724 19.2516 7.50295 18.9354 6.36533 18.3295C6.64333 17.5726 7.14693 16.9193 7.80811 16.4578C8.46929 15.9963 9.25618 15.7488 10.0625 15.7488C10.8688 15.7488 11.6557 15.9963 12.3169 16.4578C12.9781 16.9193 13.4817 17.5726 13.7597 18.3295Z" stroke="black" stroke-width="1.5" stroke-linecap="round" stroke-linejoin="round"/>
</svg>
