<svg width="175" height="149" viewBox="0 0 175 149" fill="none" xmlns="http://www.w3.org/2000/svg">
<path d="M80.3483 138.655C82.186 135.768 83.7175 133.353 85.249 130.95C86.2267 129.419 87.1456 127.84 88.1822 126.356C94.7321 116.931 101.906 114.587 112.615 118.592C116.82 120.171 120.825 122.244 124.96 123.988C135.468 128.441 144.963 125.154 149.97 114.882C155.412 103.714 157.474 91.8273 154.882 79.5875C149.345 53.376 133.501 35.1163 110.058 23.0178C105.405 20.6146 100.516 18.659 95.8512 16.2794C93.7779 15.2192 91.8812 13.7466 90.0788 12.2387C86.4387 9.21113 86.4623 4.98196 90.6679 2.82614C93.9663 1.14153 98.0306 -0.236781 101.624 0.0341692C138.26 2.73189 166.639 24.0427 173.13 58.9246C176.852 78.9513 174.991 98.5893 167.782 117.638C163.034 130.196 154.611 138.996 141.311 142.566C134.231 144.462 127.246 143.708 120.46 141.388C115.418 139.656 110.482 137.535 105.617 135.321C103.367 134.296 102.036 134.696 100.881 136.723C98.6785 140.634 96.5463 144.604 94.1667 148.409C85.7438 161.933 75.5184 162.722 65.0339 150.682C62.1006 147.313 59.3324 143.803 56.1281 139.939C54.4907 142.448 53.0298 144.627 51.6398 146.854C46.48 155.124 40.3544 162.498 31.8725 167.552C28.9628 169.295 25.8409 170.886 22.6131 171.864C15.3093 174.078 8.58282 171.404 4.67176 164.831C-0.417322 156.266 -1.17129 147.066 1.54996 137.583C2.5395 134.119 4.87203 132.387 7.76998 132.611C11.1038 132.859 12.5881 135.144 13.2361 138.042C14.2963 142.731 15.0267 147.502 16.2401 152.155C17.2768 156.137 18.0424 156.302 21.494 154.087C26.7481 150.718 30.5884 146.029 33.828 140.775C36.6317 136.228 39.2115 131.504 42.3451 127.18C51.9342 113.939 62.9843 113.951 72.6559 127.098C75.2593 130.632 77.521 134.39 80.3483 138.655Z" fill="#7B61FF"/>
</svg>
