<svg width="28" height="28" viewBox="0 0 28 28" fill="none" xmlns="http://www.w3.org/2000/svg">
<path d="M10.176 26.8332H4.99133C2.41183 26.8332 1.16699 25.7229 1.16699 23.4308V4.56883C1.16699 2.27674 2.42466 1.1665 4.99133 1.1665H10.176C12.7555 1.1665 14.0003 2.27674 14.0003 4.56883V23.4308C14.0003 25.7229 12.7427 26.8332 10.176 26.8332ZM4.99133 2.9572C3.36149 2.9572 3.09199 3.36309 3.09199 4.56883V23.4308C3.09199 24.6366 3.36149 25.0425 4.99133 25.0425H10.176C11.8058 25.0425 12.0753 24.6366 12.0753 23.4308V4.56883C12.0753 3.36309 11.8058 2.9572 10.176 2.9572H4.99133Z" fill="black"/>
<path d="M23.357 16.3332H18.6437C16.2987 16.3332 15.167 15.2048 15.167 12.8752V4.6245C15.167 2.2949 16.3103 1.1665 18.6437 1.1665H23.357C25.702 1.1665 26.8337 2.2949 26.8337 4.6245V12.8752C26.8337 15.2048 25.6903 16.3332 23.357 16.3332ZM18.6437 2.9865C17.162 2.9865 16.917 3.39904 16.917 4.6245V12.8752C16.917 14.1006 17.162 14.5132 18.6437 14.5132H23.357C24.8387 14.5132 25.0837 14.1006 25.0837 12.8752V4.6245C25.0837 3.39904 24.8387 2.9865 23.357 2.9865H18.6437Z" fill="black"/>
<path d="M23.357 26.8333H18.6437C16.2987 26.8333 15.167 25.676 15.167 23.2867V21.0467C15.167 18.6573 16.3103 17.5 18.6437 17.5H23.357C25.702 17.5 26.8337 18.6573 26.8337 21.0467V23.2867C26.8337 25.676 25.6903 26.8333 23.357 26.8333ZM18.6437 19.3667C17.162 19.3667 16.917 19.7898 16.917 21.0467V23.2867C16.917 24.5436 17.162 24.9667 18.6437 24.9667H23.357C24.8387 24.9667 25.0837 24.5436 25.0837 23.2867V21.0467C25.0837 19.7898 24.8387 19.3667 23.357 19.3667H18.6437Z" fill="black"/>
</svg>
