<svg width="742" height="762" viewBox="0 0 742 762" fill="none" xmlns="http://www.w3.org/2000/svg">
<circle cx="374.5" cy="400.5" r="337.5" fill="#F5F4F2"/>
<g filter="url(#filter0_f_938_1345)">
<path d="M293.867 160C407.094 220.526 595.279 370.128 442.204 484.324C250.86 627.069 198.378 613.2 293.867 160Z" fill="#9DE03C"/>
</g>
<g filter="url(#filter1_f_938_1345)">
<path d="M622 318.622C609.013 330.461 298.078 422.898 343.781 575.213C389.485 727.529 484.639 609.82 622 318.622Z" fill="#D320E4"/>
</g>
<g filter="url(#filter2_f_938_1345)">
<path d="M410.008 478.289C368.444 463.894 290.714 446.52 312.304 492.186C339.292 549.269 519.4 512.396 410.008 478.289Z" fill="white"/>
</g>
<g filter="url(#filter3_f_938_1345)">
<path d="M155.717 438.582C201.048 401.293 316.382 356.459 415.065 475.434C538.418 624.153 47.4512 674.124 155.717 438.582Z" fill="#F2D32B"/>
</g>
<path d="M380.534 546.2C364.9 546.2 350.2 543.167 336.434 537.1C324.534 541.533 311.7 543.75 297.934 543.75C284.4 543.75 277.167 543.633 276.234 543.4C276.234 527.3 282.65 492.533 295.484 439.1C308.317 385.433 314.734 354.983 314.734 347.75C314.734 340.283 313.334 333.633 310.534 327.8C307.967 321.967 305.284 317.533 302.484 314.5L298.634 310.3L299.684 302.25C306.45 300.617 319.984 298.75 340.284 296.65C360.817 294.55 378.55 293.5 393.484 293.5C429.417 293.5 456.017 300.967 473.284 315.9C490.784 330.6 499.534 354.283 499.534 386.95C499.534 412.383 494.867 437.117 485.534 461.15C476.434 484.95 462.55 505.133 443.884 521.7C425.217 538.033 404.1 546.2 380.534 546.2ZM398.384 318.35C394.184 318.35 389.634 318.7 384.734 319.4C384.034 332.933 378.084 364.083 366.884 412.85C355.684 461.383 348.8 494.633 346.234 512.6C350.434 514.7 355.45 515.75 361.284 515.75C373.65 515.75 384.617 510.15 394.184 498.95C403.984 487.75 411.45 473.75 416.584 456.95C426.617 422.883 431.634 391.967 431.634 364.2C431.634 347.4 429.067 335.617 423.934 328.85C419.034 321.85 410.517 318.35 398.384 318.35Z" fill="black"/>
<path d="M336.434 537.1L336.837 536.185L336.465 536.021L336.085 536.163L336.434 537.1ZM276.234 543.4H275.234V544.181L275.991 544.37L276.234 543.4ZM295.484 439.1L296.456 439.334L296.456 439.333L295.484 439.1ZM310.534 327.8L309.618 328.203L309.625 328.218L309.632 328.233L310.534 327.8ZM302.484 314.5L301.747 315.176L301.749 315.178L302.484 314.5ZM298.634 310.3L297.642 310.171L297.582 310.632L297.897 310.976L298.634 310.3ZM299.684 302.25L299.449 301.278L298.781 301.439L298.692 302.121L299.684 302.25ZM340.284 296.65L340.182 295.655L340.181 295.655L340.284 296.65ZM473.284 315.9L472.63 316.656L472.635 316.661L472.641 316.666L473.284 315.9ZM485.534 461.15L484.602 460.788L484.6 460.793L485.534 461.15ZM443.884 521.7L444.542 522.453L444.548 522.448L443.884 521.7ZM384.734 319.4L384.592 318.41L383.778 318.526L383.735 319.348L384.734 319.4ZM366.884 412.85L367.858 413.075L367.858 413.074L366.884 412.85ZM346.234 512.6L345.244 512.459L345.142 513.172L345.787 513.494L346.234 512.6ZM394.184 498.95L393.431 498.291L393.423 498.301L394.184 498.95ZM416.584 456.95L417.54 457.242L417.543 457.233L416.584 456.95ZM423.934 328.85L423.115 329.423L423.126 329.439L423.137 329.454L423.934 328.85ZM380.534 545.2C365.034 545.2 350.472 542.193 336.837 536.185L336.031 538.015C349.929 544.14 364.767 547.2 380.534 547.2V545.2ZM336.085 536.163C324.305 540.551 311.591 542.75 297.934 542.75V544.75C311.81 544.75 324.762 542.515 336.783 538.037L336.085 536.163ZM297.934 542.75C291.169 542.75 285.983 542.721 282.375 542.663C280.57 542.634 279.166 542.597 278.158 542.554C277.653 542.532 277.256 542.509 276.96 542.485C276.812 542.473 276.696 542.461 276.609 542.45C276.565 542.445 276.532 542.44 276.508 542.436C276.482 542.431 276.473 542.429 276.476 542.43L275.991 544.37C276.198 544.422 276.49 544.454 276.798 544.479C277.13 544.506 277.556 544.53 278.072 544.552C279.106 544.597 280.531 544.633 282.343 544.662C285.967 544.721 291.166 544.75 297.934 544.75V542.75ZM277.234 543.4C277.234 527.442 283.615 492.798 296.456 439.334L294.511 438.866C281.686 492.269 275.234 527.158 275.234 543.4H277.234ZM296.456 439.333C302.874 412.496 307.689 391.457 310.9 376.219C312.505 368.6 313.711 362.425 314.516 357.696C315.318 352.992 315.734 349.654 315.734 347.75H313.734C313.734 349.463 313.348 352.644 312.545 357.36C311.746 362.052 310.546 368.2 308.943 375.806C305.737 391.018 300.927 412.037 294.511 438.867L296.456 439.333ZM315.734 347.75C315.734 340.157 314.309 333.355 311.435 327.367L309.632 328.233C312.358 333.912 313.734 340.41 313.734 347.75H315.734ZM311.449 327.397C308.859 321.512 306.123 316.968 303.219 313.822L301.749 315.178C304.445 318.099 307.075 322.422 309.618 328.203L311.449 327.397ZM303.221 313.824L299.371 309.624L297.897 310.976L301.747 315.176L303.221 313.824ZM299.625 310.429L300.675 302.379L298.692 302.121L297.642 310.171L299.625 310.429ZM299.918 303.222C306.609 301.607 320.077 299.746 340.387 297.645L340.181 295.655C319.891 297.754 306.291 299.626 299.449 301.278L299.918 303.222ZM340.386 297.645C360.897 295.547 378.594 294.5 393.484 294.5V292.5C378.506 292.5 360.737 293.553 340.182 295.655L340.386 297.645ZM393.484 294.5C429.308 294.5 455.624 301.949 472.63 316.656L473.938 315.144C456.41 299.985 429.526 292.5 393.484 292.5V294.5ZM472.641 316.666C489.83 331.105 498.534 354.447 498.534 386.95H500.534C500.534 354.119 491.737 330.095 473.927 315.134L472.641 316.666ZM498.534 386.95C498.534 412.258 493.891 436.868 484.602 460.788L486.466 461.512C495.844 437.365 500.534 412.509 500.534 386.95H498.534ZM484.6 460.793C475.556 484.446 461.764 504.494 443.22 520.952L444.548 522.448C463.337 505.772 477.312 485.454 486.468 461.507L484.6 460.793ZM443.225 520.947C424.73 537.13 403.845 545.2 380.534 545.2V547.2C404.356 547.2 425.704 538.936 444.542 522.453L443.225 520.947ZM398.384 317.35C394.129 317.35 389.531 317.704 384.592 318.41L384.875 320.39C389.736 319.695 394.239 319.35 398.384 319.35V317.35ZM383.735 319.348C383.041 332.776 377.115 363.832 365.909 412.626L367.858 413.074C379.052 364.335 385.027 333.091 385.732 319.452L383.735 319.348ZM365.909 412.625C354.71 461.154 347.817 494.444 345.244 512.459L347.224 512.741C349.784 494.823 356.657 461.612 367.858 413.075L365.909 412.625ZM345.787 513.494C350.155 515.679 355.332 516.75 361.284 516.75V514.75C355.569 514.75 350.713 513.721 346.681 511.706L345.787 513.494ZM361.284 516.75C373.999 516.75 385.227 510.975 394.944 499.599L393.423 498.301C384.007 509.325 373.302 514.75 361.284 514.75V516.75ZM394.936 499.608C404.845 488.285 412.373 474.153 417.54 457.242L415.627 456.658C410.528 473.347 403.123 487.215 393.431 498.292L394.936 499.608ZM417.543 457.233C427.596 423.098 432.634 392.085 432.634 364.2H430.634C430.634 391.849 425.638 422.668 415.625 456.667L417.543 457.233ZM432.634 364.2C432.634 347.361 430.074 335.289 424.73 328.246L423.137 329.454C428.06 335.944 430.634 347.438 430.634 364.2H432.634ZM424.753 328.277C419.595 320.908 410.696 317.35 398.384 317.35V319.35C410.338 319.35 418.473 322.792 423.115 329.423L424.753 328.277Z" fill="black"/>
<path d="M365.534 535.2C349.9 535.2 335.2 532.167 321.434 526.1C309.534 530.533 296.7 532.75 282.934 532.75C269.4 532.75 262.167 532.633 261.234 532.4C261.234 516.3 267.65 481.533 280.484 428.1C293.317 374.433 299.734 343.983 299.734 336.75C299.734 329.283 298.334 322.633 295.534 316.8C292.967 310.967 290.284 306.533 287.484 303.5L283.634 299.3L284.684 291.25C291.45 289.617 304.984 287.75 325.284 285.65C345.817 283.55 363.55 282.5 378.484 282.5C414.417 282.5 441.017 289.967 458.284 304.9C475.784 319.6 484.534 343.283 484.534 375.95C484.534 401.383 479.867 426.117 470.534 450.15C461.434 473.95 447.55 494.133 428.884 510.7C410.217 527.033 389.1 535.2 365.534 535.2ZM383.384 307.35C379.184 307.35 374.634 307.7 369.734 308.4C369.034 321.933 363.084 353.083 351.884 401.85C340.684 450.383 333.8 483.633 331.234 501.6C335.434 503.7 340.45 504.75 346.284 504.75C358.65 504.75 369.617 499.15 379.184 487.95C388.984 476.75 396.45 462.75 401.584 445.95C411.617 411.883 416.634 380.967 416.634 353.2C416.634 336.4 414.067 324.617 408.934 317.85C404.034 310.85 395.517 307.35 383.384 307.35Z" fill="white"/>
<path d="M321.434 526.1L325.87 516.034L321.781 514.232L317.594 515.792L321.434 526.1ZM261.234 532.4H250.234V540.989L258.566 543.072L261.234 532.4ZM280.484 428.1L291.18 430.669L291.182 430.658L280.484 428.1ZM295.534 316.8L285.465 321.23L285.538 321.396L285.617 321.56L295.534 316.8ZM287.484 303.5L279.375 310.933L279.388 310.947L279.401 310.961L287.484 303.5ZM283.634 299.3L272.726 297.877L272.064 302.957L275.525 306.733L283.634 299.3ZM284.684 291.25L282.103 280.557L274.754 282.331L273.776 289.827L284.684 291.25ZM325.284 285.65L324.165 274.707L324.152 274.708L325.284 285.65ZM458.284 304.9L451.088 313.22L451.148 313.272L451.209 313.323L458.284 304.9ZM470.534 450.15L460.28 446.168L460.27 446.195L460.259 446.221L470.534 450.15ZM428.884 510.7L436.127 518.978L436.156 518.953L436.185 518.927L428.884 510.7ZM369.734 308.4L368.178 297.511L359.216 298.791L358.748 307.832L369.734 308.4ZM351.884 401.85L362.602 404.323L362.605 404.312L351.884 401.85ZM331.234 501.6L320.344 500.044L319.223 507.893L326.314 511.439L331.234 501.6ZM379.184 487.95L370.905 480.706L370.862 480.756L370.82 480.806L379.184 487.95ZM401.584 445.95L412.104 449.164L412.12 449.111L412.136 449.058L401.584 445.95ZM408.934 317.85L399.922 324.158L400.043 324.331L400.17 324.498L408.934 317.85ZM365.534 524.2C351.367 524.2 338.184 521.461 325.87 516.034L316.998 536.166C332.217 542.873 348.434 546.2 365.534 546.2V524.2ZM317.594 515.792C307.022 519.731 295.5 521.75 282.934 521.75V543.75C297.901 543.75 312.046 541.336 325.274 536.408L317.594 515.792ZM282.934 521.75C276.185 521.75 271.063 521.721 267.536 521.664C265.764 521.635 264.462 521.601 263.586 521.563C263.141 521.544 262.886 521.528 262.771 521.518C262.399 521.488 263.029 521.51 263.902 521.728L258.566 543.072C259.672 543.348 260.732 543.425 260.987 543.446C261.499 543.487 262.068 543.518 262.644 543.543C263.81 543.593 265.337 543.631 267.181 543.661C270.888 543.721 276.149 543.75 282.934 543.75V521.75ZM272.234 532.4C272.234 517.859 278.265 484.442 291.18 430.669L269.788 425.531C257.036 478.625 250.234 514.741 250.234 532.4H272.234ZM291.182 430.658C297.607 403.79 302.446 382.649 305.685 367.281C307.303 359.603 308.538 353.285 309.375 348.375C310.165 343.731 310.734 339.611 310.734 336.75H288.734C288.734 337.505 288.5 339.904 287.687 344.682C286.919 349.192 285.748 355.197 284.158 362.744C280.98 377.826 276.194 398.743 269.785 425.542L291.182 430.658ZM310.734 336.75C310.734 327.889 309.066 319.571 305.451 312.04L285.617 321.56C287.602 325.695 288.734 330.678 288.734 336.75H310.734ZM305.602 312.37C302.782 305.961 299.513 300.314 295.567 296.039L279.401 310.961C281.055 312.753 283.152 315.972 285.465 321.23L305.602 312.37ZM295.592 296.067L291.742 291.867L275.525 306.733L279.375 310.933L295.592 296.067ZM294.541 300.723L295.591 292.673L273.776 289.827L272.726 297.877L294.541 300.723ZM287.265 301.943C293.2 300.51 306.005 298.703 326.416 296.592L324.152 274.708C303.963 276.797 289.701 278.723 282.103 280.557L287.265 301.943ZM326.403 296.593C346.694 294.518 364.035 293.5 378.484 293.5V271.5C363.066 271.5 344.941 272.582 324.165 274.707L326.403 296.593ZM378.484 293.5C413.214 293.5 436.691 300.768 451.088 313.22L465.479 296.58C445.343 279.165 415.62 271.5 378.484 271.5V293.5ZM451.209 313.323C465.293 325.154 473.534 345.088 473.534 375.95H495.534C495.534 341.479 486.274 314.046 465.359 296.477L451.209 313.323ZM473.534 375.95C473.534 400.002 469.127 423.386 460.28 446.168L480.788 454.132C490.607 428.847 495.534 402.764 495.534 375.95H473.534ZM460.259 446.221C451.777 468.406 438.898 487.105 421.582 502.473L436.185 518.927C456.202 501.162 471.091 479.494 480.808 454.079L460.259 446.221ZM421.64 502.422C404.864 517.101 386.287 524.2 365.534 524.2V546.2C391.914 546.2 415.57 536.966 436.127 518.978L421.64 502.422ZM383.384 296.35C378.581 296.35 373.505 296.75 368.178 297.511L371.289 319.289C375.762 318.65 379.786 318.35 383.384 318.35V296.35ZM358.748 307.832C358.109 320.203 352.432 350.32 341.163 399.388L362.605 404.312C373.736 355.846 379.959 323.664 380.719 308.968L358.748 307.832ZM341.165 399.377C329.976 447.864 322.987 481.549 320.344 500.044L342.123 503.156C344.614 485.718 351.392 452.902 362.602 404.323L341.165 399.377ZM326.314 511.439C332.367 514.465 339.148 515.75 346.284 515.75V493.75C341.753 493.75 338.501 492.935 336.153 491.761L326.314 511.439ZM346.284 515.75C362.489 515.75 376.331 508.226 387.548 495.094L370.82 480.806C362.903 490.074 354.812 493.75 346.284 493.75V515.75ZM387.462 495.194C398.453 482.632 406.597 467.186 412.104 449.164L391.064 442.736C386.304 458.314 379.514 470.868 370.905 480.706L387.462 495.194ZM412.136 449.058C422.388 414.248 427.634 382.264 427.634 353.2H405.634C405.634 379.669 400.846 409.518 391.032 442.842L412.136 449.058ZM427.634 353.2C427.634 335.977 425.141 321.013 417.697 311.202L400.17 324.498C402.994 328.22 405.634 336.823 405.634 353.2H427.634ZM417.945 311.542C410.207 300.488 397.49 296.35 383.384 296.35V318.35C393.545 318.35 397.86 321.212 399.922 324.158L417.945 311.542Z" fill="black"/>
<defs>
<filter id="filter0_f_938_1345" x="87.3403" y="0" width="572.416" height="724.536" filterUnits="userSpaceOnUse" color-interpolation-filters="sRGB">
<feFlood flood-opacity="0" result="BackgroundImageFix"/>
<feBlend mode="normal" in="SourceGraphic" in2="BackgroundImageFix" result="shape"/>
<feGaussianBlur stdDeviation="80" result="effect1_foregroundBlur_938_1345"/>
</filter>
<filter id="filter1_f_938_1345" x="219.199" y="198.622" width="522.801" height="563.378" filterUnits="userSpaceOnUse" color-interpolation-filters="sRGB">
<feFlood flood-opacity="0" result="BackgroundImageFix"/>
<feBlend mode="normal" in="SourceGraphic" in2="BackgroundImageFix" result="shape"/>
<feGaussianBlur stdDeviation="60" result="effect1_foregroundBlur_938_1345"/>
</filter>
<filter id="filter2_f_938_1345" x="148.587" y="302.696" width="456.344" height="379.171" filterUnits="userSpaceOnUse" color-interpolation-filters="sRGB">
<feFlood flood-opacity="0" result="BackgroundImageFix"/>
<feBlend mode="normal" in="SourceGraphic" in2="BackgroundImageFix" result="shape"/>
<feGaussianBlur stdDeviation="80" result="effect1_foregroundBlur_938_1345"/>
</filter>
<filter id="filter3_f_938_1345" x="0" y="258.371" width="575.1" height="482.777" filterUnits="userSpaceOnUse" color-interpolation-filters="sRGB">
<feFlood flood-opacity="0" result="BackgroundImageFix"/>
<feBlend mode="normal" in="SourceGraphic" in2="BackgroundImageFix" result="shape"/>
<feGaussianBlur stdDeviation="70" result="effect1_foregroundBlur_938_1345"/>
</filter>
</defs>
</svg>
