<svg width="32" height="68" viewBox="0 0 32 68" fill="none" xmlns="http://www.w3.org/2000/svg">
<rect width="32" height="31" rx="15.5" fill="#FFCB2F"/>
<path d="M12.2045 21V19.9773L16.0455 15.7727C16.4962 15.2803 16.8674 14.8523 17.1591 14.4886C17.4508 14.1212 17.6667 13.7765 17.8068 13.4545C17.9508 13.1288 18.0227 12.7879 18.0227 12.4318C18.0227 12.0227 17.9242 11.6686 17.7273 11.3693C17.5341 11.0701 17.2689 10.839 16.9318 10.6761C16.5947 10.5133 16.2159 10.4318 15.7955 10.4318C15.3485 10.4318 14.9583 10.5246 14.625 10.7102C14.2955 10.892 14.0398 11.1477 13.858 11.4773C13.6799 11.8068 13.5909 12.1932 13.5909 12.6364H12.25C12.25 11.9545 12.4072 11.3561 12.7216 10.8409C13.036 10.3258 13.464 9.92424 14.0057 9.63636C14.5511 9.34848 15.1629 9.20455 15.8409 9.20455C16.5227 9.20455 17.1269 9.34848 17.6534 9.63636C18.1799 9.92424 18.5928 10.3125 18.892 10.8011C19.1913 11.2898 19.3409 11.8333 19.3409 12.4318C19.3409 12.8598 19.2633 13.2784 19.108 13.6875C18.9564 14.0928 18.6913 14.5455 18.3125 15.0455C17.9375 15.5417 17.4167 16.1477 16.75 16.8636L14.1364 19.6591V19.75H19.5455V21H12.2045Z" fill="white"/>
<path d="M16.5 68L16.5 31" stroke="#FFCB2F" stroke-width="2"/>
</svg>
