<svg width="32" height="87" viewBox="0 0 32 87" fill="none" xmlns="http://www.w3.org/2000/svg">
<rect width="32" height="31" rx="15.5" fill="#D5D5D5"/>
<path d="M15.6364 21.1591C14.8864 21.1591 14.2178 21.0303 13.6307 20.7727C13.0473 20.5152 12.5833 20.1572 12.2386 19.6989C11.8977 19.2367 11.7121 18.7008 11.6818 18.0909H13.1136C13.1439 18.4659 13.2727 18.7898 13.5 19.0625C13.7273 19.3314 14.0246 19.5398 14.392 19.6875C14.7595 19.8352 15.1667 19.9091 15.6136 19.9091C16.1136 19.9091 16.5568 19.822 16.9432 19.6477C17.3295 19.4735 17.6326 19.2311 17.8523 18.9205C18.072 18.6098 18.1818 18.25 18.1818 17.8409C18.1818 17.4129 18.0758 17.036 17.8636 16.7102C17.6515 16.3807 17.3409 16.1231 16.9318 15.9375C16.5227 15.7519 16.0227 15.6591 15.4318 15.6591H14.5V14.4091H15.4318C15.8939 14.4091 16.2992 14.3258 16.6477 14.1591C17 13.9924 17.2746 13.7576 17.4716 13.4545C17.6723 13.1515 17.7727 12.7955 17.7727 12.3864C17.7727 11.9924 17.6856 11.6496 17.5114 11.358C17.3371 11.0663 17.0909 10.839 16.7727 10.6761C16.4583 10.5133 16.0871 10.4318 15.6591 10.4318C15.2576 10.4318 14.8788 10.5057 14.5227 10.6534C14.1705 10.7973 13.8826 11.0076 13.6591 11.2841C13.4356 11.5568 13.3144 11.8864 13.2955 12.2727H11.9318C11.9545 11.6629 12.1383 11.1288 12.483 10.6705C12.8277 10.2083 13.2784 9.84848 13.8352 9.59091C14.3958 9.33333 15.0114 9.20455 15.6818 9.20455C16.4015 9.20455 17.0189 9.35038 17.5341 9.64205C18.0492 9.92992 18.4451 10.3106 18.7216 10.7841C18.9981 11.2576 19.1364 11.7689 19.1364 12.3182C19.1364 12.9735 18.964 13.5322 18.6193 13.9943C18.2784 14.4564 17.8144 14.7765 17.2273 14.9545V15.0455C17.9621 15.1667 18.536 15.4792 18.9489 15.983C19.3617 16.483 19.5682 17.1023 19.5682 17.8409C19.5682 18.4735 19.3958 19.0417 19.0511 19.5455C18.7102 20.0455 18.2443 20.4394 17.6534 20.7273C17.0625 21.0152 16.3902 21.1591 15.6364 21.1591Z" fill="white"/>
</svg>
