<svg width="100" height="50" viewBox="0 0 100 50" fill="none" xmlns="http://www.w3.org/2000/svg">
<path d="M13.6397 6.51042V19.0271C13.6397 19.0271 18.0501 19.0271 20.4105 18.8479C22.2668 18.5229 22.6084 18.3437 22.9501 16.4875L23.6334 13.7688H25.6522L25.3105 19.7104L25.4897 25.7979H23.4543L22.9501 23.4208C22.4459 21.7292 21.7626 21.3854 20.4105 21.2229C18.7188 21.0437 13.6397 21.0437 13.6397 21.0437V31.5417C13.6397 33.5604 14.6647 34.4229 17.0251 34.4229H24.1376C26.3355 34.4229 28.5313 34.2437 29.9001 31.0375L31.7397 26.9687H33.448C33.2688 27.8146 32.423 35.2687 32.2605 36.9458C32.2605 36.9458 25.8313 36.7833 23.1293 36.7833H10.9376L3.6626 36.9458V35.1062L6.02301 34.5854C7.73135 34.2437 8.23551 33.7396 8.23551 32.3875C8.23551 32.3875 8.41468 27.8146 8.41468 20.1958C8.41468 12.5958 8.23551 8.02083 8.23551 8.02083C8.23551 6.50625 7.73135 6.16458 6.02301 5.82292L3.6626 5.32292V3.46667L10.7751 3.6125H24.3168C27.0188 3.6125 31.5751 3.125 31.5751 3.125C31.5751 3.125 31.4126 5.98958 31.2334 12.7604H29.3772L28.6938 10.3833C28.0272 7.33958 27.0168 5.825 25.1459 5.825H14.5022C13.6397 5.82708 13.6397 5.98958 13.6397 6.51042ZM41.048 7.84583H43.0834V14.9583L50.0334 14.6167L49.6918 17.8396L42.9209 17.3187V29.8521C42.9209 33.4 44.1084 34.7667 46.1438 34.7667C47.9834 34.7667 49.3501 33.7417 49.8543 32.8958L50.8626 34.0833C49.8543 36.4438 46.9897 37.6312 44.2709 37.6312C40.9022 37.6312 38.1668 35.6125 38.1668 31.7229V17.4958H34.1293V15.8042C37.5168 15.4625 40.0397 13.4271 41.048 7.84583ZM55.6147 29.6708L56.9647 32.8937C57.4688 34.2437 58.6563 35.6125 61.3584 35.6125C64.2397 35.6125 65.4272 34.0833 65.4272 32.2271C65.4272 26.4646 54.0834 28.1583 54.0834 20.3771C54.0834 15.9833 57.6313 13.9312 62.2043 13.9312C64.2397 13.9312 67.2834 14.2729 68.8126 14.9562C68.4709 16.6479 68.2918 18.8458 68.2918 20.5396L66.6147 20.7021L65.4272 17.3167C65.0855 16.4875 63.7188 15.8021 62.0418 15.8021C60.0063 15.8021 57.973 16.6479 57.973 18.8458C57.973 24.0875 69.6584 22.9146 69.6584 30.6958C69.6584 35.1062 65.7688 37.4667 61.0168 37.4667C57.4688 37.4667 53.9043 36.1 53.9043 36.1C54.2459 34.0812 54.0834 31.8854 53.9043 29.6708H55.6147ZM68.8147 45.9146C69.3188 44.0583 69.6605 41.7 70.0022 39.4854L71.8584 39.3229L72.5418 42.8708C72.7043 43.7167 73.2084 44.4 74.5605 44.4C76.7584 44.4 79.6397 43.05 82.3563 38.3125C81.1522 35.4312 77.6043 26.1375 74.3813 19.025C73.5355 17.1542 73.373 16.9896 72.2001 16.6479L71.3376 16.3229V14.6146L76.4313 14.7937L82.6813 14.4521V16.1458L81.1522 16.4875C79.9647 16.65 79.4751 17.3167 79.4751 18.0021C79.4751 18.1812 79.4751 18.3437 79.6376 18.6854C79.9626 19.7104 82.6813 27.3125 84.7168 32.3896C86.3938 28.8417 89.6168 20.8833 90.1209 19.5312C90.3001 18.8479 90.4626 18.6854 90.4626 18.1812C90.4626 17.3187 89.9584 16.8146 88.7855 16.4896L87.5813 16.1458V14.4542L92.3334 14.6167L96.7272 14.4542V16.1458L95.8813 16.8125C94.1897 17.4958 94.0105 17.6583 93.3418 19.025L85.9043 36.4396C81.4938 46.4333 76.9209 47.2792 73.7126 47.2792C71.6793 47.2812 70.1501 46.7604 68.8147 45.9146Z" fill="#545252"/>
</svg>
