<svg width="218" height="50" viewBox="0 0 218 50" fill="none" xmlns="http://www.w3.org/2000/svg">
<path d="M1.51429 22.6335L34.7451 0.624434C36.193 -0.208145 37.9668 -0.208145 39.4147 0.624434L72.6455 22.6335C73.9487 23.2851 74.5279 24.8416 73.8763 26.181C73.6229 26.724 73.1885 27.1584 72.6455 27.4118L68.193 30.3439C57.2971 13.1493 34.5641 8.04525 17.3695 18.905C12.7722 21.8371 8.86271 25.7104 5.93058 30.3439L1.44189 27.4118C0.138726 26.724 -0.368061 25.1312 0.283523 23.8281C0.573116 23.3213 1.0075 22.8869 1.51429 22.6335ZM37.0256 22.3801C27.5052 22.4163 18.6365 27.3032 13.5686 35.3756L21.2066 40.4434C26.4555 31.7195 37.7858 28.9321 46.4736 34.181C49.0437 35.7376 51.1794 37.8733 52.736 40.4434L60.374 35.3756C55.3785 27.267 46.546 22.3439 37.0256 22.3801ZM37.0256 40.7692C33.6591 40.8054 30.5822 42.6154 28.917 45.5475L34.0573 48.914C34.8899 49.638 35.9396 50 37.0256 50C38.1116 50 39.1976 49.6018 39.9939 48.914L45.1342 45.5475C43.5052 42.5792 40.3921 40.7692 37.0256 40.7692Z" fill="#545252"/>
<path d="M94.727 24.8774L103.053 36.8231H97.1885L90.8898 27.5562V36.8231H86.1116V13.1489H90.8898V22.5969L96.8627 13.1489H102.365L94.727 24.8774ZM111.27 13.2213H106.492V36.8955H118.691V32.1172H111.161L111.27 13.2213ZM132.808 12.3525L142.763 36.8593H137.406L136.465 34.2892H128.609L127.668 36.8593H122.274L132.229 12.3525H132.808ZM134.727 29.8729L132.591 23.7553L130.383 29.8729H134.727ZM149.46 26.3616L144.573 13.2213H139.216L149.17 37.7281H149.641L159.596 13.2213H154.202L149.46 26.3616ZM163.252 36.8955H168.03V13.2213H163.252V36.8955ZM186.926 13.2213L182.112 21.4023L177.297 13.2213H171.541L179.759 26.2168V36.8955H184.465V26.2168L192.754 13.2213H186.926ZM217.188 24.624C217.188 31.3933 211.686 36.8955 204.917 36.8955C198.148 36.8955 192.646 31.3933 192.646 24.624C192.646 17.8548 198.148 12.3525 204.917 12.3525C211.722 12.3887 217.188 17.8548 217.188 24.624ZM212.591 24.624C212.591 20.3887 209.152 16.986 204.953 16.986C200.718 16.986 197.315 20.4249 197.315 24.624C197.315 28.8231 200.754 32.262 204.953 32.262C209.152 32.262 212.591 28.8593 212.591 24.6602C212.591 24.6602 212.591 24.6602 212.591 24.624Z" fill="#545252"/>
</svg>
