<svg width="164" height="290" viewBox="0 0 164 290" fill="none" xmlns="http://www.w3.org/2000/svg">
<path d="M-49.2211 26.1903C-57.7255 29.1028 -65.2148 31.8488 -72.8371 34.2121C-82.5065 37.1912 -92.2423 39.9706 -102.012 42.5835C-108.003 44.1812 -112.879 41.9344 -114.477 37.341C-116.174 32.448 -113.695 27.4551 -107.703 25.2749C-85.7018 17.2364 -63.6337 9.38098 -41.5489 1.57547C-38.8861 0.62683 -35.9568 0.12754 -33.1109 0.01104C-23.8243 -0.33846 -18.632 7.66674 -22.6262 16.0048C-33.5438 38.7223 -38.0706 63.2872 -43.2631 87.6524C-43.3463 88.0518 -43.1966 88.5012 -43.0801 89.6495C-26.4374 82.4764 -7.98074 81.378 8.29578 71.2425C3.1532 67.6643 -1.62316 64.5354 -6.18324 61.107C-9.66156 58.4941 -13.4893 55.9976 -16.0855 52.6191C-23.2585 43.2825 -18.1991 31.3329 -6.49936 30.0015C14.2041 27.6215 34.3249 23.1612 53.4806 14.7566C55.5443 13.8579 57.7578 13.2754 59.9546 12.7096C69.3744 10.3463 76.1646 15.3225 75.5821 25.1251C75.0662 33.6796 73.4185 42.2007 71.7542 50.6386C66.8946 75.3866 61.7854 100.085 56.5097 126.181C73.7182 121.437 90.0113 116.944 106.404 112.434C101.012 100.201 95.9195 88.6343 90.8268 77.0842C90.0946 75.4199 89.2457 73.7889 88.7132 72.0747C86.4165 64.7851 90.0279 58.4109 97.567 57.2126C109.799 55.2487 122.115 53.7841 134.381 51.9534C139.606 51.1712 144.766 49.9397 149.958 48.9577C156.848 47.6429 161.674 50.4057 163.156 57.2792C163.988 61.1902 164.271 65.4508 163.705 69.3952C159.211 100.351 154.452 131.273 149.742 162.212C148.893 167.721 147.811 173.197 146.862 178.689C145.931 184.181 142.269 187.809 135.679 188.974C126.159 190.672 116.506 191.687 107.037 193.634C77.4295 199.692 47.8387 205.917 18.3147 212.391C12.6229 213.639 7.21409 216.252 1.72202 218.349C-0.807671 219.314 -3.18754 220.729 -5.73386 221.661C-17.5002 226.005 -26.9033 220.929 -28.8172 208.496C-31.3469 191.987 -31.763 175.377 -27.9851 158.917C-27.5857 157.17 -27.2029 155.422 -26.6038 152.709C-32.7949 153.508 -38.4533 153.991 -43.962 155.156C-45.0105 155.372 -45.8594 158.218 -46.1922 159.966C-52.117 191.604 -57.792 223.308 -63.9332 254.897C-65.431 262.552 -68.1106 270.042 -70.9399 277.331C-72.3046 280.859 -74.8674 284.205 -77.6467 286.834C-82.4731 291.411 -89.2634 290.279 -91.9429 284.171C-93.6238 280.344 -94.5891 275.584 -94.0399 271.506C-92.3423 259.091 -89.746 246.808 -87.5325 234.459C-82.3567 205.6 -76.9977 176.758 -72.1214 147.85C-70.557 138.596 -65.7307 133.021 -57.193 129.709C-45.4932 125.165 -33.4439 125.898 -21.3613 126.647C-17.4503 126.896 -13.5393 127.512 -9.71148 128.394C-0.524734 130.508 3.38633 137.398 0.939857 146.535C-0.62455 152.376 -2.2722 158.201 -3.45383 164.11C-5.23459 172.964 -4.55217 181.801 -2.75476 190.505C-2.18891 190.639 -1.83952 190.838 -1.60651 190.738C20.6946 181.501 44.5768 180.503 68.0429 177.158C87.1986 174.428 106.271 171.216 125.344 167.938C126.825 167.688 128.822 165.508 129.105 163.943C130.802 154.59 132.084 145.153 133.465 135.734C136.577 114.497 139.673 93.261 142.768 72.0247C142.968 70.6933 143.052 69.3619 143.301 66.9819C132.151 69.3619 121.532 71.642 110.565 73.9886C111.114 76.2021 111.314 77.7 111.83 79.0647C115.874 89.6329 119.885 100.201 124.129 110.686C126.043 115.446 124.645 119.69 119.585 121.737C114.127 123.951 108.551 125.864 103.009 127.878C86.9656 133.703 70.9056 139.478 54.8787 145.32C49.0871 147.434 43.2288 149.597 37.6868 145.087C31.9617 140.427 32.9436 134.136 34.1918 127.911C40.0667 98.7365 45.9415 69.545 51.783 40.37C52.066 38.9387 52.2158 37.4908 52.4987 35.5768C41.3815 39.4047 30.88 43.0329 19.9125 46.8108C22.3923 49.6068 24.8886 52.0034 26.8857 54.7661C29.8814 58.9101 33.1433 63.021 35.1904 67.631C38.2027 74.4047 35.2737 80.9121 28.4169 83.5583C12.3734 89.7827 -3.78667 95.7242 -19.8801 101.849C-26.9366 104.528 -33.9931 107.224 -40.9331 110.204C-54.6134 116.112 -65.0982 108.989 -62.7016 94.3095C-59.3565 73.7556 -54.7798 53.3847 -50.7023 32.9473C-50.3861 31.0667 -49.9035 29.186 -49.2211 26.1903Z" fill="#FFD910"/>
</svg>
