<svg width="135" height="169" viewBox="0 0 135 169" fill="none" xmlns="http://www.w3.org/2000/svg">
<path d="M89.0644 141.479C88.3967 144.509 87.886 147.449 87.1239 150.208C83.3688 163.759 75.3713 170.748 67.5389 167.396C63.1552 165.513 59.9971 160.936 57.6089 154.824C54.435 146.714 52.6989 137.714 51.6383 128.302C51.5362 127.412 51.4183 126.535 51.2455 125.181C50.4128 126.019 49.7843 126.703 49.1244 127.296C44.9921 130.971 41.017 135.329 36.6805 138.152C19.79 149.138 3.88943 134.323 0.644897 104.977C-0.800611 91.9152 0.212816 79.3309 3.39451 67.172C6.59976 54.9358 11.2348 44.35 17.1347 35.2599C25.0693 23.0365 33.813 12.5152 42.926 2.79328C45.5734 -0.0304624 47.8439 -0.082044 49.6822 2.30331C51.3791 4.50815 52.0782 9.18857 51.3241 13.2759C50.6327 16.9764 48.7708 18.1885 46.854 15.9192C45.9662 14.8619 45.3692 14.604 44.4344 15.6484C27.0568 34.9246 15.2963 60.1578 12.9238 95.3837C12.7746 97.5885 12.7824 99.8191 12.7431 102.05C12.4053 122.254 24.3858 130.713 32.5089 125.981C35.4235 124.279 38.2595 121.816 40.8127 118.941C43.798 115.575 46.5948 111.643 49.148 107.426C50.9077 104.525 52.1175 100.722 53.5395 97.2791C53.9794 96.2218 54.2387 94.9582 54.6864 93.9138C56.6112 89.388 59.8871 87.9439 62.5739 90.3809C65.1742 92.7275 66.3055 97.9753 64.9543 102.901C61.3405 116.027 62.5425 128.946 65.3785 141.801C65.9284 144.277 66.8083 146.701 67.8453 148.712C70.5242 153.922 74.9786 153.754 77.0761 147.9C78.3566 144.329 79.048 139.854 79.2758 135.677C79.6215 129.41 79.2601 123.041 79.3386 116.723C79.3936 112.197 81.0041 108.78 83.3059 107.671C85.6706 106.537 88.0981 107.916 89.74 111.449C90.2585 112.558 90.6591 113.809 91.0912 115.021C91.9161 117.355 92.521 119.972 93.5659 121.984C96.1898 127.025 98.7195 132.402 101.823 136.541C106.725 143.091 112.122 142.124 116.702 135.006C126.451 119.843 129.209 98.3363 123.953 78.0544C115.131 44.0405 96.4569 28.5809 77.5161 31.1081C67.6018 32.4232 61.1363 42.2999 56.9569 56.4315C55.1343 62.5818 56.1163 66.927 59.5651 70.9628C59.6829 71.1046 59.8086 71.2078 59.9185 71.3625C61.1441 73.0258 62.9824 74.3152 62.2518 77.6676C61.5762 80.7492 59.7771 81.3294 58.0174 81.4326C54.4272 81.6518 51.6304 79.2277 49.7607 74.212C47.0975 67.0817 46.4691 59.3584 48.3545 51.635C52.039 36.5492 57.6639 23.952 66.8633 16.7186C71.8126 12.8246 77.1939 12.1542 82.5753 12.8762C100.966 15.3389 115.217 29.29 124.99 55.0389C129.766 67.6233 133.797 80.9039 134.771 95.8994C136.287 119.289 130.206 137.237 118.792 150.234C111.195 158.886 103.127 157.609 95.467 149.563C93.2595 147.255 91.2955 144.329 89.0644 141.479Z" fill="#FFD910"/>
</svg>
