<svg width="72" height="117" viewBox="0 0 72 117" fill="none" xmlns="http://www.w3.org/2000/svg">
<path d="M29.0899 80.2452C26.5376 82.8513 23.4505 83.7304 19.9201 83.1752C19.5533 83.1135 19.2018 82.9902 18.8503 82.9747C14.1126 82.836 10.353 78.3176 10.1085 73.2134C9.89456 68.6334 10.674 64.254 12.2328 59.9824C13.1651 57.438 14.2502 54.9553 15.2741 52.4571C15.5798 51.7015 16.0077 51.0538 17.1387 51.023C16.9705 51.7169 16.8177 52.3183 16.6802 52.9197C16.7719 52.9968 16.8788 53.0739 16.9705 53.1356C17.4596 52.6113 17.9486 52.087 18.5447 51.4547C18.7586 52.3337 19.7673 52.0099 20.0424 52.38C20.6843 53.2127 21.4331 54.1379 21.0816 55.387C20.6843 56.8057 20.3633 58.2398 19.9049 59.6431C18.7281 63.2053 17.6583 66.7984 17.2609 70.5456C17.0164 72.905 16.8024 75.3414 17.7347 77.6546C17.8417 77.9321 18.0098 78.1789 18.1932 78.5028C19.4769 78.5336 20.5009 77.9476 21.3414 77.1765C23.1295 75.5111 25.0093 73.8765 26.507 71.949C30.2361 67.1531 33.7359 62.1721 37.3885 57.3146C40.9035 52.6421 44.0824 47.7538 46.7263 42.5261C50.2872 35.448 52.977 28.0614 53.9551 20.1506C54.3525 16.9277 54.1691 13.751 52.1212 10.9598C51.3112 9.84955 50.2872 9.18643 48.9729 8.90886C43.1807 7.64436 38.0303 8.83179 33.8428 13.1804C32.1464 14.9384 30.6946 16.9277 29.1204 18.809C28.8148 19.1791 28.4785 19.5338 28.1423 19.8884H28.0353L28.1882 19.9193C27.3629 21.3534 26.4306 22.7413 25.7276 24.2217C24.2146 27.4446 22.8239 30.7292 21.3873 33.9984C21.0358 34.7849 20.7148 35.5868 20.3175 36.3424C19.9201 37.0826 19.9507 38.2237 18.6211 38.1775C18.453 38.1775 18.239 38.748 17.9945 39.149C18.3307 39.149 18.5447 39.1798 18.8962 39.1952C18.5752 39.8891 18.3307 40.5677 17.9792 41.2C12.0342 51.902 7.75496 63.2825 4.04122 74.9251C2.49765 79.7364 1.06105 84.5631 0.189927 89.544C-0.00874996 90.6389 0.251078 91.9496 -0.26854 92.7823C-0.895139 93.7847 -0.78817 94.6945 -0.757604 95.6814C-0.727038 96.6067 -0.711763 97.6244 -0.360257 98.4571C0.923504 101.557 2.20728 104.641 5.26385 106.599C9.2374 109.144 13.1957 109.144 17.2609 107.108C23.2365 104.132 28.5091 100.107 33.1093 95.2805C38.6569 89.4668 44.0671 83.5145 49.3549 77.4387C53.0075 73.2443 57.0117 69.497 61.3214 66.0273C61.8869 65.5647 62.3607 64.9941 62.9261 64.5315C63.5527 64.0072 64.1488 63.2824 65.3867 63.7913C65.1269 64.4236 64.8518 64.9942 64.6378 65.5802C64.4544 66.0736 64.3322 66.567 64.1794 67.0605C63.6597 67.3227 63.0331 67.4923 62.6358 67.8779C59.8084 70.6999 56.9505 73.491 54.2607 76.4209C47.7655 83.5299 41.3467 90.7006 34.8974 97.8558C34.8974 98.0717 34.8821 98.2721 34.8515 98.4726C34.6528 98.5343 34.4694 98.6114 34.286 98.6731C34.2096 98.8581 34.1332 99.0278 34.0721 99.1974L33.9498 99.1665L34.0109 99.2436C34.0874 99.0277 34.1791 98.8273 34.2555 98.6114L34.8362 98.4726C34.8362 98.2567 34.8515 98.0254 34.8668 97.8095C35.9824 98.0716 36.5479 97.1772 37.1439 96.5604C40.0782 93.5225 43.0126 90.4692 45.8246 87.3234C51.4334 81.078 56.7366 74.5396 62.8497 68.7722C63.3693 68.2787 63.7209 67.6157 64.1488 67.0297C65.081 66.197 66.0133 65.3797 67.1289 64.3927C68.0612 65.1638 69.131 65.9811 70.1091 66.8909C71.0566 67.7545 71.4081 68.7722 70.4912 69.9287C70.3536 70.0984 70.3231 70.376 70.2619 70.6073C70.048 71.0236 69.8187 71.44 69.6048 71.8563C69.3449 72.211 69.1004 72.5811 68.8406 72.9358C68.5808 73.2905 68.321 73.6452 68.0765 74.0153C67.7555 74.262 67.4193 74.5242 67.0984 74.7863C67.0984 75.2181 67.1289 75.6345 67.1442 76.0663C66.1661 76.1125 65.9216 77.0069 65.4631 77.5929C60.4503 84.2547 55.0096 90.5463 49.3549 96.6529C47.9948 98.1333 46.5429 99.5213 45.1369 100.955C45.1674 100.955 45.1827 100.986 45.2133 101.002C45.198 100.955 45.1827 100.924 45.1674 100.878C45.5495 100.709 45.9927 100.601 46.2831 100.339C47.8572 98.889 49.4467 97.4548 50.8985 95.8973C56.7366 89.6365 62.3607 83.1906 67.1137 76.0045C67.1137 75.5882 67.0984 75.1718 67.0984 74.7554C67.5721 74.6783 68.0612 74.6321 68.0306 73.9536C68.2904 73.599 68.5502 73.2443 68.7948 72.8742C69.0546 72.5195 69.2991 72.1494 69.5589 71.7947C69.7729 71.3783 70.0021 70.962 70.2161 70.5456C70.4912 70.4531 70.7815 70.3452 71.24 70.1755C71.0719 70.5919 70.9955 70.9157 70.8427 71.1933C68.1529 76.1896 65.0505 80.9083 61.3979 85.257C55.8655 91.8416 50.1344 98.2413 43.6392 103.901C38.7639 108.157 33.4913 111.812 27.6074 114.464C22.992 116.546 18.2237 116.823 13.2568 115.898C7.20477 114.788 1.67237 112.583 -3.21815 108.774C-4.82285 107.525 -6.09133 105.967 -7.49736 104.533C-11.6085 100.338 -12.9686 95.2188 -12.9992 89.5594C-13.0297 84.4089 -12.2045 79.3663 -10.722 74.4471C-8.52131 67.1377 -6.1219 59.8899 -3.12646 52.8581C-0.406103 46.4584 2.61991 40.213 6.04327 34.1372C8.76362 29.326 11.1325 24.2988 13.7611 19.4413C17.0775 13.3346 21.1275 7.78316 26.9808 3.86629C35.9671 -2.1478 49.5383 -1.71605 57.7452 9.23268C61.3062 13.9977 62.7733 19.3179 62.1467 25.224C61.7188 29.2643 60.9088 33.2274 59.5181 37.0518L59.5945 36.9593L59.5639 37.0363C58.7081 40.4289 57.5313 43.7289 55.789 46.736C53.6494 50.4369 51.2959 54.0145 48.9729 57.6076C48.5908 58.1936 47.9948 58.6408 47.5057 59.1497L47.5363 59.1805C47.7197 58.8104 47.8878 58.4403 48.1018 58.0856C48.6367 57.2066 49.1868 56.3585 49.7217 55.4949C49.9204 55.094 50.1191 54.6777 50.3178 54.2767C50.5012 54.1842 50.6846 54.0917 50.868 54.0146C50.8832 53.6599 50.9138 53.3052 50.9291 52.9351C51.4487 52.8735 51.8766 52.7347 51.8308 52.0716H51.9225L51.8766 52.0098C51.5557 52.3183 51.25 52.6267 50.9444 52.9506C50.9444 53.3207 50.9138 53.6753 50.8985 54.03C50.7151 54.1225 50.5317 54.2151 50.3483 54.2922C50.1497 54.6931 49.951 55.1094 49.737 55.5104C49.4314 55.7571 49.0493 55.9576 48.8048 56.266C46.2067 59.5506 43.6086 62.8507 41.0411 66.1662C40.6743 66.6288 40.4297 67.1839 40.1241 67.6928L40.1852 67.6311C39.6809 68.2787 39.1765 68.911 38.6569 69.5587L38.7181 69.497C38.5652 69.6358 38.4277 69.79 38.2749 69.9287L38.336 69.8517C37.7094 70.6227 37.0675 71.3783 36.4409 72.1493L36.5021 72.0877C35.7532 72.9667 34.989 73.8611 34.2402 74.7401L34.3013 74.6784C34.1638 74.8172 34.0109 74.9714 33.8734 75.1102L33.9345 75.0484L33.5066 75.4803L33.5677 75.4186C32.8189 76.1742 32.07 76.9298 31.3212 77.7009L31.3823 77.6546C31.2447 77.7933 31.1072 77.9322 30.9544 78.0864L31.0002 78.0246C30.7404 78.2868 30.4806 78.549 30.2208 78.8111L30.2819 78.7649C30.1444 78.9037 30.0068 79.0424 29.854 79.1966L29.8998 79.1504C29.7623 79.2892 29.6247 79.4279 29.4872 79.5822L29.5331 79.5205C29.3955 79.6593 29.258 79.7981 29.1204 79.9369L29.151 79.8906C29.151 80.0448 29.151 80.1835 29.151 80.3378L29.1051 80.307L29.0899 80.2452ZM48.9117 94.6791C49.0951 94.5712 49.2785 94.4632 49.4619 94.3553C49.5231 94.1702 49.5689 93.9852 49.63 93.8156C49.844 93.7847 50.0732 93.7539 50.2872 93.7231C50.3178 93.5072 50.3483 93.2912 50.3789 93.0908C50.8374 92.7052 51.3723 92.3814 51.7544 91.9342C55.0402 88.2024 58.3107 84.4552 61.5507 80.6925C62.3454 79.7673 62.972 78.7187 63.675 77.7163C64.0265 77.2074 64.3627 76.6985 64.7142 76.1897C65.2033 75.8967 65.5548 75.5574 65.295 74.9251C65.5395 74.9097 65.7688 74.8942 66.0133 74.8634C65.9827 74.4779 65.9674 74.0924 65.9521 73.7223C66.1967 73.7069 66.4259 73.6915 66.6704 73.6761C66.8844 73.2906 67.0984 72.905 67.3123 72.5195C67.511 72.1186 67.7097 71.7176 67.9236 71.3167L68.6878 71.1933C68.6878 71.1933 68.5655 71.1933 68.535 71.1933C68.5044 71.1624 68.5044 71.0545 68.5197 71.0545C68.6114 71.0237 68.7031 70.9929 68.7948 70.9774C68.7642 71.0545 68.7184 71.1316 68.6878 71.2087C68.4433 71.2704 68.214 71.3166 67.9695 71.3783C67.7708 71.7792 67.5722 72.1957 67.3582 72.5966C66.8233 72.7971 66.4871 73.1209 66.701 73.7377C66.4412 73.7377 66.1967 73.7377 65.9369 73.7532C65.9674 74.1387 66.0133 74.5396 66.0286 74.9097L65.3103 74.9714C65.1269 75.4031 64.9435 75.8195 64.7601 76.2513C64.3627 76.7139 63.9654 77.1765 63.568 77.6391C63.3388 77.8396 63.0942 78.0092 62.8956 78.2251C58.9984 82.8051 55.1166 87.3851 51.2347 91.9651C50.9291 92.3352 50.6846 92.7669 50.4248 93.1678C50.3942 93.3683 50.3636 93.5534 50.3025 93.7538C50.0885 93.8001 49.8746 93.8464 49.6759 93.8927C49.6148 94.0623 49.5689 94.2319 49.4925 94.3861C49.2785 94.4941 49.0646 94.602 48.8659 94.7099C48.8812 94.7253 48.9117 94.7408 48.927 94.7562C48.927 94.7408 48.9118 94.71 48.8965 94.6946L48.9117 94.6791ZM48.4533 89.4515C48.6519 89.3435 48.8506 89.2201 49.0493 89.1122C49.1257 88.958 49.2021 88.7883 49.2785 88.6341C49.4772 88.5879 49.6759 88.5417 49.8593 88.4954C49.9204 88.3103 49.9816 88.1253 50.0427 87.9403C50.2719 87.9249 50.4859 87.8939 50.7151 87.8785C51.0513 87.3696 51.4181 86.8607 51.7391 86.321C51.9225 85.9972 51.9989 85.6271 52.1364 85.2878C52.3045 85.1953 52.4574 85.1182 52.6255 85.0257C52.7477 84.9024 52.87 84.7944 52.9923 84.6711C53.1604 84.594 53.3285 84.5168 53.4813 84.4397C54.0468 83.6533 54.6123 82.8668 55.1777 82.0803C55.9419 81.2476 56.6907 80.3994 57.4549 79.5667C58.0662 78.8265 58.6622 78.071 59.2735 77.3308C59.9918 76.4518 60.7101 75.5728 61.4131 74.6938C62.0244 73.9536 62.6358 73.2134 63.2318 72.4578L63.6903 72.1802C64.1182 71.5171 64.5614 70.8541 64.9893 70.191C65.1727 70.1139 65.3408 70.0213 65.5242 69.9442C65.6771 69.8362 65.8299 69.7438 65.9674 69.6358C66.0133 69.605 66.0439 69.5741 66.0897 69.5587C66.0591 69.5895 66.0438 69.6358 65.998 69.6666C65.8604 69.7746 65.7076 69.8825 65.5548 69.9905C65.3714 70.0676 65.2033 70.1601 65.0199 70.2372C64.4697 70.8232 63.5833 71.1933 63.7209 72.2265C63.568 72.319 63.4152 72.4116 63.2471 72.5041C62.6358 73.2443 62.0397 73.9845 61.4284 74.7401C60.6796 75.5882 59.9307 76.4363 59.1818 77.2845C58.5552 78.0093 57.9286 78.7494 57.3021 79.4742C56.599 80.3532 55.8807 81.2476 55.1777 82.1266C54.3219 82.6972 53.4508 83.2678 53.466 84.4706C53.2979 84.5477 53.1451 84.6402 52.977 84.7173C52.8547 84.8407 52.7325 84.9486 52.5949 85.0719C52.4421 85.1645 52.274 85.2416 52.1212 85.3342C51.6932 85.8122 51.2195 86.2594 50.8832 86.7837C50.6998 87.0767 50.7304 87.5084 50.6693 87.8785C50.4553 87.9094 50.2566 87.9557 50.0427 88.0019C49.9816 88.1715 49.9051 88.3566 49.8287 88.5263C49.6453 88.588 49.4619 88.6496 49.2785 88.7113C49.2021 88.8655 49.1257 89.0043 49.034 89.1585C48.8201 89.2818 48.6061 89.4206 48.3921 89.544C48.4227 89.544 48.438 89.5748 48.4686 89.5902C48.4533 89.5594 48.4227 89.5132 48.4074 89.4823L48.4533 89.4515ZM52.6866 51.1155L52.5949 51.0846C52.5949 51.0846 52.7172 51.0538 52.7172 51.0692L52.6713 50.9921V51.1309L52.6866 51.1155ZM28.8606 10.4047C28.7231 10.528 28.5855 10.636 28.4632 10.7594L28.3716 10.7902L28.4174 10.6977C28.5549 10.5743 28.6925 10.4663 28.8148 10.343C28.9217 10.1579 29.0287 9.98834 29.1204 9.80329C29.8082 9.38693 30.4959 8.97057 31.1683 8.55421C31.1683 8.52337 31.1378 8.50792 31.1225 8.47708C31.1225 8.52334 31.1225 8.56963 31.1225 8.60047C30.068 8.36916 29.7012 9.24811 29.1663 9.86494C29.0593 10.0346 28.9523 10.2196 28.8453 10.3892L28.8606 10.4047ZM44.984 55.572C44.7701 55.6183 44.5561 55.6492 44.3422 55.6954C44.2046 56.1118 44.0824 56.5281 43.9448 56.9291C43.7156 57.0062 43.471 57.0987 43.2418 57.1758C43.089 57.5768 42.9361 57.9931 42.7833 58.3941C42.5694 58.4557 42.3554 58.5174 42.1414 58.5791C42.0345 59.0417 41.9122 59.5044 41.7899 59.967C41.5912 60.0441 41.3926 60.1212 41.2092 60.1983C40.8577 60.5684 40.4756 60.9231 40.766 61.5091C40.5367 61.5708 40.3075 61.617 40.0935 61.6787C39.6809 62.0642 39.3599 62.4806 39.7114 63.082C39.4975 63.1283 39.2835 63.1899 39.0696 63.2362C38.7486 63.7451 38.4124 64.2385 38.0762 64.732C37.8775 64.8245 37.6941 64.9017 37.4954 64.9942C37.4954 65.3026 37.4954 65.611 37.4802 65.9348C37.2356 65.9348 37.0064 65.9502 36.7619 65.981C36.7619 66.2123 36.7619 66.4282 36.7313 66.6596C36.4868 66.7212 36.2422 66.7676 36.013 66.8293L36.0741 66.9063L36.0436 66.7829C36.2728 66.7521 36.502 66.7213 36.7313 66.675C36.7466 66.4283 36.7619 66.197 36.7771 65.9503C37.0064 65.9503 37.2356 65.9503 37.4649 65.9503C37.4649 65.6264 37.4496 65.2871 37.4496 64.9633C37.6483 64.8708 37.8317 64.7937 38.0303 64.7012C38.3666 64.1923 38.6875 63.6988 39.0237 63.1899C39.253 63.159 39.4822 63.1129 39.6962 63.082C39.8032 62.604 39.9254 62.1259 40.0324 61.6478C40.2616 61.6015 40.4909 61.5553 40.7201 61.5091C40.8577 61.0619 40.9952 60.6147 41.1328 60.1675C41.3314 60.0904 41.5301 60.0287 41.7288 59.9516C41.8511 59.4889 41.9733 59.0417 42.1109 58.5945C42.3095 58.5174 42.5082 58.4403 42.7069 58.3632C43.3182 58.1627 43.3946 57.731 43.1959 57.1913C43.4252 57.0988 43.6544 56.9908 43.8684 56.8983C44.2352 56.5744 44.5714 56.2506 44.2963 55.6954C44.5256 55.6337 44.7548 55.5721 44.984 55.5104L44.9535 55.4179V55.5567L44.984 55.572ZM33.8123 72.9512C33.9956 72.9204 34.1791 72.8896 34.3472 72.8433C34.4694 72.7199 34.607 72.5966 34.7292 72.4732C34.8973 72.3961 35.0655 72.3036 35.2488 72.2265C35.3253 71.7639 35.4017 71.3167 35.4781 70.854C35.6921 70.7615 35.9213 70.6536 36.1353 70.5611C36.2728 70.4531 36.3951 70.3297 36.5326 70.2217C36.7313 70.1601 36.9453 70.083 37.1439 70.0214C37.2051 69.5742 37.2662 69.1115 37.3273 68.6643C37.526 68.5255 37.7247 68.3867 37.9081 68.2479C38.0609 68.1863 38.229 68.1091 38.3818 68.0475C38.5041 67.9241 38.6264 67.8162 38.7486 67.6928C38.932 67.6157 39.1154 67.5386 39.2988 67.4615C39.4211 67.0143 39.5434 66.5671 39.6809 66.1199L40.3075 65.9503C40.5979 65.4105 40.9035 64.8554 41.2092 64.3157C41.4384 64.2694 41.6524 64.2385 41.8816 64.1923C41.9886 63.6988 42.0956 63.2053 42.2026 62.7118C42.386 62.6502 42.5846 62.5731 42.768 62.5114C43.089 61.9716 43.3946 61.4474 43.7156 60.9231C43.899 60.846 44.0671 60.7688 44.2505 60.6917C44.5867 60.1674 44.9076 59.6431 45.2439 59.1342C45.3967 59.0417 45.5495 58.9338 45.6871 58.8413C46.1455 58.4866 46.4512 58.101 46.1608 57.4996C46.3442 57.4379 46.5123 57.3763 46.6957 57.3146C46.925 57.2529 47.1542 57.2067 47.3835 57.145C47.3223 56.7749 47.2612 56.4047 47.2153 56.0501L47.9489 55.8959C48.1934 55.495 48.438 55.094 48.6672 54.7085C48.6367 54.7085 48.6061 54.7085 48.5755 54.6931C48.6061 54.6931 48.6367 54.6777 48.6519 54.6623C48.6519 54.6931 48.6367 54.7085 48.6214 54.7393C48.4074 55.1403 48.1935 55.5258 47.9642 55.9113C47.7044 55.9576 47.4599 56.0038 47.2001 56.0501C47.2612 56.4202 47.307 56.7903 47.3529 57.145C47.1389 57.2221 46.925 57.2838 46.6957 57.3609L46.1303 57.5151C45.9774 57.9777 45.8246 58.4249 45.6718 58.8721C45.519 58.9646 45.3661 59.0726 45.2286 59.1651C44.6173 59.5043 44.1588 59.9516 44.2505 60.738C44.0671 60.8151 43.8837 60.8922 43.7003 60.9693C43.3793 61.509 43.0737 62.0334 42.7528 62.5577C42.5694 62.6194 42.3707 62.6965 42.1873 62.7582C41.8511 63.1899 41.4079 63.5909 41.8205 64.1923C41.6065 64.2385 41.4078 64.3002 41.1939 64.3464C40.6743 64.7474 40.0324 65.1021 40.2769 65.9503C40.0783 66.0119 39.8796 66.0891 39.6656 66.1507C39.2071 66.49 39.0084 66.8909 39.253 67.4615C39.0848 67.554 38.9167 67.6465 38.7333 67.739C38.6111 67.8624 38.4888 67.9704 38.3666 68.0938C38.1985 68.1709 38.0456 68.2479 37.8775 68.325C37.6635 68.433 37.4649 68.541 37.2509 68.6643C37.1898 69.1115 37.1286 69.5742 37.0675 70.0214C36.8841 70.1139 36.7007 70.191 36.5021 70.2835C36.3645 70.3914 36.2422 70.5148 36.1047 70.6227C35.8754 70.6998 35.6309 70.7924 35.4017 70.8695C35.3406 71.3321 35.2641 71.7947 35.1877 72.2419C35.0196 72.3344 34.8668 72.4423 34.6987 72.5349C34.5764 72.6582 34.4389 72.7817 34.3166 72.905C34.1179 72.9359 33.9345 72.9821 33.7511 73.0283C33.5677 73.1671 33.3996 73.3214 33.2162 73.4602C33.2468 73.8457 33.2621 74.2158 33.2926 74.6013C33.0634 74.6013 32.8494 74.5704 32.6202 74.5704C32.6202 74.6321 32.6202 74.6784 32.6202 74.7401C32.8494 74.6938 33.0787 74.6475 33.3079 74.6013C33.2774 74.2312 33.2468 73.8457 33.2162 73.4756C33.3843 73.306 33.5677 73.1363 33.7359 72.9667L33.8123 72.9512ZM31.1377 12.0084C31.1225 12.2398 31.1072 12.4865 31.0766 12.7178C30.8321 12.7178 30.6029 12.7487 30.3583 12.7487C30.4042 12.7487 30.4347 12.7641 30.4806 12.7795C30.4347 12.8103 30.3889 12.8566 30.3431 12.8874C30.3431 12.8566 30.343 12.8103 30.3583 12.7795C30.6029 12.7332 30.8321 12.7024 31.0614 12.6407C31.0766 12.4248 31.0919 12.2243 31.1225 12.0084C31.26 11.8388 31.3976 11.6538 31.5504 11.4841C32.9717 11.5612 33.5219 10.4201 34.2402 9.51029C34.286 9.51029 34.3319 9.51028 34.3777 9.49485C34.393 9.49485 34.4083 9.43318 34.4236 9.40233C34.3777 9.4486 34.3319 9.51029 34.286 9.55655C33.3843 10.2042 32.4674 10.8673 31.581 11.5304C31.4281 11.6846 31.2906 11.8388 31.1377 11.993V12.0084ZM23.588 26.8432L23.695 26.8124C23.695 26.8124 23.6186 26.874 23.6339 26.8895V26.9203L23.588 26.8432ZM35.3405 68.1554C35.3405 68.1554 35.3711 68.1246 35.3864 68.0938C35.3558 68.0938 35.3406 68.1245 35.31 68.1245C35.3253 68.1091 35.3406 68.0783 35.3558 68.0629C35.3558 68.0937 35.3405 68.1246 35.3253 68.1554H35.3405ZM8.38155 60.0132C8.38155 60.0132 8.38157 59.9824 8.351 59.967L8.28986 59.8899L8.38155 60.0132ZM41.469 55.9422C41.683 55.5567 41.8969 55.1712 42.0956 54.7856L42.0497 54.6931L42.1414 54.8164C41.362 54.8473 41.3314 55.3408 41.469 55.9268C41.2856 56.0193 41.0869 56.0964 40.9035 56.1889C40.4297 56.5436 39.8337 56.7903 39.4975 57.2529C38.122 59.1034 36.8535 61.0464 35.4628 62.8969C31.9477 67.5848 28.7231 72.504 24.4591 76.5905C24.1535 76.8835 24.0312 77.4079 23.8173 77.7934C23.6797 77.7625 23.5574 77.7163 23.7561 77.778C23.5269 77.778 23.6644 77.778 23.802 77.778C26.2014 75.9583 28.2187 73.7377 30.0221 71.3321C33.0634 67.2764 36.0741 63.1745 39.0696 59.0726C39.742 58.1473 40.2616 57.1296 40.8424 56.1427C41.0411 56.0656 41.2397 55.9884 41.4384 55.9113L41.469 55.9422ZM31.2906 14.2599C31.4587 14.2136 31.6727 14.2136 31.7949 14.1211C33.1857 12.9337 34.5764 11.7463 35.9366 10.5281C36.12 10.3739 36.1353 10.0192 36.227 9.75703C36.2728 9.74161 36.3186 9.71077 36.3645 9.71077C36.3951 9.71077 36.4409 9.75701 36.4715 9.78785C36.3951 9.77243 36.3187 9.74161 36.2423 9.71077C34.3319 10.9444 32.5896 12.3631 31.3364 14.3061C31.2295 14.4449 31.1378 14.5837 31.0308 14.7225C31.0766 14.7225 31.1225 14.7533 31.1836 14.7533C31.2142 14.5837 31.2447 14.4295 31.2906 14.2599ZM32.1464 4.39059C29.3038 4.79153 26.6446 6.65746 25.6054 8.60047C27.7908 7.19718 29.961 5.79388 32.1464 4.39059ZM7.77024 61.2932C7.77024 61.2932 7.77024 61.1853 7.77024 61.139C7.7244 61.1853 7.67855 61.2315 7.6327 61.2777C7.67855 61.2777 7.70912 61.2777 7.75497 61.2777L7.77024 61.2932ZM19.9049 36.1574C19.9049 36.1574 19.859 36.0648 19.8284 36.0185C19.7979 36.0648 19.7367 36.0957 19.7367 36.1419C19.7367 36.1882 19.7826 36.2345 19.8132 36.2807C19.8437 36.2345 19.8743 36.2036 19.9049 36.1574Z" fill="#EC6A5C"/>
<path d="M47.4599 59.1346C46.4818 60.3683 45.5037 61.602 44.5256 62.8357L44.5562 62.8665C45.5343 61.6329 46.5124 60.3992 47.4905 59.1655L47.4599 59.1346Z" fill="#EC6A5C"/>
<path d="M35.3406 73.923C34.7446 74.6632 34.1333 75.4034 33.5372 76.1436L33.5678 76.1899C33.5678 75.9278 33.5678 75.6502 33.5678 75.388L33.5067 75.4497C33.6442 75.3109 33.797 75.1567 33.9346 75.0179L33.8735 75.0796C34.011 74.9408 34.1638 74.7866 34.3014 74.6479L34.2402 74.7095C34.6223 74.4628 35.0044 74.2006 35.3864 73.9539L35.3253 73.9076L35.3406 73.923Z" fill="#EC6A5C"/>
<path d="M40.125 68.3871C39.5137 69.1273 38.9024 69.8675 38.3063 70.6077L38.3369 70.654C38.3369 70.3918 38.3369 70.1142 38.3369 69.8521L38.2758 69.9292C38.4286 69.7904 38.5661 69.6362 38.719 69.4974L38.6578 69.5591C39.1622 69.189 39.6665 68.8035 40.1708 68.4334L40.125 68.4025V68.3871Z" fill="#EC6A5C"/>
<path d="M44.5264 62.8354C44.0374 63.4523 43.5483 64.0691 43.0593 64.686L43.0898 64.7168C43.5789 64.1 44.0679 63.4832 44.557 62.8663L44.5264 62.8354Z" fill="#EC6A5C"/>
<path d="M43.0584 64.6863C42.5693 65.3031 42.0803 65.92 41.5912 66.5368L41.6371 66.583C42.1261 65.9662 42.6152 65.3493 43.1042 64.7325L43.0737 64.7017L43.0584 64.6863Z" fill="#EC6A5C"/>
<path d="M41.5915 66.5205C41.1025 67.1373 40.6134 67.7542 40.1243 68.371L40.1702 68.4018C40.1702 68.1396 40.1702 67.8775 40.1702 67.6153L40.1091 67.6771C40.6134 67.307 41.1177 66.9215 41.6221 66.5514L41.5762 66.5051L41.5915 66.5205Z" fill="#EC6A5C"/>
<path d="M30.94 78.7645C30.451 79.1192 29.9772 79.4893 29.4881 79.844L29.5187 79.8902C29.5187 79.7514 29.5187 79.6127 29.5187 79.4585L29.4728 79.5201C29.6104 79.3813 29.7479 79.2425 29.8855 79.0883L29.8396 79.1346C29.9772 78.9958 30.1147 78.857 30.2676 78.7028L30.2064 78.7491C30.4662 78.7491 30.7413 78.7491 31.0011 78.7491L30.94 78.7182V78.7645Z" fill="#EC6A5C"/>
<path d="M32.04 77.6544C31.6732 78.0245 31.3064 78.3947 30.9396 78.7802L31.0008 78.811C31.0008 78.5488 31.0008 78.2713 31.0008 78.0092L30.9549 78.0708C31.0925 77.932 31.23 77.7932 31.3828 77.639L31.3217 77.6853C31.5815 77.6853 31.8413 77.6853 32.1011 77.6853L32.0553 77.6544H32.04Z" fill="#EC6A5C"/>
<path d="M37.1594 71.7025C36.9302 72.0726 36.6857 72.4427 36.4564 72.8128L36.487 72.8744V72.0725L36.4258 72.1343C36.6857 72.0109 36.9455 71.8721 37.2053 71.7488L37.1441 71.7025H37.1594Z" fill="#EC6A5C"/>
<path d="M38.2892 70.6066C38.1671 70.7299 38.045 70.8534 37.9229 70.9767L37.9687 71.023C38.0908 70.8996 38.2129 70.7762 38.335 70.6529L38.3045 70.6066H38.2892Z" fill="#EC6A5C"/>
<path d="M37.9233 70.9614C37.8012 71.0848 37.6791 71.2081 37.557 71.3161L37.6028 71.3624C37.7249 71.239 37.847 71.1156 37.9691 70.9922L37.9233 70.946V70.9614Z" fill="#EC6A5C"/>
<path d="M37.557 71.3309C37.4349 71.4542 37.2975 71.5776 37.1754 71.7164L37.2365 71.7626C37.3585 71.6392 37.4806 71.5159 37.6027 71.3925L37.557 71.3463V71.3309Z" fill="#EC6A5C"/>
<path d="M36.457 72.8123C36.3349 72.9357 36.2128 73.059 36.0907 73.1824L36.1212 73.2286L36.4875 72.8585L36.457 72.7969V72.8123Z" fill="#EC6A5C"/>
<path d="M36.0889 73.1823C35.9668 73.3056 35.8447 73.429 35.7226 73.5523L35.7684 73.614C35.8905 73.4906 36.0126 73.3673 36.1347 73.2439L36.1041 73.1977L36.0889 73.1823Z" fill="#EC6A5C"/>
<path d="M35.7225 73.5519C35.6005 73.6753 35.4631 73.7987 35.341 73.922L35.4021 73.9683C35.5242 73.845 35.6462 73.7215 35.7683 73.5981L35.7225 73.5365V73.5519Z" fill="#EC6A5C"/>
<path d="M33.5374 76.1439C33.4153 76.2672 33.2932 76.3906 33.1711 76.5139L33.2016 76.5757C33.3237 76.4523 33.4458 76.3289 33.5679 76.2055L33.5374 76.1593V76.1439Z" fill="#EC6A5C"/>
<path d="M33.1554 76.5139C33.0333 76.6373 32.9112 76.7606 32.7891 76.884L32.8196 76.9457C32.9417 76.8224 33.0638 76.699 33.1859 76.5757L33.1554 76.5139Z" fill="#EC6A5C"/>
<path d="M32.7875 76.8825C32.6654 77.0059 32.5434 77.1292 32.4213 77.2526L32.4518 77.3143C32.5739 77.191 32.696 77.0676 32.8181 76.9443L32.7875 76.8825Z" fill="#EC6A5C"/>
<path d="M32.4215 77.2536C32.2994 77.3924 32.1621 77.5158 32.04 77.6546L32.0858 77.6854L32.452 77.3153L32.4215 77.2536Z" fill="#EC6A5C"/>
<path d="M29.4878 79.8451C29.3504 79.9839 29.2131 80.1072 29.091 80.246C29.091 80.246 29.1368 80.2768 29.1368 80.2923C29.1368 80.1381 29.1368 79.9993 29.1368 79.8451L29.1063 79.8913C29.2436 79.8913 29.381 79.8913 29.5183 79.8913L29.4878 79.8451Z" fill="#EC6A5C"/>
</svg>
