<svg width="57" height="56" viewBox="0 0 57 56" fill="none" xmlns="http://www.w3.org/2000/svg">
<rect x="0.5" width="56" height="56" rx="20" fill="#FF753D"/>
<path fill-rule="evenodd" clip-rule="evenodd" d="M34.987 25.3132H44.3973C44.5437 26.1835 44.6202 27.0764 44.6212 27.9883V28.0117C44.6202 28.9236 44.5437 29.8165 44.3973 30.6868H34.986L41.6407 37.341C41.1185 38.0739 40.5365 38.7623 39.9006 39.3991L39.8991 39.4006C39.2624 40.0368 38.574 40.619 37.841 41.1412L31.1862 34.4865V43.8973C30.3022 44.0455 29.4074 44.1204 28.5111 44.1212H28.4883C27.5919 44.1203 26.6972 44.0454 25.8132 43.8973V34.4865L19.159 41.1412C17.69 40.0943 16.4056 38.81 15.3588 37.341L22.0135 30.6868H12.6032C12.4562 29.815 12.3788 28.9194 12.3788 28.0055V27.9945C12.3788 27.0806 12.6032 25.3132 12.6032 25.3132H22.0133L15.3587 18.659C15.8804 17.9267 16.4622 17.239 17.0979 16.6031L17.1014 16.6005C17.7374 15.9636 18.4257 15.3812 19.159 14.8593L25.8132 21.5135V12.1032C26.6845 11.9569 27.5786 11.8793 28.4914 11.8788H28.5081C29.4055 11.8793 30.3013 11.9543 31.1863 12.1032V21.5135L37.8405 14.8593C38.5737 15.3813 39.2623 15.9634 39.8991 16.5994V16.5999C40.5359 17.2366 41.1184 17.9254 41.6407 18.659L34.987 25.3132ZM32.4574 31.9565C32.8868 30.8168 33.1065 29.6089 33.1059 28.391L33.1061 28.3909V28.3761C33.1067 27.1584 32.887 25.9506 32.4575 24.8111C31.3176 24.3811 30.1092 24.161 28.8908 24.1616H28.8766C27.6581 24.1611 26.4495 24.3812 25.3095 24.8113C24.8805 25.9509 24.661 27.1586 24.6616 28.3762V28.391C24.6612 29.6091 24.8811 30.8172 25.3108 31.9571C26.4199 32.3752 27.6219 32.6045 28.8764 32.6061H28.8907C30.109 32.6059 31.3173 32.3858 32.4574 31.9565Z" fill="white"/>
</svg>
