<svg width="57" height="56" viewBox="0 0 57 56" fill="none" xmlns="http://www.w3.org/2000/svg">
<rect x="0.5" width="56" height="56" rx="20" fill="#B6D35C"/>
<path d="M24.2407 32.4057C25.3874 32.4057 26.317 33.3604 26.317 34.5382V43.6858C26.317 44.8636 25.3874 45.8181 24.2407 45.8181C23.0942 45.8181 22.1646 44.8636 22.1646 43.6858V34.5382C22.1646 33.3606 23.0942 32.4059 24.2407 32.4059V32.4057Z" fill="white"/>
<path d="M19.5008 21.4077C19.4939 21.4886 19.488 21.5703 19.488 21.653V35.5126C19.488 37.0031 20.6367 38.2039 22.0627 38.2039H35.7855C37.2117 38.2039 38.3604 37.0029 38.3604 35.5126V21.653C38.3604 21.5703 38.3575 21.4883 38.3508 21.4077H19.5008Z" fill="white"/>
<path fill-rule="evenodd" clip-rule="evenodd" d="M27.8808 12.2897C23.2369 12.7497 19.6192 16.2401 19.5614 20.4973H38.2868C38.229 16.2404 34.6116 12.7498 29.9674 12.2897H27.8808ZM18.2281 24.7736C18.2281 23.5959 17.2986 22.6411 16.152 22.6411C15.0052 22.6411 14.0756 23.596 14.0758 24.7737V33.9214C14.0758 35.099 15.0053 36.0537 16.152 36.0537C17.2986 36.0537 18.2281 35.099 18.2281 33.9213V24.7736ZM35.684 34.5382C35.684 33.3605 34.7544 32.4057 33.6078 32.4057V32.4059C32.4612 32.4059 31.5316 33.3606 31.5316 34.5382V43.6859C31.5316 44.8636 32.4612 45.8182 33.6078 45.8182C34.7544 45.8182 35.684 44.8636 35.684 43.6859V34.5382ZM41.6966 22.6411C42.8431 22.6411 43.7727 23.5959 43.7727 24.7736V33.9213C43.7727 35.099 42.8431 36.0537 41.6966 36.0537C40.5499 36.0537 39.6203 35.099 39.6203 33.9214V24.7737C39.6203 23.596 40.5499 22.6411 41.6966 22.6411Z" fill="white"/>
<path d="M20.8284 11.5725C20.6592 11.2716 20.2782 11.1648 19.9773 11.334C19.6764 11.5031 19.5696 11.8841 19.7387 12.185L20.8284 11.5725ZM21.9289 16.0813C22.098 16.3822 22.479 16.489 22.7799 16.3199C23.0808 16.1507 23.1877 15.7697 23.0185 15.4688L21.9289 16.0813ZM38.1099 12.1851C38.279 11.8842 38.1722 11.5031 37.8713 11.334C37.5704 11.1648 37.1894 11.2716 37.0203 11.5725L38.1099 12.1851ZM34.83 15.4688C34.6608 15.7697 34.7676 16.1507 35.0685 16.3199C35.3694 16.489 35.7505 16.3822 35.9196 16.0813L34.83 15.4688ZM19.7387 12.185L21.9289 16.0813L23.0185 15.4688L20.8284 11.5725L19.7387 12.185ZM37.0203 11.5725L34.83 15.4688L35.9196 16.0813L38.1099 12.1851L37.0203 11.5725Z" fill="white"/>
<path fill-rule="evenodd" clip-rule="evenodd" d="M33.082 17.7627C33.6754 17.761 34.1549 17.2772 34.1532 16.6822V16.6762C34.1514 16.0808 33.6691 15.6 33.076 15.6016C32.4828 15.6033 32.0033 16.0869 32.0049 16.6822V16.6882C32.0066 17.2832 32.4889 17.7642 33.082 17.7627ZM25.0639 17.7627C25.6573 17.761 26.1368 17.2772 26.135 16.6822V16.6762C26.1333 16.0808 25.651 15.6 25.0579 15.6016C24.4647 15.6033 23.9852 16.0869 23.9868 16.6822V16.6882C23.9885 17.2832 24.4708 17.7642 25.0639 17.7627Z" fill="#A4C639"/>
</svg>
