<svg width="184" height="92" viewBox="0 0 184 92" fill="none" xmlns="http://www.w3.org/2000/svg">
<path d="M56.8437 29.3845C56.8249 29.267 56.7675 29.1591 56.6806 29.0778C56.5937 28.9965 56.4823 28.9463 56.3638 28.9352C56.1721 28.9046 51.9632 28.6132 51.9632 28.6132L48.7539 25.404C48.4656 25.082 47.8247 25.177 47.5824 25.2445C47.5517 25.2445 46.9415 25.4362 45.9464 25.7597C44.9773 22.9598 43.263 20.39 40.2454 20.39H39.9878C39.1215 19.2706 38.0635 18.7539 37.1665 18.7539C30.1377 18.7846 26.7858 27.5522 25.7278 32.0326L20.815 33.5398C19.3078 34.0198 19.251 34.055 19.0517 35.4918L14.9102 67.4357L45.9571 73.247L62.7839 69.6192C62.7839 69.5885 56.876 29.6912 56.8453 29.3876L56.8437 29.3845ZM44.2244 26.2994C43.4424 26.557 42.5378 26.8146 41.5932 27.1044V26.5264C41.6239 25.082 41.4046 23.6437 40.9523 22.2698C42.5255 22.5121 43.5835 24.2785 44.2244 26.2994ZM39.0571 22.6409C39.5708 24.1543 39.8238 25.749 39.7594 27.3482V27.6365L34.3314 29.3232C35.394 25.3564 37.352 23.3953 39.054 22.6578L39.0571 22.6409ZM36.9718 20.689C37.2938 20.6966 37.605 20.7963 37.8703 20.9772C35.6056 22.0322 33.212 24.694 32.1847 30.0239L27.8914 31.3395C29.1027 27.2946 31.9286 20.6798 36.9687 20.6798L36.9718 20.689Z" fill="#545252"/>
<path d="M56.3654 28.9339C56.1737 28.9032 51.9647 28.6119 51.9647 28.6119L48.7555 25.4026C48.6374 25.2799 48.4764 25.2125 48.3062 25.2109L45.9633 73.2411L62.7901 69.6132L56.8469 29.4123C56.807 29.1669 56.6138 28.9707 56.3669 28.9323L56.3654 28.9339Z" fill="#545252"/>
<path d="M40.2438 38.2443L38.1554 44.4083C36.8935 43.7949 35.512 43.4683 34.1105 43.4423C30.8338 43.4423 30.6758 45.4969 30.6758 46.0121C30.6758 48.8181 38.0282 49.8976 38.0282 56.5124C38.0282 61.7135 34.7208 65.0531 30.2894 65.0531C24.9596 65.0531 22.2302 61.7457 22.2302 61.7457L23.647 57.023C23.647 57.023 26.4377 59.4303 28.8174 59.4303C29.1019 59.4416 29.3856 59.3949 29.6515 59.2931C29.9173 59.1913 30.1597 59.0366 30.3639 58.8383C30.5681 58.6399 30.7298 58.4022 30.8393 58.1394C30.9489 57.8767 31.0038 57.5944 31.0009 57.3097C31.0009 53.6144 24.9642 53.4549 24.9642 47.4197C24.9642 42.3444 28.6227 37.3994 35.9766 37.3994C38.8669 37.4423 40.2484 38.2427 40.2484 38.2427L40.2438 38.2443Z" fill="white"/>
<path d="M77.3935 47.4261C76.1929 46.7821 75.5719 46.2255 75.5719 45.4634C75.5719 44.4974 76.4153 43.8733 77.7845 43.8733C78.8009 43.8954 79.8034 44.1146 80.7362 44.5189L81.8433 41.1547C81.8433 41.1547 80.8282 40.3697 77.8535 40.3697C73.7043 40.3697 70.8217 42.7463 70.8217 46.0859C70.8217 47.975 72.1587 49.4286 73.9558 50.4651C75.4079 51.3085 75.9185 51.8666 75.9185 52.7467C75.9185 53.6269 75.2039 54.3613 73.8439 54.3613C71.8398 54.3613 69.9492 53.3248 69.9492 53.3248L68.7747 56.6889C68.7747 56.6889 70.5273 57.8635 73.4544 57.8635C77.7171 57.8635 80.7837 55.7659 80.7837 51.9755C80.8067 49.9239 79.2611 48.4948 77.4104 47.4107L77.3935 47.4261ZM94.4043 40.3497C92.3067 40.3497 90.6477 41.3418 89.3781 42.8736L89.3075 42.8506L91.1291 33.3194H86.3835L81.7727 57.5921H86.5215L88.1115 49.2937C88.7341 46.1595 90.3548 44.2214 91.8682 44.2214C92.9262 44.2214 93.3433 44.9359 93.3433 45.974C93.3433 46.6793 93.2727 47.3801 93.1363 48.0716L91.3392 57.5691H96.0879L97.9555 47.7557C98.1595 46.7391 98.2775 45.7072 98.3005 44.6737C98.2775 41.9996 96.8715 40.3865 94.4059 40.3865L94.4043 40.3497ZM109.017 40.3497C103.301 40.3497 99.5195 45.514 99.5195 51.2364C99.5195 54.9256 101.801 57.8757 106.067 57.8757C111.674 57.8757 115.472 52.8495 115.472 46.9891C115.472 43.5774 113.468 40.3497 109.025 40.3497H109.017ZM106.686 54.2494C105.072 54.2494 104.382 52.8694 104.382 51.1674C104.382 48.4473 105.783 43.9991 108.371 43.9991C110.054 43.9991 110.615 45.4511 110.615 46.8587C110.609 49.7797 109.204 54.2494 106.689 54.2494H106.686ZM127.616 40.3497C124.396 40.3497 122.59 43.1527 122.59 43.1527H122.52L122.8 40.6288H118.594L117.628 46.9231L114.332 64.305H119.059L120.374 57.2731H120.466C120.466 57.2731 121.432 57.8957 123.257 57.8957C128.835 57.8957 132.477 52.1794 132.477 46.4018C132.5 43.2201 131.076 40.3635 127.613 40.3635L127.616 40.3497ZM123.075 54.3184C122.358 54.3327 121.661 54.0864 121.112 53.6253L121.897 49.1756C122.458 46.2239 123.995 44.2413 125.654 44.2413C127.106 44.2413 127.543 45.5784 127.543 46.848C127.55 49.9407 125.733 54.3199 123.081 54.3199L123.075 54.3184ZM139.282 33.5264C138.555 33.5218 137.856 33.8101 137.345 34.3268C136.835 34.8435 136.551 35.5443 136.579 36.2711C136.579 37.6725 137.479 38.6477 138.822 38.6477H138.892C139.259 38.6623 139.624 38.6016 139.966 38.4694C140.308 38.3372 140.62 38.1363 140.881 37.8791C141.142 37.6219 141.348 37.3139 141.486 36.974C141.624 36.6341 141.69 36.2697 141.682 35.9031C141.682 34.5231 140.759 33.5264 139.305 33.5264H139.282ZM132.649 57.5461H137.397L140.624 40.7254H135.858M152.725 40.7024H149.408L149.571 39.9173C149.851 38.3027 150.816 36.8507 152.374 36.8507C152.89 36.8509 153.403 36.9284 153.896 37.0807L154.813 33.3654C154.813 33.3654 153.97 32.9514 152.231 32.9514C150.539 32.9093 148.887 33.4733 147.574 34.5415C145.96 35.9215 145.198 37.9056 144.814 39.9127L144.661 40.6978H142.448L141.755 44.2705H143.968L141.444 57.5491H146.21L148.733 44.2705H152.009L152.653 40.6978L152.725 40.7024ZM164.16 40.7254L159.849 52.2975H159.778L158.603 40.7254H153.599L156.458 56.1691C156.527 56.4331 156.494 56.7133 156.366 56.9542C155.745 58.0996 154.861 59.0794 153.784 59.8139C152.959 60.3812 152.059 60.832 151.11 61.1509L152.426 65.1836C154.165 64.718 155.762 63.8282 157.073 62.5938C159.24 60.5637 161.244 57.4295 163.299 53.1638L169.107 40.7162H164.159L164.16 40.7254Z" fill="#545252"/>
</svg>
