<svg width="98" height="358" viewBox="0 0 98 358" fill="none" xmlns="http://www.w3.org/2000/svg">
<path d="M51.5638 189.059C47.2892 189.974 43.5451 190.969 39.7666 191.517C35.7489 192.108 31.676 192.851 27.6797 192.453C17.491 191.426 11.6588 179.806 12.6523 163.074C13.3188 151.74 16.276 141.692 19.7008 132.054C29.1167 105.633 40.5628 81.6452 52.7774 58.5891C61.8071 41.5251 70.9074 24.5756 79.962 7.55875C83.5223 0.875838 88.4088 -0.95889 92.5938 2.90563C96.7581 6.75001 98.8256 14.8903 96.8791 22.9136C95.4457 28.8191 93.4032 34.5912 90.9452 39.4999C78.0909 65.1017 64.9257 90.2863 52.0568 115.851C46.3574 127.179 41.0187 139.019 35.6509 150.784C33.932 154.575 32.6586 158.915 30.7813 164.113C32.9619 163.962 34.2435 164.015 35.5056 163.773C42.4488 162.401 49.3791 160.833 56.3288 159.559C60.1192 158.862 63.951 158.205 67.7644 158.219C76.6911 158.248 81.5592 170.949 77.3816 183.873C74.4706 192.863 70.7691 201.176 67.411 209.777C51.0564 251.578 34.7018 293.379 18.3307 335.187C15.2468 343.068 11.9908 350.69 6.98675 355.716C3.06044 359.655 1.20465 358.171 0.853914 350.622C0.301029 338.675 3.37857 328.217 6.08844 317.654C16.7527 276.079 31.4429 238.306 46.9197 201.299C48.2751 198.049 49.6263 194.772 50.9506 191.492C51.1101 191.051 51.193 190.512 51.5638 189.059Z" fill="#BBADFC"/>
</svg>
