<svg width="205" height="181" viewBox="0 0 205 181" fill="none" xmlns="http://www.w3.org/2000/svg">
<path d="M30.1157 119.447C31.1957 118.007 31.159 116.731 30.6003 115.231C28.3011 108.929 27.9323 102.361 28.3245 95.7332C28.8967 85.8244 31.5549 76.4016 35.2033 67.2205C39.1217 57.3587 44.2503 48.1923 51.1187 40.0643C57.4662 32.559 64.9349 26.3131 73.0307 20.812C82.3845 14.4599 92.2942 9.11337 102.844 5.01913C109.193 2.5605 115.726 0.727134 122.568 0.335833C130.299 -0.109927 137.719 1.10743 144.459 5.05471C146.539 6.26922 148.506 7.79752 150.239 9.48207C153.676 12.8118 154.776 16.9623 153.724 21.6293C152.597 26.5802 149.98 30.7384 146.548 34.397C140.98 40.3387 134.081 44.1454 126.276 46.0749C123.389 46.7966 122.182 48.0429 122.178 50.9008C122.187 52.4665 121.856 54.021 121.651 55.7692C130.392 56.7088 137.613 60.6633 144.239 66.7241C144.363 65.7411 144.464 65.0846 144.497 64.4185C144.853 59.5973 145.632 54.8692 147.146 50.2655C148.641 45.718 150.661 41.4543 154.11 38.01C157.832 34.2971 162.346 32.0927 167.524 31.391C176.645 30.1595 184.637 32.7021 191.337 38.9966C197.848 45.124 201.75 52.7759 203.271 61.4895C205.998 77.1912 204.106 92.342 197.081 106.754C192.168 116.832 184.457 123.986 174.18 128.411C163.366 133.058 152.071 135.297 140.312 135.179C139.583 135.173 138.878 135.17 137.938 135.159C138.064 135.788 138.189 136.334 138.291 136.878C138.908 140.092 136.965 142.248 133.732 141.805C132.439 141.628 131.167 141.206 129.955 140.699C125.537 138.858 121.652 136.138 117.856 133.288C116.022 131.907 114.338 130.288 111.988 129.754C111.691 129.69 111.381 129.636 110.764 129.504C111.129 130.613 111.378 131.459 111.686 132.301C114.727 140.482 117.087 148.828 118.225 157.501C118.58 160.232 118.763 163.009 118.749 165.772C118.738 169.193 117.614 172.239 115.059 174.653C112.803 176.779 110.042 177.777 107.018 178.044C103.146 178.396 99.3879 177.751 95.7383 176.486C89.6183 174.365 84.1512 171.086 79.4557 166.643C78.3093 165.568 77.4086 165.445 76.0004 165.934C69.7195 168.155 63.2308 169.147 56.5583 168.479C49.6286 167.8 43.3587 165.399 38.0329 160.834C31.9718 155.627 29.0138 148.81 28.0119 141.027C27.4021 136.214 27.544 131.411 28.4673 126.655C28.7237 125.303 28.4158 124.46 27.4056 123.593C24.1296 120.72 20.8931 117.818 17.0705 115.67C15.4205 114.75 13.6229 113.963 11.804 113.501C8.5656 112.669 6.30833 114.03 5.1355 117.175C4.43044 119.054 4.28957 121.023 4.40272 123.027C4.65709 127.344 5.78403 131.474 7.43757 135.453C11.2391 144.609 16.5847 152.8 23.0112 160.316C26.6208 164.528 30.4895 168.481 34.9645 171.789C37.1854 173.434 39.5178 174.954 42.2219 175.736C43.8067 176.189 45.3811 176.546 47.0352 175.808C48.15 175.314 49.0588 175.721 49.5944 176.618C50.16 177.554 49.9317 178.617 48.9736 179.427C47.8121 180.432 46.3894 180.684 44.8992 180.656C41.2265 180.588 37.9397 179.337 34.8407 177.489C30.7959 175.076 27.337 171.908 24.0551 168.564C16.613 160.991 10.4415 152.475 5.60987 143.026C2.74421 137.421 0.510218 131.586 -0.213212 125.288C-0.655513 121.569 -0.517322 117.906 1.09882 114.445C3.10937 110.168 6.83916 108.021 11.5103 108.615C13.1168 108.823 14.7184 109.325 16.2611 109.913C19.3002 111.082 21.9509 112.94 24.5133 114.926C26.3838 116.383 28.1855 117.912 30.1026 119.457L30.1157 119.447ZM159.967 128.251C160.076 128.148 160.184 128.045 160.292 127.943C160.174 128.032 160.063 128.158 159.944 128.248C159.449 127.403 158.66 127.836 157.997 127.863C151.785 128.129 145.638 127.827 139.6 126.141C135.952 125.123 132.551 123.586 129.63 121.127C129.461 120.986 129.25 120.899 129.055 120.778C129.253 121.558 129.606 122.159 130.008 122.744C131.391 124.756 132.865 126.7 134.135 128.756C134.771 129.784 135.482 130.176 136.639 130.228C143.577 130.591 150.448 130.157 157.247 128.701C158.133 128.505 159.055 128.385 159.947 128.225L159.967 128.251ZM34.0291 110.479L34.524 110.558C34.7336 110.316 34.9732 110.114 35.1498 109.856C39.1618 103.854 44.6603 99.6197 51.2885 97.0112C53.5516 96.1216 54.5175 94.913 55.0093 92.6159C55.8221 88.7513 57.5008 85.2642 60.8067 82.7766C61.2795 82.4179 61.5725 81.7405 61.8066 81.1491C62.561 79.2528 63.1832 77.2912 63.9707 75.4112C68.6756 64.1045 76.363 55.6653 87.7154 50.693C94.4735 47.7376 101.531 45.9409 108.771 44.7925C112.018 44.2731 115.259 43.7175 118.51 43.1751C118.652 42.7358 118.753 42.432 118.84 42.1381C119.904 38.3314 120.945 34.5216 122.008 30.7149C122.167 30.1602 122.388 29.5788 122.679 29.0893C123.169 28.2625 123.961 27.9712 124.879 28.144C125.819 28.32 126.483 29.058 126.515 30.1093C126.526 30.8872 126.438 31.6986 126.241 32.448C125.657 34.8148 124.994 37.1589 124.377 39.5094C124.203 40.1795 124.085 40.8691 123.892 41.7602C124.659 41.5713 125.166 41.4762 125.656 41.3317C128.964 40.3735 132.148 39.1161 135.106 37.3689C140.672 34.0972 145.257 29.8322 147.941 23.8243C150.37 18.3815 149.806 14.7752 144.344 10.6031C144.238 10.518 144.116 10.466 144.02 10.394C140.274 7.77474 136.093 6.2721 131.605 5.53924C124.139 4.31556 116.869 5.34218 109.781 7.69949C93.5226 13.1049 78.909 21.5238 65.6932 32.3577C60.7902 36.3673 56.378 40.9148 52.5091 45.9603C44.0187 57.0773 38.5096 69.6147 35.0825 83.0964C33.3689 89.8372 32.6121 96.721 33.1282 103.673C33.2956 105.967 33.7036 108.222 34.0159 110.489L34.0291 110.479ZM159.16 87.3444C160.957 92.2491 162.782 96.7812 164.277 101.398C165.451 105.017 166.338 108.75 167.18 112.477C167.467 113.728 167.451 115.125 167.185 116.383C166.771 118.455 164.903 119.376 162.938 118.612C162.211 118.336 161.519 117.888 160.956 117.364C160.008 116.469 159.097 115.486 158.283 114.468C154.43 109.635 151.621 104.215 149.411 98.4652C149.126 97.7087 148.779 96.9789 148.376 96.0647C141.526 101.572 134.939 106.88 128.128 112.357C129.499 113.945 130.627 115.406 131.91 116.687C135.115 119.903 139.211 121.347 143.534 122.163C152.216 123.788 160.848 123.549 169.37 121.117C177.427 118.811 184.373 114.658 189.581 107.996C196.917 98.6027 199.472 87.7895 198.657 76.0788C198.56 74.7246 198.16 73.3522 197.715 72.056C196.951 69.8221 195.296 68.5953 192.939 68.6251C191.383 68.647 189.786 68.8868 188.255 69.2415C184.959 70.0249 181.958 71.5779 179.067 73.2754C173.08 76.7835 167.528 80.8924 162.072 85.1557C161.097 85.916 160.089 86.6601 159.157 87.3675L159.16 87.3444ZM198.985 65.6308C198.983 65.1364 199.027 64.8131 198.976 64.5002C197.896 57.0236 195.041 50.3151 190.091 44.5547C186.472 40.3294 181.979 37.4078 176.465 36.3577C169.334 35.0035 162.813 36.227 157.426 41.4524C155.117 43.7004 153.649 46.5106 152.502 49.4706C149.843 56.3288 149.022 63.5096 149.124 70.817C149.145 71.5256 149.594 72.2813 150.012 72.9151C151.262 74.7804 152.617 76.566 153.857 78.4181C154.844 79.8827 155.755 81.384 156.819 83.0591C157.384 82.6307 157.844 82.282 158.303 81.9333C163.432 78.2487 168.514 74.4754 173.713 70.8827C177.237 68.4367 181.05 66.4539 185.14 65.109C189.737 63.5865 194.354 62.7726 198.949 65.6376L198.985 65.6308ZM101.895 124.959C101.239 124.505 100.918 124.272 100.594 124.063C95.2053 120.642 90.4293 116.529 86.5085 111.498C83.876 108.137 81.4962 104.564 79.0081 101.094C78.5132 100.414 78.1858 99.6284 77.2187 99.3899C72.5675 98.2229 67.8688 98.0022 63.2076 98.6218C63.0803 98.8632 62.9821 98.9791 62.9662 99.0945C61.5613 111.042 62.7759 122.76 66.1848 134.262C66.4637 135.229 67.065 135.476 67.9548 135.422C70.7196 135.248 73.4953 135.252 76.2294 134.874C84.0955 133.788 91.3685 130.939 98.2702 127.109C99.404 126.476 100.511 125.781 101.918 124.962L101.895 124.959ZM146.931 91.0789C146.748 90.2657 146.577 89.6305 146.478 88.9817C145.863 85.1449 144.975 81.3294 144.74 77.474C144.556 74.6138 143.589 72.5755 141.508 70.6787C136.777 66.3245 131.612 62.8167 125.297 61.2568C124.046 60.9442 122.737 60.7999 121.07 60.5126C121.084 61.2674 121.153 61.7944 121.13 62.3088C120.644 70.4766 120.593 78.6453 121.132 86.8007C121.527 92.7484 122.492 98.5742 124.458 104.22C124.853 105.368 125.373 106.463 125.938 107.834C133.07 102.154 139.966 96.6528 146.954 91.0821L146.931 91.0789ZM70.317 81.5396C70.3841 79.9371 70.3171 78.5399 70.5041 77.1774C71.0444 73.4989 73.4018 71.1518 77.0505 70.4522C79.0922 70.0616 81.1139 70.2447 83.1244 70.7674C86.155 71.5711 88.9184 72.9498 91.4762 74.7121C98.2134 79.3649 103.024 85.6239 106.476 92.9553C109.865 100.149 111.255 107.844 111.678 115.737C111.725 116.508 111.772 117.279 111.85 118.337C114.238 116.794 116.297 115.335 118.283 113.725C117.943 113.114 117.727 112.719 117.487 112.322C113.795 106.228 110.493 99.9406 107.938 93.2733C105.648 87.3363 104.036 81.2571 103.869 74.8466C103.784 71.5178 104.162 68.2522 105.401 65.1401C107.229 60.5676 110.492 57.533 115.311 56.2763C115.812 56.145 116.282 55.9742 116.786 55.8197C117.078 53.2601 117.368 50.806 117.683 48.1671C115.506 48.5156 113.57 48.8265 111.633 49.1374C104.986 50.1671 98.387 51.4503 92.131 54.004C86.7236 56.2035 81.682 58.9943 77.5052 63.1977C72.9712 67.7755 69.9024 73.2483 67.5912 79.2013C67.3765 79.7366 67.2411 80.2944 67.0369 80.9252C68.2083 81.1328 69.2312 81.3083 70.3233 81.4934L70.317 81.5396ZM104.955 128.802C93.7379 135.616 81.8499 140.291 68.3011 140.269C70.9512 147.443 74.4408 153.815 79.4337 159.605C82.0505 158.282 84.6152 157.081 87.0735 155.712C91.1325 153.48 94.9388 150.861 98.0814 147.422C102.207 142.906 104.402 137.455 105.702 131.586C105.921 130.593 105.606 129.797 104.965 128.815L104.955 128.802ZM82.8265 163.341C84.5181 164.643 85.8032 165.737 87.1896 166.691C91.7792 169.85 96.6916 172.37 102.316 173.047C104.249 173.277 106.276 173.249 108.183 172.899C111.489 172.293 113.487 169.991 113.862 166.666C114.037 165.043 114.008 163.369 113.878 161.751C113.263 154.232 111.509 146.957 109.221 139.797C109.141 139.528 108.912 139.308 108.663 138.897C108.318 139.697 108.037 140.282 107.79 140.883C106.365 144.241 104.529 147.33 102.118 150.069C97.8883 154.913 92.5795 158.278 86.952 161.224C85.7358 161.857 84.5096 162.477 82.8396 163.331L82.8265 163.341ZM106.492 116.32C106.656 116.236 106.821 116.153 106.985 116.07C106.64 113.27 106.391 110.459 105.937 107.68C104.311 97.8461 100.272 89.2225 93.0699 82.2122C90.2065 79.4199 86.9835 77.19 83.1949 75.8236C81.4344 75.194 79.649 74.8316 77.7622 75.2081C76.7447 75.4215 75.9034 75.8944 75.5035 76.9218C74.7301 78.9567 75.3046 80.9412 75.7013 82.9365C75.9521 84.1943 76.8092 84.8059 77.7456 85.4401C78.4968 85.9666 79.2186 86.5361 79.9371 87.1287C84.5466 90.9132 88.346 95.4573 92.1947 99.9845C95.3964 103.741 98.5818 107.53 101.81 111.266C103.313 113.002 104.924 114.634 106.492 116.32ZM33.1457 129.167C32.9247 129.749 32.8201 129.911 32.7947 130.096C32.1362 135.663 32.3706 141.154 34.1405 146.514C35.9973 152.097 39.3937 156.492 44.4542 159.562C51.132 163.618 58.3891 164.484 65.9885 163.455C66.3969 163.394 66.8081 163.227 67.236 163.109C64.7923 161.115 62.4087 159.283 60.1661 157.281C52.8285 150.746 46.3369 143.363 39.6681 136.155C37.5789 133.892 35.4635 131.65 33.1556 129.18L33.1457 129.167ZM53.5959 101.198C52.836 101.505 52.3656 101.676 51.9019 101.883C45.7464 104.733 40.9439 109.039 37.5445 114.948C36.676 116.476 36.6524 117.59 37.6264 119.065C42.6659 126.743 49.7467 131.549 58.4731 134.051C58.8462 134.161 59.1967 134.351 59.5535 134.494C56.0418 123.484 53.1745 112.751 53.5859 101.185L53.5959 101.198ZM116.274 61.0902C114.075 61.6003 112.548 62.7791 111.321 64.3518C109.893 66.1795 109.282 68.319 108.928 70.5526C108.324 74.5281 108.751 78.4451 109.606 82.3266C111.327 90.2677 114.716 97.5435 118.569 104.612C118.822 105.082 119.078 105.529 119.345 105.989C119.574 106.373 119.843 106.728 120.086 107.102C115.003 92.1127 115.828 76.6746 116.274 61.0902ZM69.593 158.279C69.1778 157.105 68.8758 156.134 68.4981 155.2C66.5507 150.534 64.5178 145.891 62.6229 141.184C62.1683 140.04 61.5 139.595 60.3517 139.391C55.1906 138.424 50.3706 136.517 45.9151 133.753C44.7111 133.012 43.556 132.171 42.1564 131.226C45.3707 136.69 65.4064 156.47 69.6061 158.27L69.593 158.279ZM113.72 123.31C115.143 124.858 116.519 126.399 118.681 126.931C121.299 127.572 123.9 128.247 126.518 128.888C127.053 129.02 127.606 129.014 128.533 129.117C125.871 125.2 123.422 121.617 120.867 117.867L113.71 123.297L113.72 123.31ZM65.3075 85.9816C64.7641 88.4833 64.2238 90.9619 63.6804 93.4636C67.5247 93.5672 71.1019 93.6459 74.7945 93.7405C73.9731 91.8398 73.2215 90.0311 72.4174 88.2622C72.2639 87.9235 72.0113 87.536 71.6938 87.363C69.7631 86.3455 67.7481 85.5987 65.3175 85.9948L65.3075 85.9816ZM152.528 92.8109C154.693 99.4013 157.482 105.395 161.734 110.671C160.295 103.84 158.117 97.2591 155.154 90.8183L152.528 92.8109ZM87.0838 103.966C89.206 108.044 96.0925 115.294 98.5865 116.236C95.5171 111.345 91.94 107.067 87.0838 103.966ZM150.443 81.7733C150.23 83.7556 150.622 85.5268 151.161 87.6005C151.899 86.937 152.368 86.519 152.903 86.0512C152.028 84.5432 151.229 83.1632 150.453 81.7864L150.443 81.7733ZM128.221 134.05C129.993 135.622 131.579 136.322 132.947 136.216C132.228 133.741 130.06 134.62 128.221 134.05ZM34.5123 123.496C34.5481 123.407 34.5807 123.341 34.6133 123.275C34.564 123.292 34.4947 123.282 34.4784 123.315C34.4621 123.348 34.4888 123.411 34.5123 123.496ZM81.6037 95.2975C81.5177 95.2387 81.4317 95.1798 81.3225 95.1178C81.3162 95.164 81.2804 95.2532 81.3003 95.2794C81.3601 95.3582 81.4298 95.4501 81.5159 95.509C81.5385 95.4297 81.5711 95.3636 81.5938 95.2844L81.6037 95.2975Z" fill="#3DFFA2"/>
</svg>
