<svg width="84" height="50" viewBox="0 0 84 50" fill="none" xmlns="http://www.w3.org/2000/svg">
<g clip-path="url(#clip0_704_1306)">
<path d="M7.76446 0H75.8625C80.172 0 83.6609 3.48856 83.6609 7.79837V33.7925C83.6609 38.102 80.1723 41.5909 75.8625 41.5909H51.4419L54.7939 49.7993L40.0524 41.5909H7.7991C3.48963 41.5909 0.000737632 38.1023 0.000737632 33.7925V7.79837C-0.033465 3.52288 3.45499 0 7.76446 0Z" fill="#545252"/>
<path d="M4.76405 7.10819C5.24016 6.46205 5.95435 6.12195 6.90657 6.05394C8.64098 5.91791 9.62722 6.73411 9.86529 8.50254C10.9195 15.6104 12.0758 21.6297 13.3003 26.561L20.748 12.3797C21.4281 11.0873 22.2783 10.4072 23.2986 10.3392C24.795 10.2371 25.7132 11.1894 26.0873 13.1959C26.9375 17.7191 28.0257 21.5619 29.318 24.8266C30.2023 16.1884 31.6986 9.96515 33.8073 6.12201C34.3174 5.16979 35.0656 4.69368 36.0518 4.62564C36.834 4.55762 37.5482 4.79568 38.1943 5.3058C38.8405 5.81593 39.1806 6.46208 39.2486 7.24427C39.2826 7.85643 39.1805 8.36652 38.9085 8.87665C37.5822 11.3252 36.4939 15.4404 35.6098 21.1535C34.7596 26.6969 34.4535 31.0159 34.6575 34.1106C34.7256 34.9608 34.5895 35.709 34.2494 36.3552C33.8413 37.1034 33.2292 37.5115 32.447 37.5795C31.5628 37.6475 30.6446 37.2394 29.7604 36.3212C26.5976 33.0904 24.081 28.2614 22.2447 21.8336C20.0342 26.1865 18.4019 29.4516 17.3476 31.628C15.3412 35.4708 13.6408 37.4434 12.2124 37.5453C11.2941 37.6134 10.5119 36.8312 9.83176 35.1988C8.09735 30.7435 6.22686 22.1396 4.22033 9.38669C4.08429 8.50247 4.28834 7.72028 4.76444 7.10812L4.76405 7.10819ZM77.849 12.4474C76.6247 10.3049 74.8223 9.01244 72.4078 8.50231C71.7617 8.36628 71.1495 8.29826 70.5714 8.29826C67.3066 8.29826 64.6541 9.99868 62.5796 13.3996C60.8111 16.2903 59.9269 19.4871 59.9269 22.9898C59.9269 25.6084 60.4711 27.8528 61.5593 29.7234C62.7836 31.8659 64.586 33.1584 67.0005 33.6685C67.6466 33.8046 68.2588 33.8726 68.8369 33.8726C72.1356 33.8726 74.7882 32.1721 76.8288 28.7713C78.5972 25.8466 79.4814 22.6497 79.4814 19.1471C79.5154 16.4944 78.9373 14.284 77.849 12.4474ZM73.5641 21.8677C73.0879 24.1122 72.2377 25.7785 70.9794 26.901C69.9932 27.7852 69.075 28.1593 68.2248 27.9893C67.4086 27.8192 66.7284 27.1051 66.2183 25.7787C65.8102 24.7245 65.6061 23.6702 65.6061 22.684C65.6061 21.8338 65.6742 20.9836 65.8442 20.2014C66.1503 18.8071 66.7284 17.4468 67.6466 16.1544C68.7689 14.488 69.9592 13.8078 71.1836 14.0459C71.9998 14.2159 72.6799 14.9301 73.19 16.2564C73.5981 17.3106 73.8022 18.3649 73.8022 19.3511C73.8022 20.2353 73.7341 21.0855 73.5641 21.8677ZM56.5598 12.4474C55.3355 10.3049 53.4991 9.01244 51.1186 8.50231C50.4725 8.36628 49.8603 8.29826 49.2822 8.29826C46.0174 8.29826 43.3649 9.99868 41.2904 13.3996C39.5219 16.2903 38.6377 19.4871 38.6377 22.9898C38.6377 25.6084 39.1818 27.8528 40.2701 29.7234C41.4944 31.8659 43.2968 33.1584 45.7113 33.6685C46.3574 33.8046 46.9696 33.8726 47.5477 33.8726C50.8464 33.8726 53.499 32.1721 55.5395 28.7713C57.308 25.8466 58.1922 22.6497 58.1922 19.1471C58.1922 16.4944 57.6481 14.284 56.5598 12.4474ZM52.2409 21.8677C51.7647 24.1122 50.9145 25.7785 49.6562 26.901C48.67 27.7852 47.7518 28.1593 46.9016 27.9893C46.0854 27.8192 45.4052 27.1051 44.8951 25.7787C44.487 24.7245 44.2829 23.6702 44.2829 22.684C44.2829 21.8338 44.351 20.9836 44.521 20.2014C44.8271 18.8071 45.4052 17.4468 46.3234 16.1544C47.4457 14.488 48.636 13.8078 49.8604 14.0459C50.6766 14.2159 51.3567 14.9301 51.8668 16.2564C52.2749 17.3106 52.479 18.3649 52.479 19.3511C52.513 20.2353 52.4109 21.0855 52.2409 21.8677Z" fill="white"/>
</g>
<defs>
<clipPath id="clip0_704_1306">
<rect width="83.6601" height="50" fill="white"/>
</clipPath>
</defs>
</svg>
