<svg width="74" height="106" viewBox="0 0 74 106" fill="none" xmlns="http://www.w3.org/2000/svg">
<path d="M27.5258 53.677C27.5258 53.677 33.046 56.8596 33.0631 60.3413C33.0848 63.5946 27.2078 63.7349 27.2078 63.7349C27.2078 63.7349 36.5942 67.0132 37.5833 63.305C38.5724 59.5968 35.9308 55.0865 33.3664 54.6876C30.8019 54.2886 27.5258 53.677 27.5258 53.677Z" fill="#231F20"/>
<path d="M28.0537 55.9712C26.1229 55.1746 24.0529 54.7705 21.9644 54.7825C19.9917 54.778 18.0481 55.258 16.3043 56.1804L15.8809 56.4449L15.6922 56.5824C15.6922 56.5824 15.6789 56.6397 15.671 56.6741C15.5434 56.81 15.4285 56.9573 15.3279 57.1142C15.026 57.6547 14.7596 58.2144 14.5304 58.7896C13.4814 61.4869 12.7664 64.3025 12.4013 67.1734C11.9661 70.2398 11.7283 73.331 11.6893 76.4279C11.657 79.1961 11.8252 81.9631 12.1926 84.7071C12.4182 86.4497 12.7663 88.1844 13.0853 89.8883L13.325 91.1512L13.4298 92.5278C13.4826 93.3974 13.5495 94.2581 13.642 95.1127C13.7379 96.1612 12.9777 96.4204 11.6691 95.8646C10.8652 95.4802 10.1269 94.9715 9.48132 94.3572C9.08122 93.9983 8.71574 93.6026 8.3897 93.1753C8.21159 92.9531 8.08463 92.7185 7.90652 92.4962C7.80274 92.2397 7.71414 91.9773 7.64117 91.7104C6.70593 87.9811 6.10147 84.1765 5.83482 80.3409C5.59509 76.4956 5.75787 72.6358 6.32051 68.8244C6.66652 66.4892 6.92082 64.1329 7.32592 61.7509C7.5399 60.5093 7.8236 59.2807 8.17567 58.0709C8.59733 56.7386 9.19134 55.4671 9.94259 54.2888C10.4481 53.5397 11.0588 52.8674 11.756 52.2924L12.3558 51.8392L12.8585 51.5447C13.1847 51.3468 13.5238 51.1709 13.8736 51.0184C15.2115 50.39 16.6298 49.9495 18.0883 49.7093C20.8552 49.2845 23.6761 49.3632 26.415 49.9415C29.7567 50.5868 32.891 52.0358 35.5473 54.1634C38.1185 56.113 39.6473 59.1391 39.6911 62.3655C39.6752 62.7205 39.63 63.0736 39.556 63.4211C39.4766 63.765 39.3284 64.0931 39.226 64.4317C39.1237 64.7703 38.8141 65.0128 38.5936 65.2879L37.8042 65.9872L36.8835 66.5232C36.567 66.6746 36.2391 66.8008 35.9028 66.9005C35.3448 67.0706 34.7746 67.1973 34.1971 67.2795C32.2584 67.5011 30.2984 67.4548 28.3723 67.1421C27.4287 67.0449 26.5424 66.8041 25.6174 66.6267C24.6923 66.4493 23.7946 66.2058 22.9295 65.8732C22.0644 65.5406 21.3801 65.4188 20.6922 65.103C20.0044 64.7872 19.4233 64.5322 18.9621 64.2809C18.5897 64.0493 18.2481 63.7716 17.9454 63.4544C17.5051 63.013 17.2452 62.4235 17.2163 61.8008C17.1735 61.5408 17.1535 61.2776 17.1564 61.0141C17.2341 60.2592 18.6478 60.1509 20.6884 60.6221C23.5809 61.5619 26.55 62.2475 29.5617 62.6711C30.8931 62.8623 32.2444 62.8696 33.5778 62.6928C33.8565 62.6364 34.092 62.5579 34.3451 62.5077C34.5982 62.4574 34.5179 62.4389 34.532 62.4301C34.4289 62.4063 34.5135 62.5103 34.532 62.4301C34.5147 62.3511 34.4923 62.2734 34.465 62.1973C34.4207 62.0537 34.3686 61.9127 34.309 61.7748C34.1556 61.4979 34.0815 61.191 33.9308 60.9026C33.596 60.2371 33.1519 59.6325 32.617 59.1139C31.3286 57.7684 29.7606 56.7221 28.0237 56.0488L28.0537 55.9712Z" fill="#231F20"/>
<path d="M33.6652 16.9243C33.9431 16.3485 34.2183 15.7841 34.5191 15.2136L34.8252 14.6201C34.9313 14.3589 35.0545 14.105 35.1939 13.8599L36.0319 12.375C36.5559 11.3609 37.2342 10.5152 37.8084 9.59726L38.7963 8.50914L39.2831 7.96949L39.7753 7.56389C40.8294 6.56085 42.1515 5.8847 43.5818 5.61719C44.2611 5.47845 44.96 5.4639 45.6445 5.57425C46.0371 5.64062 46.4146 5.77688 46.7591 5.97654C47.0583 6.16198 47.336 6.38 47.5872 6.6266C48.2307 7.30887 48.7348 8.1103 49.0711 8.98585C49.4742 10.1335 49.6691 11.344 49.6465 12.5602C49.6343 13.8663 49.531 15.1699 49.3373 16.4616C49.1864 17.1151 49.1272 17.7897 48.9992 18.4485C48.8713 19.1072 48.6789 19.8356 48.6128 20.1222C48.2527 21.6814 47.8954 23.229 47.4119 24.7476C46.5419 27.7829 45.6085 30.7794 44.4802 33.731C43.5486 36.3536 42.6028 38.985 41.6871 41.5388C40.6136 44.9799 38.9488 48.2078 36.7675 51.0775C36.0214 51.9558 35.4835 51.409 35.2482 50.2316C34.8895 48.5941 34.9018 46.897 35.2841 45.2648C35.5347 44.4412 35.6732 43.5796 35.9811 42.7692L36.7558 40.3035L38.2468 35.3105C38.7391 33.6491 39.2473 31.9189 39.7176 30.3007C40.1878 28.6825 40.8442 26.9382 41.3859 25.3244C42.058 23.3118 42.5554 21.245 42.8727 19.147L43.0201 18.4565L43.1392 17.9406L43.2504 16.8312C43.2928 16.344 43.2334 15.8533 43.076 15.3902C43.0008 15.1688 42.7865 15.0252 42.5531 15.04C42.353 15.0613 42.1617 15.1335 41.9975 15.2498C41.2712 15.8219 40.6643 16.531 40.2114 17.337C40.1091 17.479 40.0146 17.6265 39.9282 17.7788L39.3911 18.6932C39.04 19.3246 38.6801 19.9419 38.3493 20.59C37.656 21.8669 37.0349 23.1967 36.4598 24.5371C34.6743 28.5965 33.1948 32.7837 32.0337 37.0637C31.2438 40.3482 30.7106 43.6891 30.4388 47.0562C30.3664 47.7881 30.3707 48.5016 30.2868 49.2309C30.15 50.197 29.8718 51.1377 29.461 52.0228C29.1403 52.5488 28.6823 52.9774 28.1362 53.2626C27.9097 53.4089 27.6737 53.54 27.4298 53.6549C27.047 53.796 26.7119 53.5737 26.3654 53.0348C25.8218 52.2779 25.4611 51.4051 25.3119 50.4851C25.073 48.8556 25.0489 47.2018 25.2403 45.566C25.3763 43.931 25.5661 42.2722 25.845 40.646C26.419 37.3586 27.2012 34.1109 28.1868 30.9226C28.9203 28.5481 29.7416 26.1939 30.6509 23.8599C31.1149 22.6871 31.5992 21.531 32.095 20.3776C32.5908 19.2241 33.0574 18.0398 33.5788 16.8802L33.6652 16.9243Z" fill="#231F20"/>
<path d="M61.655 30.1022C62.164 29.2054 62.6412 28.2892 63.0788 27.3879C63.5163 26.4867 63.9803 25.6278 64.3385 24.7566L64.4152 24.4241L64.4629 24.2177C64.4803 24.1655 64.4927 24.1118 64.4999 24.0572C64.5387 23.9458 64.5654 23.8305 64.5794 23.7133C64.6534 23.4464 64.6473 23.1637 64.5618 22.9002C64.5164 22.6958 64.3248 22.558 64.1165 22.58C63.9386 22.6471 63.7663 22.7285 63.6015 22.8234C63.4481 22.8959 63.3025 22.9836 63.1667 23.0852C63.073 23.1406 62.9853 23.2053 62.9047 23.2783L62.8174 23.3427L62.6551 23.5226L62.3049 23.8885C61.3868 24.884 60.5374 25.8954 59.5892 26.9686C57.7546 29.0566 55.9994 31.2717 54.3367 33.5565C52.8557 35.6296 51.604 37.7556 50.295 39.8685C49.4835 41.2388 48.7355 42.648 47.9584 44.0262L46.7852 46.0738C46.4262 46.7396 45.852 47.3436 45.4859 47.9353C45.2469 48.2907 45.0211 48.2748 44.7045 48.2862C44.3879 48.2976 44.0008 48.0392 43.6931 47.4368C43.3254 46.6953 43.0687 45.9036 42.9315 45.0874C42.8071 44.1418 42.9253 43.1801 43.2749 42.2927C43.9136 40.6772 44.6132 39.1119 45.3533 37.5802C46.0537 36.0301 46.8822 34.5411 47.8302 33.1288C49.7053 30.2728 51.7925 27.5619 54.0741 25.0189C54.7683 24.2614 55.4475 23.4643 56.1151 22.6645L58.2814 20.2908L58.979 19.7273C59.2621 19.4425 59.5338 19.1551 59.854 18.8667C60.4714 18.2848 61.1011 17.7539 61.7255 17.2461C62.827 16.3334 64.1541 15.7346 65.5673 15.5128C66.3097 15.4242 67.0597 15.5974 67.6881 16.0025C67.9809 16.2512 68.2763 16.4885 68.5664 16.7487L69.315 17.5857C70.1373 18.9611 70.5472 20.5436 70.4961 22.1452C70.4856 23.0156 70.3826 23.8823 70.1889 24.7309C70.1327 25.1197 70.0442 25.5032 69.9242 25.8773C69.8527 26.1868 69.7786 26.5078 69.6436 26.7785C69.2623 27.9128 68.7937 29.0157 68.2419 30.0775C66.8941 32.6063 65.3832 35.0447 63.7186 37.3772C61.2762 40.8947 58.5295 44.1608 55.894 47.4164C53.8248 49.9454 51.9222 52.537 49.7921 55.0157C49.3167 55.558 48.873 56.1197 48.3544 56.6399C47.7219 57.3899 46.9276 57.9868 46.0313 58.3858C45.4093 58.5282 44.7572 58.4502 44.1864 58.165C43.9264 58.0709 43.6743 57.9561 43.4325 57.8219C43.0886 57.5855 43.0154 57.1701 43.124 56.5431C43.2312 55.767 43.5588 55.038 44.0679 54.4426L49.3301 47.7603C51.0695 45.4571 52.8195 43.108 54.5721 40.7474C57.1275 37.2959 59.4478 33.6764 61.5175 29.9135L61.655 30.1022Z" fill="#231F20"/>
<path d="M43.6753 81.4002C40.7238 83.7758 37.5859 85.9103 34.2921 87.7829C33.1033 88.543 31.8589 89.2123 30.5694 89.7851C29.3487 90.3101 28.0727 90.696 26.7657 90.9355C26.0345 91.0696 25.29 91.1165 24.5477 91.0754C23.6642 91.0372 22.8025 90.7886 22.0344 90.3502L21.4339 89.97C21.2628 89.8218 21.0971 89.6507 20.9401 89.4937C20.6132 89.1641 20.3422 88.7834 20.1378 88.3666C19.9367 87.9513 19.7906 87.5117 19.7032 87.0587C19.6458 86.6527 19.6193 86.2429 19.624 85.8328C19.7397 84.4139 20.2172 83.0482 21.0108 81.8663C22.1878 80.0205 23.6146 78.3466 25.2507 76.8921C27.2143 75.0254 29.5179 73.5528 32.0365 72.5542C32.8302 72.2544 33.0445 72.8956 32.8106 73.8559C32.4878 75.081 31.8132 76.1846 30.8701 77.0305C30.3691 77.422 29.929 77.8637 29.4598 78.2746C29.2181 78.4845 28.9994 78.6996 28.7921 78.9174L28.098 79.5179C27.2422 80.3156 26.4432 81.1721 25.7068 82.0812C25.0039 82.8672 24.4242 83.7553 23.9877 84.7152C23.8221 85.0738 23.7024 85.4519 23.6312 85.8404C23.6303 86.1059 23.58 86.3237 23.6567 86.4622C23.7334 86.6006 23.6955 86.5556 23.7308 86.6121C23.7478 86.6694 23.791 86.7152 23.8472 86.7356C23.8472 86.7356 23.9001 86.8202 23.9803 86.8388C24.059 86.8445 24.1364 86.8623 24.2096 86.8917C24.7505 86.9511 25.2979 86.8965 25.8164 86.7314C27.191 86.2926 28.5089 85.6931 29.7428 84.9452C32.7225 83.2264 35.5137 81.1997 38.0704 78.8984C39.6873 77.482 41.221 75.9735 42.6639 74.3802C43.7382 73.1792 44.8151 71.9668 45.751 70.6855C45.9935 70.3672 46.2043 70.0294 46.424 69.7058C46.5325 69.5497 46.6436 69.3822 46.7433 69.212L46.9788 68.8196C47.2295 68.4157 47.4343 67.9851 47.5892 67.5357C47.9079 66.9229 47.7801 66.173 47.2764 65.7004C46.7747 65.2585 45.9404 65.5247 45.4535 65.7504C45.2101 65.8633 44.9879 66.0414 44.8124 66.1216C44.6807 66.1946 44.5303 66.2271 44.3802 66.215C44.3802 66.215 44.0822 66.1462 43.9446 66.1145C43.7729 66.0929 43.6039 66.0539 43.4402 65.998C43.127 65.8931 42.8412 65.7199 42.6033 65.4908C42.3449 65.1878 42.1259 64.8532 41.9517 64.495C41.783 64.1929 41.6462 63.8739 41.5436 63.5434C41.4605 62.9914 41.516 62.4274 41.7052 61.9023C41.7754 61.5866 41.9099 61.2888 42.1004 61.0275C42.2004 60.8917 42.3107 60.7638 42.4302 60.6448L42.6181 60.4587L42.7248 60.3626C42.7487 60.2595 42.7487 60.2595 42.7513 60.248L42.8642 60.1775C43.7919 59.7051 44.747 59.2885 45.7243 58.93C46.6592 58.5956 47.6495 58.4431 48.6417 58.4806C49.0931 58.5152 49.5405 58.5902 49.9786 58.7048L50.6435 58.8583L51.2422 59.1415C52.0694 59.5628 52.8053 60.143 53.4079 60.8491L54.1177 62.2205C54.3388 62.6658 54.5017 63.1377 54.6025 63.6245C54.6942 64.1166 54.695 64.6361 54.7558 65.1573C54.8165 65.6785 54.6498 66.2438 54.5968 66.787C54.5438 67.3302 54.3321 67.9334 54.1451 68.4819C53.9348 69.0507 53.6784 69.6013 53.3785 70.1283C53.1176 70.7036 52.8158 71.2594 52.4752 71.7914L52.0871 72.4263C51.9901 72.585 51.893 72.7438 51.7872 72.8884C49.5208 76.1119 46.8205 79.0073 43.7626 81.4928L43.6753 81.4002Z" fill="#231F20"/>
<path d="M48.5887 86.7088C46.4666 88.46 44.228 90.0652 41.8884 91.5133C41.0126 92.0114 40.2127 92.5995 39.2928 93.0271C37.6665 93.7906 35.982 94.4232 34.2552 94.919C33.3568 95.177 32.4407 95.3691 31.5142 95.4936C30.5266 95.6479 29.5207 95.6439 28.5343 95.4818C27.5645 95.2952 26.6619 94.8534 25.9197 94.2018C25.047 93.5091 24.5349 92.4585 24.5267 91.3443C24.5725 90.6209 24.8211 89.925 25.244 89.3363C25.5925 88.8436 26.0301 88.4204 26.5343 88.0886C27.3594 87.4987 28.2788 87.0535 29.2534 86.7723C29.8557 86.6216 30.0188 87.1182 29.8873 87.8968C29.731 88.8268 29.3941 89.7172 28.8957 90.5177C28.6946 90.7805 28.5236 91.0651 28.3859 91.366C28.3594 91.4806 28.3859 91.366 28.37 91.4348C28.37 91.4348 28.3012 91.4189 28.5216 91.6147C28.8527 91.9145 29.2822 92.0825 29.7289 92.0867C30.0802 92.1265 30.4352 92.1191 30.7845 92.0648C31.1708 91.9607 31.5553 91.9167 31.961 91.7809C34.0102 91.0316 35.9052 89.9141 37.5526 88.4834C39.5035 86.9898 41.5673 85.5826 43.4407 83.9019C44.5991 82.896 45.6976 81.8231 46.7305 80.6888C48.304 79.091 49.5938 77.2367 50.5445 75.2057C50.8362 74.5699 50.9202 73.8584 50.7847 73.1721C50.7744 73.0662 50.7295 72.9667 50.6568 72.889C50.6159 72.8372 50.5444 72.8207 50.4849 72.8493L50.7847 72.7012L50.9461 72.6298C51.0264 72.6483 51.1719 72.4887 51.2257 72.4649C51.2851 72.4277 51.3398 72.3836 51.3889 72.3335C51.5406 72.1995 51.418 72.2074 51.3412 72.5399C51.2659 72.7593 51.2136 72.986 51.185 73.2163C51.1506 73.3653 51.1162 73.5143 51.0818 73.6634L51.0633 73.7436L50.7978 73.7427C50.2876 73.759 49.7819 73.6422 49.3304 73.4039C48.8865 73.0515 48.5514 72.5806 48.364 72.0456C48.2388 71.7511 48.0969 71.4768 48.0035 71.2016C47.8652 70.7378 47.8988 70.2396 48.098 69.7985C48.305 69.2484 48.68 68.7773 49.1697 68.452C49.6387 68.0959 50.1564 67.8088 50.7069 67.5995C51.8298 67.1893 53.0796 67.3261 54.0871 67.9694C54.7909 68.3605 55.3917 68.9131 55.8401 69.5818C55.9436 69.7264 56.0317 69.8675 56.1046 70.0051C56.1813 70.1436 56.2289 70.2512 56.2854 70.3729L56.5842 71.1181C56.7393 71.5787 56.8398 72.0558 56.8839 72.5397C56.947 72.9433 56.9659 73.3526 56.9402 73.7603C56.863 75.0876 56.538 76.3887 55.9819 77.5964C55.549 78.5843 55.0273 79.5308 54.4232 80.4244C52.74 82.7746 50.7785 84.9126 48.5817 86.7917L48.5887 86.7088Z" fill="#231F20"/>
</svg>
