<svg width="16" height="16" viewBox="0 0 16 16" fill="none" xmlns="http://www.w3.org/2000/svg">
<path d="M11.7617 8.08691C11.7617 8.29785 11.6797 8.47363 11.5156 8.61426C11.375 8.75488 11.1992 8.8252 10.9883 8.8252H3.5L0.511719 11.8486V1.33691C0.511719 1.12598 0.582031 0.950195 0.722656 0.80957C0.863281 0.668945 1.03906 0.598633 1.25 0.598633H10.9883C11.1992 0.598633 11.375 0.668945 11.5156 0.80957C11.6797 0.950195 11.7617 1.12598 11.7617 1.33691V8.08691ZM14.75 3.58691C14.9609 3.58691 15.1367 3.65723 15.2773 3.79785C15.418 3.93848 15.4883 4.11426 15.4883 4.3252V15.5752L12.5 12.5869H4.23828C4.02734 12.5869 3.85156 12.5166 3.71094 12.376C3.57031 12.2354 3.5 12.0596 3.5 11.8486V10.3369H13.2383V3.58691H14.75Z" fill="#FAFBFF"/>
</svg>
