<svg width="54" height="54" viewBox="0 0 54 54" fill="none" xmlns="http://www.w3.org/2000/svg">
<rect width="54" height="54" fill="white"/>
<path d="M16.4187 38.2316C16.4187 38.078 17.4299 42.9963 19.1717 39.7298C19.7011 38.7451 17.9593 43.9651 17.9593 43.9651C17.9593 43.9651 16.244 41.2545 16.4187 38.2316Z" fill="#231F20"/>
<path d="M39.6414 20.0474L36.9626 22.5251C36.6396 22.8268 36.3379 23.1498 36.0096 23.4463L32.5102 26.5645C31.9808 27.0198 31.4885 27.5068 30.9802 27.9727C30.6636 28.2857 30.3315 28.5826 29.9849 28.8621C29.8049 28.9945 29.6196 29.1163 29.4555 29.238C29.2914 29.3598 29.0532 29.4604 28.8573 29.5716C28.6614 29.6827 28.5926 29.5716 28.6985 29.3492C28.8662 28.9782 29.0683 28.6237 29.302 28.2904C29.8844 27.6286 30.5673 27.0516 31.2026 26.4216C31.8379 25.7916 32.5049 25.1933 33.1879 24.6004C33.9979 23.8857 34.7444 23.0386 35.5173 22.2498L38.0744 19.6451C38.6038 19.1157 39.1332 18.5863 39.6308 18.0568C40.4038 17.231 41.2191 16.4157 41.9179 15.5527C42.4551 14.8768 42.9518 14.1697 43.4055 13.4351C43.5061 13.2763 43.5961 13.1121 43.702 12.9586C43.882 12.6833 44.0196 12.5139 44.1996 12.4292C44.393 12.4328 44.5859 12.4505 44.7767 12.4821C44.8879 12.4821 45.0044 12.4821 45.0996 12.4821C45.1949 12.4821 45.3696 12.588 45.4438 12.8104C45.4804 12.9466 45.4912 13.0884 45.4755 13.2286C45.4633 13.3647 45.4217 13.4965 45.3538 13.6151C44.534 15.046 43.5143 16.3527 42.3255 17.4957C41.4679 18.3745 40.5732 19.2216 39.6785 20.0792L39.6414 20.0474Z" fill="#231F20"/>
<path d="M30.751 35.25C31.4233 35.393 32.0798 35.5783 32.731 35.7794C32.9692 35.8483 33.2127 35.9012 33.451 35.9859C34.2707 36.2948 35.0654 36.6665 35.828 37.0977C36.1669 37.2936 36.5163 37.463 36.8551 37.6271C37.0808 37.7428 37.2953 37.8793 37.4957 38.0347C37.6799 38.2198 37.8367 38.4301 37.9616 38.6594C38.041 38.8024 37.9139 38.8924 37.6863 38.9506C37.4193 39.0249 37.1399 39.0429 36.8657 39.0036C36.7564 38.9797 36.6535 38.9328 36.5639 38.8659L36.2886 38.6859L35.701 38.3418L34.4939 37.6536C33.9731 37.3978 33.424 37.2042 32.858 37.0765C32.2439 36.8912 31.6192 36.7377 30.9892 36.6C30.5974 36.5259 30.2057 36.4518 29.8086 36.3989L28.9086 36.2983C28.6069 36.2983 28.3051 36.2612 28.0033 36.2612C27.5383 36.2933 27.0764 36.3606 26.6216 36.4624C26.521 36.4624 26.4204 36.5153 26.3198 36.5312C25.9439 36.5312 25.7904 36.4465 25.711 36.0759C25.711 35.9965 25.658 35.9224 25.6421 35.8536C25.5967 35.5789 25.752 35.3105 26.0127 35.213C26.4317 35.0395 26.8779 34.941 27.331 34.9218C27.7891 34.8874 28.2493 34.8874 28.7074 34.9218C29.395 34.972 30.0791 35.0622 30.7563 35.1918L30.751 35.25Z" fill="#231F20"/>
<path d="M34.503 26.0235L27.5359 31.487C26.6889 32.1541 25.8842 32.8582 25.0318 33.52C24.2597 34.0596 23.5496 34.6828 22.9142 35.3782C22.7494 35.5512 22.5725 35.7122 22.3848 35.86C22.3265 35.9129 22.3159 35.9182 22.3 35.9235C22.2817 35.9388 22.2657 35.9566 22.2524 35.9765C22.1995 36.0453 22.1359 36.1194 22.083 36.1988C21.8553 36.5165 21.6806 36.9082 21.4583 37.2576C21.0219 38.0561 20.6416 38.884 20.32 39.7353L20.193 40.0582L20.0448 40.4712L19.6583 41.4823C19.4253 42.1335 19.2136 42.7847 18.9859 43.277C18.8299 43.6171 18.6306 43.9356 18.393 44.2247C18.3046 44.3506 18.1786 44.4451 18.033 44.4947H17.9483C17.9483 44.5635 17.9483 44.4947 17.9483 44.5317H17.9059C17.8553 44.5155 17.8058 44.4961 17.7577 44.4735C17.6616 44.426 17.5725 44.3654 17.493 44.2935C17.4083 44.2247 17.3395 44.1559 17.2653 44.0923C17.1959 44.0128 17.1305 43.9297 17.0695 43.8435C16.9451 43.6757 16.8336 43.4987 16.7359 43.3141C16.6166 43.1148 16.5105 42.9079 16.4183 42.6947C16.3406 42.4582 16.2559 42.22 16.1642 41.98C16.0583 41.657 15.9948 41.2706 15.8889 40.9212L15.7512 40.3388C15.6983 40.1588 15.6612 39.8994 15.6348 39.8094L15.4812 39.0047C15.4159 38.7408 15.3752 38.4714 15.3595 38.2L15.243 36.6541C15.2184 36.4114 15.2096 36.1674 15.2165 35.9235C15.2148 35.716 15.1971 35.5089 15.1636 35.3041C15.1636 35.1929 15.1636 35.14 15.1636 35.0712C15.165 34.9936 15.193 34.9188 15.243 34.8594C15.4478 34.6579 15.7656 34.627 16.0053 34.7853C16.488 35.0453 16.9087 35.4065 17.2389 35.8441C17.6227 36.3416 17.8855 36.9216 18.0065 37.5382C18.0542 37.8135 18.1177 38.0676 18.1389 38.3641V39.587C18.1389 39.6823 18.1389 39.6559 18.1389 39.6559C18.1168 39.7083 18.1168 39.7675 18.1389 39.82C18.1706 39.8888 18.1918 39.8888 18.2606 39.82L18.3189 39.7406C18.3189 39.7406 18.3189 39.7406 18.3453 39.677L18.3771 39.5765L18.5042 39.1741C18.6842 38.6447 18.8748 38.1153 19.0971 37.5859C19.2295 37.2629 19.3671 36.94 19.5153 36.617C19.5948 36.4529 19.6689 36.2888 19.7536 36.1247C19.8383 35.9606 19.9442 35.807 20.0448 35.6482C20.2631 35.3117 20.5055 34.9915 20.77 34.69C20.8667 34.5953 20.9692 34.5069 21.0771 34.4253L21.273 34.2717C21.404 34.164 21.542 34.065 21.6859 33.9753C21.9718 33.79 22.2736 33.6206 22.5436 33.4459L23.3006 32.6994L24.8095 31.3494L31.4483 25.4835L33.4971 23.6729C34.1853 23.08 34.8736 22.487 35.5565 21.8835C37.6265 20.0623 39.7018 18.2306 41.6659 16.3247C42.423 15.5782 43.143 14.8106 43.8471 14.0323C44.5512 13.2541 45.2289 12.4441 45.9171 11.6765C46.2136 11.3217 46.5312 11.0041 46.8595 10.6812C47.284 10.2392 47.7645 9.85479 48.2889 9.53763C48.4528 9.44361 48.632 9.3791 48.8183 9.34704C48.9943 9.32963 49.1716 9.32963 49.3477 9.34704C49.4906 9.34704 49.6442 9.34704 49.7447 9.34704C50.0253 9.37351 50.0042 10.2947 49.2948 11.4065C49.0406 11.83 48.7653 12.2217 48.49 12.6294L48.0718 13.2382C47.9289 13.4394 47.7647 13.6194 47.6112 13.81C46.9336 14.5688 46.2559 15.3065 45.5783 16.0229C44.89 16.7323 44.1806 17.4312 43.4606 18.1406L41.3006 20.1841C39.0983 22.1853 36.8553 24.1459 34.5718 26.0659L34.503 26.0235Z" fill="#231F20"/>
<path d="M37.2847 19.0137C35.5199 20.0725 33.7552 21.1314 31.9905 22.1902C31.3499 22.5819 30.7464 23.0266 30.1058 23.4131L23.3347 27.5055C22.3235 28.1037 21.3441 28.7602 20.3805 29.4114C19.144 30.2549 17.8549 31.0188 16.5211 31.6984C16.1029 31.9049 16.0447 31.7302 16.2247 31.3066C16.5137 30.6547 16.9192 30.0609 17.4211 29.5543L18.2629 28.7761L18.6864 28.379L19.1417 28.0296C19.7488 27.5637 20.3629 27.1084 20.9841 26.6637C21.6088 26.219 22.2282 25.769 22.8847 25.3666C23.5411 24.9643 24.2029 24.5408 24.8911 24.1861C26.5058 23.2861 28.0358 22.1266 29.6135 21.0996C31.3499 19.9719 33.1076 18.8708 34.8547 17.7643L38.0947 15.7261C39.7199 14.6672 41.377 13.6825 42.9652 12.6025C44.1988 11.7661 45.3688 10.8766 46.5864 10.0349C46.8564 9.84959 47.1158 9.65371 47.3911 9.50547C48.4499 8.86489 48.9794 8.91253 49.4029 9.209C49.5084 9.27032 49.6093 9.33933 49.7047 9.41547C49.8423 9.54783 49.8317 9.73841 49.7047 9.98724C49.5577 10.3161 49.3451 10.6116 49.0799 10.8555C48.6088 11.3372 48.0847 11.729 47.5711 12.1737C47.0576 12.6184 46.5123 13.0261 45.9829 13.4496C44.8956 14.2997 43.7589 15.0846 42.5788 15.8002C40.8423 16.9119 39.0635 17.9814 37.2847 19.0825V19.0137Z" fill="#231F20"/>
<path d="M33.648 37.1457C32.9834 36.9112 32.3043 36.7202 31.615 36.5739C31.3609 36.5104 31.0856 36.5368 30.8421 36.4839C30.3921 36.3833 29.9368 36.3462 29.4709 36.2774C29.0054 36.2204 28.5369 36.1904 28.068 36.1874C27.6536 36.19 27.2411 36.2434 26.8397 36.3462C26.3395 36.5227 25.8137 36.6157 25.2833 36.6215C25.1085 36.6215 25.0185 36.1715 25.0556 35.7215C25.0927 35.2715 25.2727 34.8057 25.585 34.721C26.7438 34.4311 27.9508 34.3896 29.1268 34.5992C29.8309 34.721 30.5668 34.6627 31.2815 34.7633C32.0656 34.8775 32.8393 35.0545 33.595 35.2927C34.0609 35.4462 34.5215 35.5945 34.9715 35.7692C35.6597 36.018 36.3109 36.3568 36.978 36.648C37.5102 36.8478 38.0284 37.083 38.5291 37.3521C38.6297 37.4262 38.7409 37.4898 38.8362 37.5745C39.1803 37.908 39.2174 38.1039 39.0691 38.4215C39.0434 38.4904 39.0133 38.5576 38.9791 38.6227C38.7998 38.8365 38.5077 38.9185 38.2433 38.8292C38.005 38.7762 37.7456 38.7498 37.5074 38.7074C37.2813 38.6603 37.0624 38.5837 36.8562 38.4798L35.5856 37.9504C34.9441 37.6728 34.2864 37.4341 33.6162 37.2357L33.648 37.1457Z" fill="#231F20"/>
<path d="M45.5006 20.9888C45.2253 21.6082 44.9712 22.2382 44.7012 22.8682C44.4312 23.4982 44.1718 24.1229 43.9177 24.7635C43.7324 25.2241 43.6106 25.7111 43.4306 26.177C42.7953 27.8182 42.1918 29.4805 41.7047 31.1694C41.5036 31.9529 41.3024 32.6835 41.1436 33.4405C41.0483 33.9223 40.9636 34.4094 40.8895 34.8911C40.7798 35.3557 40.695 35.8258 40.6353 36.2994C40.6353 36.5323 40.5083 36.6223 40.2436 36.3735C39.9045 35.9682 39.6894 35.4737 39.6242 34.9494C39.5992 33.8874 39.6593 32.8252 39.8042 31.7729C40.0026 30.7442 40.2842 29.7332 40.6459 28.7499C41.0747 27.5641 41.3183 26.2882 41.7047 25.0441C42.1336 23.7046 42.5836 22.397 43.1236 21.0682C43.4465 20.2688 43.7906 19.4799 44.1295 18.6752C44.6589 17.4682 45.2306 16.2823 45.7759 15.0964C45.9983 14.6358 46.1836 14.1646 46.3847 13.6935C46.5678 13.2133 46.7873 12.7479 47.0412 12.3011C47.1577 12.1052 47.2477 11.8988 47.3853 11.7082C47.883 11.0041 48.2112 10.8823 48.7142 11.0782C48.8322 11.1153 48.9472 11.1613 49.0583 11.2158C49.4077 11.4223 49.4553 11.8829 49.2489 12.407C48.9365 13.1958 48.7195 14.0429 48.3012 14.8211L47.1789 17.2564C46.6495 18.4846 46.0618 19.7288 45.5589 20.9994L45.5006 20.9888Z" fill="#231F20"/>
<path d="M28.3058 20.9474L20.0469 24.3356C19.0411 24.7486 18.0722 25.2303 17.0664 25.6433L11.7722 27.8244L11.1264 28.0997L10.7981 28.248L10.5387 28.3644L9.96165 28.5868C9.56459 28.7509 9.11988 28.9362 8.654 29.1533C8.54812 29.2009 8.44753 29.2486 8.35224 29.3015C8.30159 29.3258 8.25513 29.3579 8.21459 29.3968C8.24635 29.3968 8.30459 29.3968 8.35224 29.3968L8.96106 29.4392C9.38459 29.4656 9.81871 29.4921 10.2105 29.5344C10.3375 29.5344 10.4646 29.5609 10.5864 29.5821C10.6234 29.5821 10.6287 29.5821 10.6975 29.5821L10.9093 29.6297L11.3275 29.725C11.8926 29.859 12.4466 30.036 12.9846 30.2544C13.5506 30.4801 14.0846 30.7792 14.5728 31.1439C15.0868 31.5461 15.479 32.0831 15.7058 32.695C15.8487 33.0762 15.7852 33.2774 15.6687 33.3144C15.5522 33.3515 15.3299 33.2456 15.0122 33.1344C14.6113 33.0113 14.1926 32.9558 13.7734 32.9703C13.3013 32.9253 12.8348 32.833 12.3811 32.695C11.9265 32.5535 11.4632 32.4421 10.994 32.3615C10.7505 32.3192 10.5069 32.2768 10.2581 32.245L10.0675 32.2133L9.65459 32.155C9.36871 32.155 9.06694 32.1233 8.77047 32.1074L7.89694 32.0015L6.99165 31.9115L6.05459 31.8374L5.58341 31.8056C5.44063 31.8005 5.29873 31.781 5.15988 31.7474C4.78975 31.674 4.43957 31.5224 4.13283 31.3027C3.95568 31.1989 3.82356 31.0328 3.76224 30.8368C3.72676 30.7112 3.71069 30.5808 3.71459 30.4503C3.72312 30.3765 3.72312 30.3018 3.71459 30.228C3.70386 30.156 3.70386 30.0829 3.71459 30.0109C3.76862 29.609 3.95488 29.2365 4.244 28.9521C4.5279 28.6493 4.86534 28.4016 5.2393 28.2215L5.40871 28.1315L5.69459 28.0574C5.87459 28.0097 6.08635 27.9621 6.224 27.9144L6.99694 27.5862L8.48459 26.9721L9.20459 26.7074L9.53812 26.5697L9.69165 26.5115L9.78694 26.4744C12.2752 25.4897 14.7316 24.198 17.1987 23.0756L25.4522 19.4068L30.4975 17.1303C33.0281 15.9656 35.6169 14.8962 38.0999 13.668C39.0634 13.1968 40.0005 12.6886 40.9269 12.1697L43.7275 10.698C44.1405 10.4809 44.5322 10.2533 44.9505 10.0415C45.3687 9.82974 45.6546 9.69209 45.9246 9.57033C46.1585 9.48049 46.3993 9.40967 46.6446 9.35856C46.9511 9.28738 47.2698 9.28738 47.5764 9.35856C47.6955 9.38054 47.8156 9.39644 47.9364 9.40621C48.1164 9.43268 48.1058 9.67092 47.9046 10.0044C47.6103 10.4547 47.2538 10.8611 46.8458 11.2115C45.2575 12.4027 43.6269 13.5039 41.9222 14.5627C40.1752 15.5315 38.3752 16.4368 36.5593 17.3262C35.2093 17.9774 33.8911 18.6392 32.4828 19.248L28.3375 21.0162L28.3058 20.9474Z" fill="#231F20"/>
</svg>
