<svg width="24" height="24" viewBox="0 0 24 24" fill="none" xmlns="http://www.w3.org/2000/svg">
<g clip-path="url(#clip0_64_1656)">
<path d="M11.1127 3.76209C11.4121 2.84083 12.7155 2.84082 13.0148 3.76209L14.3973 8.01617C14.5311 8.42817 14.9151 8.70711 15.3483 8.70712L19.8213 8.70729C20.79 8.70733 21.1928 9.94688 20.4091 10.5163L16.7904 13.1456C16.44 13.4003 16.2933 13.8516 16.4272 14.2636L17.8093 18.5178C18.1086 19.4391 17.0541 20.2052 16.2704 19.6358L12.6515 17.0067C12.3011 16.7521 11.8265 16.7521 11.476 17.0068L7.85715 19.6358C7.07345 20.2052 6.01902 19.4391 6.31833 18.5178L7.70042 14.2636C7.83427 13.8516 7.68762 13.4003 7.33717 13.1456L3.71848 10.5163C2.93482 9.94688 3.33757 8.70733 4.30626 8.70729L8.77933 8.70712C9.21253 8.70711 9.59645 8.42817 9.73033 8.01618L11.1127 3.76209Z" fill="#FDE97E"/>
</g>
<defs>
<clipPath id="clip0_64_1656">
<rect width="22.7848" height="22.7848" fill="white" transform="translate(0.671387 0.835449)"/>
</clipPath>
</defs>
</svg>
