<svg width="64" height="86" viewBox="0 0 64 86" fill="none" xmlns="http://www.w3.org/2000/svg">
<path d="M-16 54.6028C-15.8737 23.5878 9.31375 -0.92093 38.8439 0.0265736C46.0922 0.263449 52.6614 2.56904 58.141 7.35393C63.7154 12.2336 64.7419 18.9608 61.3151 25.2301C59.7991 28.0095 58.141 28.7991 55.7091 26.304C51.8559 22.3561 47.2608 21.8349 42.2391 23.4773C24.6315 29.2728 11.1771 38.9847 11.335 63.4619C11.3508 66.1781 11.0982 68.8942 10.8297 71.6104C10.4034 76.0953 9.09256 80.2643 4.38669 81.8908C-0.698174 83.6595 -4.93018 81.5276 -8.32535 77.8008C-14.642 70.8682 -15.5105 62.1512 -16 54.6028Z" fill="#FFD910"/>
<path d="M43.5496 43.8486C49.2503 44.4487 54.7774 44.8593 58.3463 49.8495C59.8149 51.9024 60.257 53.071 56.9092 54.7765C49.724 58.456 43.9761 64.062 41.0862 72.0211C40.1703 74.5636 39.4122 77.2482 38.0226 79.538C33.0482 87.7339 23.4943 87.6865 18.6463 79.3958C14.051 71.5473 14.7459 63.6357 19.9255 56.3873C25.6894 48.3177 34.0115 44.6066 43.5496 43.8486Z" fill="#FD28E8"/>
</svg>
