<svg width="225" height="84" viewBox="0 0 225 84" fill="none" xmlns="http://www.w3.org/2000/svg">
<path d="M107.707 37.8669C110.171 33.998 112.224 30.7607 114.277 27.5392C115.587 25.4862 116.819 23.3701 118.209 21.3804C126.989 8.74701 136.606 5.60448 150.96 10.9736C156.598 13.0897 161.967 15.8691 167.51 18.2063C181.596 24.1755 194.324 19.7696 201.035 5.99925C208.331 -8.9713 211.094 -24.9051 207.62 -41.3127C200.198 -76.4493 178.959 -100.926 147.534 -117.145C141.296 -120.366 134.742 -122.987 128.489 -126.177C125.71 -127.599 123.167 -129.573 120.751 -131.594C115.871 -135.652 115.903 -141.322 121.541 -144.212C125.962 -146.47 131.41 -148.317 136.227 -147.954C185.338 -144.338 223.38 -115.771 232.081 -69.0114C237.071 -42.1655 234.576 -15.8407 224.912 9.69453C218.548 26.5285 207.257 38.3249 189.428 43.1098C179.938 45.6523 170.573 44.6416 161.477 41.5306C154.719 39.2092 148.102 36.3667 141.58 33.3979C138.564 32.024 136.779 32.5609 135.232 35.2771C132.279 40.52 129.421 45.8418 126.231 50.9425C114.94 69.0714 101.233 70.1294 87.1782 53.9903C83.2461 49.4738 79.5352 44.7679 75.2399 39.5882C73.0449 42.9519 71.0867 45.8733 69.2233 48.858C62.3066 59.9438 54.0952 69.8294 42.7253 76.604C38.8248 78.9412 34.6398 81.0731 30.313 82.3838C20.5222 85.3526 11.5053 81.7679 6.26251 72.9561C-0.559422 61.4756 -1.57012 49.1422 2.07772 36.4299C3.40421 31.7871 6.53098 29.4657 10.4157 29.7658C14.8847 30.0974 16.8744 33.161 17.743 37.0458C19.1642 43.3309 20.1434 49.7265 21.7699 55.9642C23.1595 61.3018 24.1859 61.5229 28.8128 58.5541C35.8559 54.0376 41.0038 47.7526 45.3465 40.7095C49.1049 34.6139 52.5632 28.2814 56.7637 22.4858C69.618 4.73592 84.4306 4.75172 97.3955 22.3753C100.885 27.1128 103.917 32.1503 107.707 37.8669Z" fill="#7B61FF"/>
</svg>
