<svg width="105" height="144" viewBox="0 0 105 144" fill="none" xmlns="http://www.w3.org/2000/svg">
<path d="M-69.8843 82.4469C-68.8043 81.0069 -68.841 79.7314 -69.3997 78.2315C-71.6989 71.9286 -72.0677 65.3611 -71.6755 58.7332C-71.1033 48.8244 -68.4451 39.4016 -64.7967 30.2205C-60.8783 20.3587 -55.7497 11.1923 -48.8813 3.06433C-42.5338 -4.44101 -35.0651 -10.6869 -26.9693 -16.188C-17.6155 -22.5401 -7.7058 -27.8866 2.84373 -31.9809C9.19255 -34.4395 15.7261 -36.2729 22.5675 -36.6642C30.2987 -37.1099 37.7192 -35.8926 44.4591 -31.9453C46.5393 -30.7308 48.5058 -29.2025 50.2391 -27.5179C53.6758 -24.1882 54.7764 -20.0377 53.724 -15.3707C52.5973 -10.4198 49.9795 -6.26157 46.5481 -2.60304C40.9798 3.33873 34.0813 7.14538 26.2758 9.07491C23.3887 9.79662 22.1824 11.0429 22.1783 13.9008C22.1868 15.4665 21.8558 17.021 21.6511 18.7692C30.392 19.7088 37.6132 23.6633 44.2394 29.7241C44.3626 28.7411 44.4645 28.0846 44.4971 27.4185C44.8531 22.5973 45.6316 17.8692 47.1459 13.2655C48.6407 8.71803 50.6612 4.45433 54.1103 1.00997C57.8315 -2.70294 62.3456 -4.90729 67.5238 -5.60895C76.6452 -6.8405 84.6366 -4.29792 91.3366 1.99658C97.8478 8.12404 101.75 15.7759 103.271 24.4895C105.998 40.1912 104.106 55.342 97.0806 69.7537C92.1679 79.832 84.457 86.9857 74.1796 91.4114C63.3661 96.0576 52.0713 98.2969 40.3119 98.1786C39.5834 98.1728 38.8779 98.1702 37.9383 98.159C38.0638 98.7879 38.1887 99.3344 38.2906 99.8777C38.9081 103.092 36.9651 105.248 33.7321 104.805C32.4389 104.628 31.1674 104.206 29.9548 103.699C25.5373 101.858 21.6523 99.1376 17.8556 96.2879C16.0218 94.9072 14.3383 93.2883 11.9883 92.7543C11.6913 92.6901 11.3811 92.6358 10.7639 92.5041C11.1293 93.6129 11.3779 94.4587 11.6858 95.3008C14.7271 103.482 17.0869 111.828 18.2255 120.501C18.5799 123.232 18.7633 126.009 18.7487 128.772C18.7377 132.193 17.6138 135.239 15.059 137.653C12.8027 139.779 10.0424 140.777 7.01763 141.044C3.14615 141.396 -0.612122 140.751 -4.26169 139.486C-10.3817 137.365 -15.8488 134.086 -20.5443 129.643C-21.6907 128.568 -22.5914 128.445 -23.9996 128.934C-30.2805 131.155 -36.7692 132.147 -43.4417 131.479C-50.3714 130.8 -56.6413 128.399 -61.9671 123.834C-68.0282 118.627 -70.9862 111.81 -71.9881 104.027C-72.5979 99.2143 -72.456 94.4107 -71.5327 89.6555C-71.2763 88.3025 -71.5842 87.4604 -72.5944 86.5925C-75.8704 83.7201 -79.1069 80.8178 -82.9295 78.6704C-84.5795 77.7501 -86.3771 76.9625 -88.196 76.5014C-91.4344 75.6692 -93.6917 77.0302 -94.8645 80.1749C-95.5696 82.0545 -95.7104 84.0232 -95.5973 86.0268C-95.3429 90.3436 -94.216 94.4741 -92.5624 98.4534C-88.7609 107.609 -83.4153 115.8 -76.9888 123.316C-73.3792 127.528 -69.5105 131.481 -65.0355 134.789C-62.8146 136.434 -60.4822 137.954 -57.7781 138.736C-56.1933 139.189 -54.6189 139.546 -52.9648 138.808C-51.85 138.314 -50.9412 138.721 -50.4056 139.618C-49.84 140.554 -50.0683 141.617 -51.0264 142.427C-52.1879 143.432 -53.6106 143.684 -55.1008 143.656C-58.7735 143.588 -62.0603 142.337 -65.1593 140.489C-69.2041 138.076 -72.663 134.908 -75.9449 131.564C-83.387 123.991 -89.5585 115.475 -94.3901 106.026C-97.2558 100.421 -99.4898 94.5863 -100.213 88.2877C-100.656 84.5686 -100.517 80.9056 -98.9012 77.4452C-96.8906 73.1684 -93.1608 71.0212 -88.4897 71.6146C-86.8832 71.8231 -85.2816 72.325 -83.7389 72.9129C-80.6998 74.0825 -78.0491 75.9398 -75.4867 77.9263C-73.6162 79.3826 -71.8145 80.9118 -69.8974 82.4569L-69.8843 82.4469ZM59.9674 91.2509C60.0756 91.1481 60.1839 91.0453 60.2921 90.9425C60.1739 91.0322 60.0625 91.1581 59.9443 91.2477C59.4485 90.4034 58.6597 90.8363 57.9973 90.8631C51.7848 91.1289 45.6385 90.8274 39.5999 89.1407C35.9517 88.1229 32.5512 86.5863 29.6302 84.1272C29.4613 83.9864 29.2498 83.8986 29.0547 83.7777C29.2534 84.5578 29.6062 85.1591 30.0082 85.7435C31.3906 87.7564 32.8649 89.6995 34.1354 91.7559C34.7707 92.7841 35.4816 93.1756 36.6389 93.2284C43.5768 93.5915 50.4476 93.1571 57.247 91.7014C58.1327 91.5052 59.055 91.3846 59.9475 91.2246L59.9674 91.2509ZM-65.9709 73.4786L-65.476 73.5582C-65.2664 73.3164 -65.0268 73.1139 -64.8502 72.8558C-60.8382 66.8536 -55.3397 62.6197 -48.7115 60.0112C-46.4484 59.1216 -45.4825 57.913 -44.9907 55.6159C-44.1779 51.7513 -42.4992 48.2642 -39.1933 45.7766C-38.7205 45.4179 -38.4275 44.7405 -38.1934 44.1491C-37.439 42.2528 -36.8168 40.2912 -36.0293 38.4112C-31.3244 27.1045 -23.637 18.6653 -12.2846 13.693C-5.52646 10.7376 1.53143 8.94088 8.77089 7.79247C12.0184 7.27311 15.2591 6.71752 18.5098 6.17507C18.6525 5.73585 18.753 5.43202 18.8404 5.13815C19.9041 1.33145 20.9448 -2.47841 22.0085 -6.2851C22.167 -6.83979 22.388 -7.42119 22.6787 -7.91069C23.1686 -8.73754 23.9615 -9.02879 24.8789 -8.85597C25.8193 -8.67997 26.4827 -7.94203 26.5148 -6.89068C26.5257 -6.11281 26.4378 -5.3014 26.2408 -4.55202C25.6571 -2.18523 24.9941 0.158907 24.3773 2.50939C24.203 3.17954 24.0848 3.86915 23.8919 4.76025C24.6589 4.57133 25.1661 4.47617 25.6565 4.33165C28.9642 3.37354 32.1484 2.11615 35.1057 0.36888C40.6721 -2.90283 45.2573 -7.1678 47.9407 -13.1757C50.3701 -18.6185 49.8065 -22.2248 44.3444 -26.3969C44.2385 -26.482 44.1162 -26.534 44.0202 -26.606C40.2742 -29.2253 36.0926 -30.7279 31.6054 -31.4608C24.1387 -32.6844 16.8689 -31.6578 9.78107 -29.3005C-6.47743 -23.8951 -21.091 -15.4762 -34.3068 -4.64233C-39.2098 -0.632684 -43.622 3.91479 -47.4909 8.96026C-55.9813 20.0773 -61.4904 32.6148 -64.9175 46.0964C-66.6311 52.8372 -67.3879 59.721 -66.8718 66.6734C-66.7044 68.9667 -66.2964 71.2224 -65.9841 73.4885L-65.9709 73.4786ZM59.1601 50.3444C60.9572 55.2491 62.7819 59.7812 64.2774 64.3976C65.451 68.0169 66.3384 71.75 67.1796 75.4767C67.4667 76.7277 67.4512 78.1254 67.1845 79.3829C66.7706 81.4553 64.9032 82.3756 62.9376 81.6121C62.2109 81.336 61.5194 80.8883 60.9562 80.364C60.0085 79.4695 59.0965 78.4857 58.2833 77.4684C54.4296 72.6346 51.621 67.2148 49.4106 61.4652C49.1262 60.7087 48.7794 59.9788 48.3755 59.0647C41.5258 64.572 34.9388 69.88 28.1285 75.3574C29.4986 76.9451 30.6274 78.4057 31.9102 79.6873C35.1155 82.9029 39.2111 84.3467 43.534 85.1629C52.216 86.7885 60.8483 86.5486 69.3696 84.1173C77.4269 81.8105 84.373 77.6575 89.5813 70.9959C96.9174 61.6027 99.4724 50.7895 98.6567 39.0788C98.5603 37.7246 98.1605 36.3522 97.715 35.056C96.9511 32.8221 95.2961 31.5953 92.9393 31.6251C91.3835 31.647 89.786 31.8868 88.255 32.2415C84.9595 33.0249 81.9583 34.5779 79.0666 36.2754C73.0796 39.7835 67.5277 43.8924 62.0722 48.1557C61.0973 48.916 60.0893 49.6601 59.157 50.3675L59.1601 50.3444ZM98.9852 28.6308C98.9825 28.1364 99.0269 27.8131 98.9757 27.5002C97.8964 20.0236 95.0412 13.3151 90.0913 7.55466C86.4717 3.32937 81.979 0.40777 76.4648 -0.642331C69.3336 -1.99647 62.8132 -0.773004 57.4256 4.45244C55.1172 6.70038 53.6491 9.51057 52.5017 12.4706C49.8426 19.3288 49.0215 26.5096 49.1241 33.817C49.1445 34.5256 49.5937 35.2813 50.0125 35.9151C51.2622 37.7804 52.6169 39.566 53.8567 41.4181C54.8437 42.8827 55.7552 44.384 56.8193 46.0591C57.3839 45.6307 57.8435 45.282 58.3031 44.9333C63.4321 41.2487 68.5145 37.4754 73.7132 33.8827C77.237 31.4367 81.0501 29.4539 85.1403 28.109C89.7372 26.5865 94.3545 25.7726 98.949 28.6376L98.9852 28.6308ZM1.89451 87.959C1.23931 87.5045 0.918279 87.2723 0.594076 87.0632C-4.79466 83.6423 -9.57074 79.529 -13.4915 74.4978C-16.124 71.1372 -18.5038 67.5642 -20.9919 64.094C-21.4868 63.4144 -21.8142 62.6284 -22.7813 62.3899C-27.4325 61.2229 -32.1312 61.0022 -36.7924 61.6218C-36.9197 61.8632 -37.0179 61.9791 -37.0338 62.0945C-38.4387 74.0419 -37.2241 85.7601 -33.8152 97.2617C-33.5363 98.2292 -32.935 98.4764 -32.0452 98.4219C-29.2804 98.2481 -26.5047 98.2522 -23.7706 97.8742C-15.9045 96.7882 -8.63152 93.9387 -1.72979 90.1089C-0.595952 89.4762 0.511171 88.781 1.91759 87.9622L1.89451 87.959ZM46.9307 54.0789C46.7483 53.2657 46.5767 52.6305 46.4775 51.9817C45.8632 48.1449 44.9753 44.3294 44.7399 40.474C44.5562 37.6138 43.589 35.5755 41.5084 33.6787C36.7772 29.3245 31.6122 25.8167 25.2974 24.2568C24.0463 23.9442 22.7368 23.7999 21.0705 23.5126C21.0845 24.2674 21.1533 24.7944 21.1298 25.3088C20.6437 33.4766 20.5928 41.6453 21.1319 49.8007C21.527 55.7484 22.4918 61.5742 24.4578 67.2197C24.853 68.3679 25.3733 69.4626 25.9379 70.834C33.0701 65.1537 39.966 59.6528 46.9538 54.0821L46.9307 54.0789ZM-29.683 44.5396C-29.6159 42.9372 -29.6829 41.5399 -29.4959 40.1774C-28.9556 36.4989 -26.5982 34.1518 -22.9495 33.4522C-20.9078 33.0616 -18.8861 33.2447 -16.8756 33.7674C-13.845 34.5711 -11.0816 35.9498 -8.52377 37.7121C-1.78661 42.3649 3.02428 48.6239 6.47629 55.9553C9.86491 63.1486 11.2553 70.8443 11.6776 78.7367C11.7246 79.5078 11.7717 80.2789 11.85 81.3365C14.2381 79.7936 16.2971 78.3349 18.2826 76.7249C17.9431 76.1137 17.7266 75.7194 17.4871 75.3219C13.7946 69.228 10.4934 62.9406 7.93838 56.2733C5.64778 50.3363 4.0355 44.2571 3.86857 37.8466C3.78443 34.5178 4.16214 31.2522 5.40108 28.1401C7.22871 23.5676 10.4921 20.5331 15.3114 19.2763C15.8117 19.145 16.2822 18.9742 16.7857 18.8197C17.0783 16.2601 17.3681 13.806 17.6833 11.1671C15.5063 11.5156 13.5696 11.8265 11.633 12.1374C4.98622 13.1671 -1.61296 14.4503 -7.86896 17.004C-13.2764 19.2035 -18.318 21.9943 -22.4948 26.1977C-27.0288 30.7755 -30.0976 36.2483 -32.4088 42.2013C-32.6235 42.7366 -32.7589 43.2944 -32.9631 43.9252C-31.7917 44.1328 -30.7688 44.3083 -29.6767 44.4934L-29.683 44.5396ZM4.95491 91.8018C-6.26211 98.616 -18.1501 103.291 -31.6989 103.269C-29.0488 110.443 -25.5592 116.815 -20.5663 122.605C-17.9495 121.282 -15.3848 120.081 -12.9265 118.712C-8.8675 116.48 -5.06118 113.861 -1.91863 110.422C2.20697 105.906 4.40229 100.455 5.70198 94.5863C5.92071 93.5929 5.60647 92.7969 4.96487 91.8149L4.95491 91.8018ZM-17.1735 126.341C-15.4819 127.643 -14.1968 128.737 -12.8104 129.691C-8.22084 132.85 -3.30844 135.37 2.31583 136.047C4.24884 136.277 6.27605 136.249 8.18281 135.899C11.4892 135.293 13.4875 132.991 13.8616 129.666C14.0373 128.043 14.0084 126.369 13.8775 124.751C13.2628 117.232 11.5088 109.957 9.22143 102.797C9.14084 102.528 8.91217 102.308 8.66269 101.897C8.31763 102.697 8.03733 103.282 7.79009 103.883C6.36458 107.241 4.52884 110.33 2.11759 113.069C-2.11171 117.913 -7.42046 121.278 -13.048 124.224C-14.2642 124.857 -15.4904 125.477 -17.1604 126.331L-17.1735 126.341ZM6.49202 79.3197C6.65639 79.2364 6.82077 79.1531 6.98515 79.0697C6.64017 76.2698 6.39074 73.4594 5.93709 70.6798C4.31086 60.8461 0.271612 52.2225 -6.93007 45.2122C-9.79353 42.4199 -13.0165 40.19 -16.8051 38.8236C-18.5656 38.194 -20.351 37.8316 -22.2378 38.2081C-23.2553 38.4215 -24.0966 38.8944 -24.4965 39.9218C-25.2699 41.9567 -24.6954 43.9412 -24.2987 45.9365C-24.0479 47.1943 -23.1908 47.8059 -22.2544 48.4401C-21.5032 48.9666 -20.7814 49.5361 -20.0629 50.1287C-15.4534 53.9132 -11.654 58.4573 -7.80532 62.9845C-4.60363 66.7408 -1.41824 70.5301 1.80971 74.2665C3.31252 76.0018 4.92355 77.6343 6.49202 79.3197ZM-66.8543 92.1673C-67.0753 92.7487 -67.1799 92.9108 -67.2053 93.0955C-67.8638 98.6635 -67.6294 104.154 -65.8595 109.514C-64.0027 115.097 -60.6063 119.492 -55.5458 122.562C-48.868 126.618 -41.6109 127.484 -34.0115 126.455C-33.6031 126.394 -33.1919 126.227 -32.764 126.109C-35.2077 124.115 -37.5913 122.283 -39.8339 120.281C-47.1715 113.746 -53.6631 106.363 -60.3319 99.155C-62.4211 96.8923 -64.5365 94.6495 -66.8444 92.1804L-66.8543 92.1673ZM-46.4041 64.1977C-47.164 64.5053 -47.6344 64.676 -48.0981 64.883C-54.2536 67.7328 -59.0561 72.0386 -62.4555 77.9484C-63.324 79.4762 -63.3476 80.5905 -62.3736 82.065C-57.3341 89.7435 -50.2533 94.5492 -41.5269 97.0513C-41.1538 97.1613 -40.8033 97.3505 -40.4465 97.4936C-43.9582 86.4838 -46.8255 75.7505 -46.4141 64.1846L-46.4041 64.1977ZM16.2739 24.0902C14.0746 24.6003 12.5482 25.7792 11.3206 27.3518C9.89332 29.1795 9.282 31.319 8.92831 33.5526C8.32372 37.5281 8.75061 41.4451 9.60586 45.3266C11.3272 53.2677 14.7163 60.5435 18.569 67.6122C18.8222 68.0821 19.0784 68.529 19.3447 68.989C19.5742 69.3734 19.8432 69.7279 20.0859 70.1023C15.0031 55.1127 15.8284 39.6746 16.2739 24.0902ZM-30.407 121.279C-30.8222 120.105 -31.1242 119.134 -31.5019 118.2C-33.4493 113.534 -35.4822 108.891 -37.3771 104.184C-37.8317 103.04 -38.5 102.595 -39.6483 102.391C-44.8094 101.424 -49.6294 99.5166 -54.0849 96.753C-55.2889 96.0115 -56.444 95.1709 -57.8436 94.2261C-54.6293 99.6898 -34.5936 119.47 -30.3939 121.27L-30.407 121.279ZM13.72 86.3101C15.1426 87.8579 16.5191 89.3995 18.6813 89.9312C21.2989 90.5724 23.9002 91.2467 26.5179 91.8879C27.0526 92.02 27.6064 92.0136 28.5333 92.1171C25.8714 88.1996 23.4222 84.6171 20.8667 80.8671L13.71 86.297L13.72 86.3101ZM-34.6925 48.9816C-35.2359 51.4833 -35.7762 53.9619 -36.3196 56.4636C-32.4753 56.5672 -28.8981 56.6459 -25.2055 56.7405C-26.0269 54.8398 -26.7785 53.0311 -27.5826 51.2622C-27.7361 50.9235 -27.9887 50.536 -28.3062 50.363C-30.2369 49.3455 -32.2519 48.5987 -34.6825 48.9948L-34.6925 48.9816ZM52.5278 55.8109C54.6934 62.4013 57.4821 68.3948 61.7338 73.6714C60.2954 66.8395 58.1166 60.2591 55.1541 53.8183L52.5278 55.8109ZM-12.9162 66.9657C-10.794 71.0445 -3.90749 78.2939 -1.41346 79.2358C-4.4829 74.3448 -8.05996 70.0665 -12.9162 66.9657ZM50.4434 44.7733C50.23 46.7556 50.6221 48.5268 51.1609 50.6005C51.899 49.937 52.3681 49.519 52.9029 49.0512C52.0276 47.5432 51.2289 46.1632 50.4533 44.7864L50.4434 44.7733ZM28.2208 97.0502C29.993 98.6225 31.5792 99.3223 32.9466 99.2156C32.2276 96.7408 30.06 97.62 28.2208 97.0502ZM-65.4877 86.4964C-65.4519 86.4072 -65.4193 86.3411 -65.3867 86.275C-65.436 86.2918 -65.5053 86.2823 -65.5216 86.3153C-65.5379 86.3484 -65.5112 86.4109 -65.4877 86.4964ZM-18.3963 58.2975C-18.4823 58.2387 -18.5683 58.1798 -18.6775 58.1178C-18.6838 58.164 -18.7196 58.2532 -18.6997 58.2794C-18.6399 58.3582 -18.5702 58.4501 -18.4841 58.509C-18.4615 58.4297 -18.4289 58.3636 -18.4062 58.2844L-18.3963 58.2975Z" fill="#3DFFA2"/>
</svg>
