<svg width="91" height="84" viewBox="0 0 91 84" fill="none" xmlns="http://www.w3.org/2000/svg">
<path d="M30.8257 0L33.1121 9.29071C34.4063 14.5494 35.0534 17.1787 36.4278 19.2991C37.6431 21.1742 39.2621 22.754 41.1663 23.9232C43.3197 25.2454 45.964 25.828 51.2527 26.9933L61.6514 29.2844L51.2527 31.5755C45.964 32.7408 43.3197 33.3234 41.1663 34.6456C39.2621 35.8148 37.6431 37.3946 36.4278 39.2697C35.0534 41.3901 34.4063 44.0194 33.1121 49.2781L30.8257 58.5688L28.5392 49.2781C27.2451 44.0194 26.598 41.3901 25.2236 39.2697C24.0082 37.3946 22.3893 35.8148 20.4851 34.6456C18.3317 33.3234 15.6874 32.7408 10.3986 31.5755L0 29.2844L10.3986 26.9933C15.6874 25.828 18.3317 25.2454 20.4851 23.9232C22.3893 22.754 24.0082 21.1742 25.2236 19.2991C26.598 17.1787 27.2451 14.5494 28.5392 9.2907L30.8257 0Z" fill="black"/>
<path d="M71.2017 46.2388L71.4034 47.0677C72.6841 52.331 73.3245 54.9626 74.6938 57.0869C75.9047 58.9655 77.52 60.5496 79.4217 61.7237C81.5722 63.0515 84.2158 63.6405 89.503 64.8187L90.853 65.1195L89.503 65.4203C84.2158 66.5985 81.5722 67.1875 79.4217 68.5153C77.52 69.6894 75.9047 71.2736 74.6938 73.1521C73.3245 75.2764 72.6841 77.908 71.4034 83.1713L71.2017 84.0002L71 83.1713C69.7192 77.908 69.0788 75.2764 67.7095 73.1521C66.4987 71.2736 64.8834 69.6894 62.9817 68.5153C60.8311 67.1875 58.1875 66.5985 52.9004 65.4203L51.5503 65.1195L52.9004 64.8187C58.1875 63.6405 60.8311 63.0515 62.9817 61.7237C64.8834 60.5496 66.4987 58.9655 67.7095 57.0869C69.0788 54.9626 69.7192 52.331 71 47.0677L71.2017 46.2388Z" fill="black"/>
</svg>
